<svg width="131" height="425" viewBox="0 0 131 425" fill="none" xmlns="http://www.w3.org/2000/svg">
<path d="M47.0127 254.323L66.3017 403.639C66.6137 406.057 70.7847 406.069 71.1177 403.653L91.6657 254.323" stroke="#1A1A1A" stroke-width="1.4762" stroke-miterlimit="10" stroke-linecap="round" stroke-linejoin="round"/>
<path d="M101.515 320.825H37.4477L23.9307 233.847H114.736L101.515 320.825Z" fill="#BF7028"/>
<path d="M114.736 233.847C114.608 239.594 93.5177 242.576 71.6907 242.773H71.0807C70.4217 242.773 69.7617 242.783 69.1127 242.783C68.3747 242.783 67.6267 242.783 66.8887 242.773C45.0807 242.566 24.0397 239.584 23.9317 233.847C24.0497 228.179 44.5587 225.216 66.0617 224.941C66.7897 224.931 67.5277 224.931 68.2567 224.931C68.5417 224.921 68.8377 224.921 69.1227 224.921C69.8507 224.921 70.5887 224.921 71.3177 224.931C72.0757 224.931 72.8427 224.941 73.6007 224.961C74.6637 224.971 75.7167 225 76.7697 225.03C96.6867 225.61 114.638 228.562 114.736 233.847Z" fill="#42210B"/>
<path d="M85.9607 224.166C83.5777 224.173 81.1717 223.411 79.3407 221.861C79.3397 221.861 79.3397 221.86 79.3397 221.86C79.3407 221.86 79.3407 221.86 79.3407 221.861C78.4817 221.148 77.6627 220.325 77.1367 219.329C75.4167 219.36 76.1387 212.76 76.4787 211.566C79.6337 196.083 97.9687 184.905 113.087 184.969C124.811 185.603 123.795 198.189 117.901 205.18C110.29 214.915 98.4327 222.929 85.9607 224.166Z" fill="#0F4F35"/>
<path d="M34.9067 205.203C27.8837 205.234 21.2807 201.984 15.3567 198.488C15.2407 198.414 15.1237 198.341 15.0077 198.267C15.0367 198.285 15.0657 198.303 15.0947 198.321C15.0237 198.276 14.9527 198.231 14.8817 198.186C14.9107 198.204 14.9387 198.222 14.9677 198.24C14.8307 198.154 14.6947 198.068 14.5577 197.981C14.5867 197.999 14.6147 198.017 14.6427 198.035C14.5587 197.981 14.4737 197.928 14.3887 197.874C14.4167 197.892 14.4447 197.909 14.4727 197.928C14.4147 197.891 14.3557 197.854 14.2967 197.817C14.3257 197.834 14.3527 197.853 14.3807 197.87C14.3577 197.855 14.3347 197.841 14.3017 197.82C14.2937 197.815 14.2857 197.81 14.2717 197.802C14.2587 197.793 14.2447 197.785 14.2287 197.775C14.2187 197.768 14.2097 197.762 14.1997 197.756C11.5997 196.055 9.11772 194.147 6.95372 191.912C6.97072 191.93 6.98672 191.948 7.00272 191.966C-2.61828 182.274 0.480718 170.451 14.5187 168.836C14.5017 168.837 14.4847 168.839 14.4677 168.841C14.5307 168.835 14.5927 168.829 14.6557 168.823C15.0847 168.781 15.5137 168.738 15.9427 168.696C15.9107 168.699 15.8787 168.703 15.8477 168.706C24.9797 168.185 34.1627 171.139 42.0047 175.687C46.8467 178.495 50.3447 182.643 51.5067 188.177C52.4757 192.794 53.1827 201.263 47.6797 202.86C47.7137 202.848 47.7467 202.835 47.7807 202.822C43.6927 204.45 39.2847 205.079 34.9067 205.203Z" fill="#0F4F35"/>
<path d="M124.115 77.1263C118.171 70.5523 106.637 76.1713 100.171 79.4883C88.1837 86.3973 80.5767 96.3953 77.7917 110.006C76.9947 113.185 76.6697 116.432 76.6697 119.69C76.6697 122.485 76.9157 125.29 77.2797 128.055C77.2897 128.075 77.2897 128.084 77.2897 128.104C77.3487 128.813 77.3977 129.521 77.4077 130.24C77.4077 130.427 77.5847 130.575 77.7717 130.575C78.4407 130.408 77.9877 128.991 78.0567 128.44C78.4697 129.001 78.9817 129.444 79.5627 129.798C81.0687 130.713 82.9877 130.969 84.7297 130.92C89.2667 130.684 93.0457 127.672 96.5687 125.084C101.253 121.964 105.692 118.412 109.481 114.229C116.006 106.502 131.683 86.9963 124.115 77.1263ZM77.9397 126.233C77.9007 126.213 77.8607 126.184 77.8217 126.154C77.8117 126.065 77.8017 125.977 77.7917 125.888C77.8407 126.007 77.8907 126.115 77.9397 126.233Z" fill="#0F4F35"/>
<path d="M130.588 153.118C128.803 141.681 113.753 145.996 106.107 148.111C94.7667 151.551 84.5428 159.897 80.0798 171.015C78.7588 175.005 77.2638 180.105 79.8998 183.842C80.1148 184.253 80.8038 184.131 80.8698 183.675C89.6488 190.319 102.191 179.853 110.148 175.862C115.31 172.915 120.905 170.423 125.233 166.264C128.513 162.811 131.15 158.005 130.588 153.118Z" fill="#6F963B"/>
<path d="M53.5207 98.5253C52.0487 89.9713 46.4337 83.4313 39.9397 78.0623C37.4427 75.8943 34.2357 73.4443 31.1117 72.1263L31.1087 72.1253C23.7687 69.0573 15.0917 68.5543 7.65972 71.4913C1.17672 74.3313 -2.83727 80.7713 2.42573 86.8343C9.46273 94.7833 20.8057 96.3633 29.3547 102.082C35.8837 106.114 46.2467 116.018 52.4927 106.617C52.7247 106.605 52.9307 106.452 53.0057 106.236C53.5557 105.142 53.7247 103.663 53.7967 102.449C53.7027 101.789 54.1227 101.026 53.7677 100.44C53.7147 99.7373 53.6077 99.0473 53.5207 98.5253Z" fill="#2D8E00"/>
<path d="M124.026 42.2983C115.622 41.5403 107.207 47.4943 100.525 52.0213C97.8677 53.9793 95.3287 56.0853 92.9077 58.3193C92.9077 58.3193 92.8877 58.3293 92.8777 58.3393L92.7887 58.4283C92.7687 58.4383 92.7587 58.4483 92.7497 58.4673C92.7397 58.4673 92.7297 58.4773 92.7297 58.4873C92.7297 58.4873 92.7297 58.4873 92.7297 58.4773C92.5527 58.6443 92.3757 58.8123 92.1977 58.9793C92.1287 59.0383 92.0697 59.0973 92.0107 59.1563C91.9907 59.1763 91.9617 59.2053 91.9317 59.2253C91.9317 59.2353 91.9217 59.2353 91.9217 59.2353C91.8727 59.2743 91.8327 59.3243 91.7737 59.3733C84.8647 66.2033 78.3507 74.0273 74.9547 83.2283C74.8367 83.5433 74.7187 83.8683 74.6107 84.1933C73.0457 86.7713 72.5347 89.7433 71.6677 92.5873C71.4907 93.1683 71.3037 93.7383 71.0867 94.3093C70.9787 94.6243 71.1167 94.9783 71.4407 95.1063C71.4697 95.1163 71.5097 95.1353 71.5487 95.1353C71.8247 95.1843 72.1387 95.0373 72.2377 94.7513C72.8967 92.5963 73.8027 90.5293 74.7467 88.4823C74.7957 88.3933 74.8357 88.3053 74.8747 88.2163H74.8847C76.3507 85.0083 78.2507 81.9473 80.7897 79.4773C83.9977 76.2203 88.3377 74.7833 92.5107 73.1983C99.8427 69.8223 107.617 67.0773 114.339 62.5603C116.947 60.6413 119.555 58.7023 122.005 56.5863L122.103 56.4883C122.113 56.4783 122.113 56.4783 122.113 56.4783C122.152 56.4393 122.192 56.4093 122.231 56.3703C125.936 53.1723 130.502 44.9653 124.026 42.2983Z" fill="#2D8E00"/>
<path d="M114.675 62.3253C114.65 62.3433 114.625 62.3613 114.601 62.3793C114.626 62.3613 114.651 62.3443 114.675 62.3253Z" fill="#2D8E00"/>
<path d="M110.801 64.8253C110.774 64.8393 110.747 64.8543 110.72 64.8693C110.748 64.8543 110.775 64.8393 110.801 64.8253Z" fill="#2D8E00"/>
<path d="M81.3837 12.3613C75.7247 20.5193 71.0997 29.5343 68.1767 39.0413C67.3897 42.2103 66.9757 45.5763 67.0747 48.9313C67.2027 54.6983 68.7967 60.4163 72.3887 64.9333C72.6547 65.2183 72.9207 65.5233 73.1957 65.8193L73.4907 66.1143C73.9337 66.5373 74.4057 66.9113 74.9767 67.1183C76.2367 67.2563 74.7407 65.7403 74.4357 65.3863C74.6517 65.3373 74.8487 65.1993 74.9667 65.0123C75.3897 65.2883 75.8127 65.4943 76.2367 65.6323C79.9367 66.9413 83.8437 63.9983 86.5797 61.5873C97.0897 52.2583 101.942 38.4113 105.318 25.1353C113.181 -0.304672 97.6027 -9.67367 81.3837 12.3613ZM73.2357 63.8993C73.2257 63.9093 73.2257 63.9193 73.2157 63.9383C73.1467 63.8493 73.0777 63.7713 73.0087 63.6823C73.0877 63.7413 73.1757 63.8003 73.2547 63.8593C73.2557 63.8793 73.2457 63.8893 73.2357 63.8993Z" fill="#6F963B"/>
<path d="M67.9627 240.971C65.6737 240.779 67.3827 234.721 67.3297 233.054C67.8687 228.558 68.3647 224.059 68.7957 219.551C70.0737 206.571 68.7067 193.516 68.7807 180.503C69.1377 180.754 69.0627 180.077 69.1017 179.871C69.4167 179.758 69.2667 179.295 69.2937 179.033C69.1167 175.448 69.0597 171.863 69.0037 168.274C68.8687 159.43 69.4087 150.584 69.6377 141.743C69.6367 141.752 69.6367 141.761 69.6367 141.77C69.8527 135.916 70.0757 130.062 70.3067 124.209C71.1707 124.322 70.7937 122.61 70.9447 122.051C71.1067 117.563 71.2847 113.055 70.9477 108.573C70.9487 108.587 70.9497 108.602 70.9517 108.616C72.1447 84.0134 72.3487 58.9464 79.2997 35.1224C79.2997 35.1234 79.2987 35.1244 79.2987 35.1254C83.3327 23.0144 88.2687 6.58037 101.21 1.48237C101.627 1.37537 102.485 1.01037 102.62 1.61437C102.629 1.88737 102.353 1.99637 102.12 1.95137C101.751 1.99337 101.395 2.10137 101.049 2.23537L101.05 2.23437C101.049 2.23437 101.047 2.23537 101.046 2.23537C101.036 2.24137 101.024 2.24337 101.014 2.24737C101.02 2.24537 101.026 2.24337 101.032 2.24037C97.1517 3.81637 94.1067 6.89237 91.8847 10.3804C91.8877 10.3754 91.8917 10.3704 91.8937 10.3654C87.3587 17.1384 84.9617 24.9774 82.5877 32.6984C76.9247 51.2214 75.2977 70.6694 74.6977 89.9444C74.0897 106.569 73.3607 123.19 72.7597 139.816C72.7627 139.747 72.7647 139.678 72.7667 139.609C71.9587 160.04 71.4827 180.487 72.2637 200.927C72.8527 211.216 71.8107 221.463 70.5257 231.661C70.1347 234.444 69.9827 237.271 69.3297 240.01C69.1907 240.621 68.5767 241.038 67.9627 240.971Z" fill="#0F3F2D"/>
<path d="M68.5667 238.932C67.8187 238.414 67.8387 237.359 68.4037 236.711C68.3697 236.764 68.3367 236.817 68.3027 236.87C70.7607 231.421 72.7397 225.7 76.0897 220.69C76.0577 220.739 76.0267 220.79 75.9947 220.839C76.1527 220.588 76.3117 220.338 76.4707 220.087L76.4697 220.089C76.5007 220.04 76.5317 219.991 76.5627 219.941C76.5507 219.959 76.5397 219.978 76.5277 219.996C84.6647 206.112 98.1427 194.978 114.01 191.402C114.925 191.332 118.856 189.889 118.937 190.925C118.899 191.206 118.631 191.252 118.394 191.215C118.409 191.215 118.424 191.216 118.44 191.217C118.353 191.22 118.265 191.225 118.178 191.235C118.193 191.234 118.208 191.232 118.223 191.231C117.61 191.303 117.012 191.461 116.411 191.601C116.427 191.597 116.443 191.594 116.459 191.59C97.3017 196.58 83.3547 210.393 75.2857 228.11C75.2917 228.096 75.2987 228.083 75.3047 228.07C75.2787 228.127 75.2517 228.184 75.2257 228.241C75.2317 228.228 75.2387 228.214 75.2447 228.201C74.1557 230.603 73.1607 233.045 72.1937 235.498C71.6107 236.967 70.6807 240.093 68.5667 238.932Z" fill="#0F3F2D"/>
<path d="M71.0807 242.773C70.4217 242.773 69.7617 242.783 69.1127 242.783C68.3747 242.783 67.6267 242.783 66.8887 242.773C66.2587 241.809 66.4357 240.136 66.7807 239.043C66.8297 238.876 66.8887 238.728 66.9377 238.6C67.1837 237.557 67.1347 235.923 67.9907 235.225C68.2067 235.028 68.4927 234.91 68.8467 234.881C68.9547 234.35 69.2497 234.044 69.5947 233.907C69.8017 233.828 70.0377 233.809 70.2537 233.848C70.4897 233.887 70.7067 233.996 70.8937 234.143C71.2477 234.428 71.4647 234.881 71.3757 235.462C71.3367 235.915 71.3657 236.623 71.3957 237.44V237.755C71.4547 239.388 71.4937 241.376 71.0807 242.773Z" fill="#0F3F2D"/>
<path d="M71.6907 242.773H71.0807C70.4217 242.773 69.7617 242.783 69.1127 242.783C69.0147 242.616 68.9357 242.439 68.9157 242.252C68.8567 241.77 68.7977 241.278 68.7387 240.796C68.6597 240.156 68.5807 239.507 68.4927 238.867C68.4137 238.227 68.3257 237.588 68.2367 236.948C68.1577 236.367 68.0787 235.797 67.9907 235.226C67.8237 234.104 67.6557 232.982 67.4687 231.86C67.4587 231.752 67.4387 231.643 67.4197 231.535C67.0457 229.321 66.6027 227.116 66.0617 224.941C64.9697 220.503 63.4637 216.173 61.3377 212.128C61.3177 212.099 61.3077 212.069 61.2887 212.03C61.2687 211.981 61.2397 211.932 61.2097 211.882C61.1117 211.695 61.0027 211.508 60.9047 211.311C58.3957 206.695 55.2267 202.454 51.5757 198.665C44.4117 191.235 35.3477 185.566 25.6047 182.358C18.4207 180.055 10.9507 178.618 3.41274 178.412C2.28074 177.684 7.01474 177.881 7.56574 177.89C23.7247 178.539 40.0717 185.33 52.0477 196.431C59.7137 203.527 65.5897 212.384 68.5027 222.54C68.7287 223.327 68.9357 224.124 69.1227 224.922C69.2307 225.365 69.3297 225.808 69.4277 226.261C69.8407 228.091 70.1957 229.932 70.5007 231.772C70.5107 231.782 70.5107 231.802 70.5107 231.811C70.6387 232.588 70.7667 233.366 70.8947 234.143C71.0517 235.255 71.2097 236.377 71.3667 237.499C71.3767 237.578 71.3867 237.666 71.3967 237.755C71.5737 239.083 71.7407 240.422 71.9087 241.75C71.9757 242.123 71.8877 242.478 71.6907 242.773Z" fill="#0F3F2D"/>
<path d="M69.3937 221.78C68.9347 221.736 68.5897 221.302 68.6387 220.845C68.7477 218.891 68.9287 216.941 69.1307 214.993C70.0387 199.009 75.1997 184.362 85.5027 171.991C85.4877 172.008 85.4737 172.026 85.4587 172.043C95.2777 160.351 109.935 148.349 125.925 148.428C125.893 148.427 125.86 148.426 125.828 148.425C126.632 148.447 127.416 148.622 128.209 148.739C128.411 148.739 128.575 148.913 128.554 149.116C128.534 149.304 128.35 149.449 128.163 149.417C124.317 150.126 120.48 151.016 116.793 152.335C116.847 152.314 116.9 152.294 116.953 152.273C96.1467 160.259 80.5087 178.994 73.9927 200.051C71.9767 206.864 70.7527 213.931 70.3277 221.024C70.3027 221.488 69.8377 221.827 69.3937 221.78Z" fill="#0F3F2D"/>
<path d="M69.2018 176.786C67.5598 154.86 72.6677 132.886 84.6177 114.338C84.5877 114.385 84.5587 114.432 84.5297 114.479C84.8607 113.954 85.1947 113.429 85.5257 112.904C85.5217 112.911 85.5167 112.918 85.5127 112.925C85.5407 112.882 85.5667 112.838 85.5938 112.796C85.5648 112.843 85.5347 112.89 85.5057 112.937C87.7457 109.41 90.2237 106.039 92.8807 102.816C92.8717 102.828 92.8607 102.841 92.8507 102.853C92.8907 102.805 92.9288 102.758 92.9678 102.711L92.9668 102.712C93.0008 102.671 93.0357 102.63 93.0687 102.589C93.2267 102.398 93.3847 102.208 93.5427 102.017C93.5377 102.022 93.5337 102.029 93.5277 102.034C93.5577 101.998 93.5877 101.962 93.6177 101.926C93.6157 101.928 93.6137 101.931 93.6127 101.933C93.6557 101.881 93.6997 101.829 93.7427 101.776C93.7367 101.783 93.7317 101.789 93.7257 101.795C93.8267 101.673 93.9287 101.551 94.0297 101.428L94.0277 101.43C100.844 93.6544 108.135 85.1844 117.924 81.2424C118.379 81.2214 118.424 81.9444 117.964 81.9644C114.916 83.7404 112.239 86.1004 109.628 88.4574C109.648 88.4384 109.669 88.4194 109.689 88.3994C81.6287 114.519 72.3557 139.737 69.2127 176.982C69.2097 176.917 69.2058 176.852 69.2018 176.786Z" fill="#0F3F2D"/>
<path d="M72.6147 140.676C72.4037 134.546 71.7737 128.431 70.9297 122.358C71.0747 119.294 71.1387 116.228 71.1277 113.161C72.5547 121.04 73.2587 129.016 73.6947 137.005C73.7687 138.215 73.8287 139.426 73.8657 140.638C73.8757 140.979 73.5998 141.273 73.2588 141.283C72.9178 141.293 72.6257 141.017 72.6147 140.676Z" fill="#0F3F2D"/>
<path d="M66.4047 99.1224C66.3097 96.2764 66.2327 93.4294 66.1367 90.5834C66.3367 91.3444 66.5337 92.1064 66.7267 92.8684C66.7077 93.3714 66.6797 93.8744 66.6657 94.3764C66.6667 94.3584 66.6667 94.3404 66.6677 94.3224C66.6677 94.3394 66.6657 94.3564 66.6667 94.3734C66.6667 94.3664 66.6667 94.3584 66.6677 94.3514C66.6227 95.5604 66.5787 96.7694 66.5357 97.9784C66.5357 97.9774 66.5357 97.9764 66.5357 97.9754C66.5337 98.0214 66.5327 98.0684 66.5307 98.1154C66.5307 98.1134 66.5307 98.1104 66.5307 98.1084C66.5307 98.1224 66.5297 98.1354 66.5287 98.1494C66.5287 98.1484 66.5287 98.1474 66.5287 98.1464C66.5287 98.1594 66.5277 98.1714 66.5277 98.1854C66.5277 98.1884 66.5277 98.1904 66.5277 98.1934C66.5277 98.1944 66.5277 98.1954 66.5277 98.1954C66.5277 98.1964 66.5277 98.1964 66.5277 98.1974C66.5277 98.1964 66.5277 98.1944 66.5277 98.1934C66.5277 98.1954 66.5277 98.1964 66.5277 98.1974C66.5277 98.1964 66.5277 98.1964 66.5277 98.1954C66.5277 98.2024 66.5267 98.2094 66.5267 98.2164C66.5097 98.6164 66.4937 99.0174 66.4777 99.4174C66.4537 99.3204 66.4297 99.2214 66.4047 99.1224Z" fill="#0F3F2D"/>
<path d="M65.3097 94.7603C65.0907 93.9093 64.8627 93.0614 64.6287 92.2144C64.7677 90.3694 64.9227 88.5253 65.0917 86.6833C65.1557 86.9153 65.2187 87.1473 65.2817 87.3793C65.3757 90.0323 65.4177 92.6873 65.4597 95.3423C65.4097 95.1483 65.3597 94.9543 65.3097 94.7603Z" fill="#0F3F2D"/>
<path d="M63.5447 88.4143C63.0477 86.7053 62.5337 85.0003 62.0007 83.3003C62.0017 82.8363 61.8307 79.2243 61.0307 80.2863C60.7487 79.4313 60.4607 78.5773 60.1677 77.7263C60.2797 75.8103 60.3847 73.8943 60.5657 71.9833C62.0447 76.2733 63.3917 80.6083 64.6187 84.9793C64.4287 86.8063 64.2867 88.6393 64.1387 90.4703C63.9417 89.7853 63.7437 89.0993 63.5447 88.4143Z" fill="#0F3F2D"/>
<path d="M59.6517 76.2524C56.3567 66.8084 52.2947 57.5654 46.7027 49.2404C45.1217 46.9894 43.5967 44.6544 41.6957 42.6564C41.2457 42.2074 42.0457 41.5874 42.3627 42.1444C51.2167 49.7834 56.6847 60.4124 60.3477 71.3584C60.1497 73.2304 60.0277 75.1084 59.9087 76.9864C59.8237 76.7414 59.7377 76.4964 59.6517 76.2524Z" fill="#0F3F2D"/>
<path d="M72.0997 142.878C70.2427 136.682 67.9287 130.584 64.9107 124.857C64.9277 124.888 64.9437 124.919 64.9607 124.949C60.4387 116.508 53.8237 109.475 46.9417 102.911C35.5297 91.8653 21.6007 83.7863 6.76774 78.2653C6.50774 78.2623 6.38374 77.8623 6.65874 77.7423C6.65874 77.7423 6.65974 77.7423 6.65974 77.7433C12.6587 78.5933 18.5317 80.6533 24.0167 83.2383C24.0117 83.2363 24.0077 83.2343 24.0027 83.2323C30.1797 86.1543 35.9007 89.9703 41.1567 94.3243C41.1127 94.2873 41.0687 94.2513 41.0247 94.2143C46.5447 98.7303 51.5867 103.799 56.4637 108.994C56.4277 108.955 56.3907 108.916 56.3547 108.877C61.3017 114.24 65.5057 120.339 68.4927 127.005C70.6587 131.971 72.3497 137.135 73.9267 142.315C74.2947 143.486 72.4567 144.071 72.0997 142.878Z" fill="#0F3F2D"/>
<path d="M72.8157 89.8823C73.5707 86.7253 75.2257 83.8233 76.8607 81.0413C76.8517 81.0553 76.8427 81.0693 76.8337 81.0833C76.8517 81.0553 76.8687 81.0273 76.8867 80.9983C76.8847 81.0013 76.8827 81.0043 76.8807 81.0083C80.6317 75.0613 85.7537 70.1383 90.7937 65.2933C90.7727 65.3133 90.7527 65.3313 90.7317 65.3513C94.0137 62.4053 97.4927 59.6763 101.061 57.0853C101.059 57.0863 101.057 57.0883 101.055 57.0893C101.088 57.0653 101.121 57.0423 101.154 57.0183C101.147 57.0233 101.14 57.0283 101.134 57.0333C101.456 56.8003 101.78 56.5673 102.103 56.3353C102.1 56.3373 102.097 56.3393 102.095 56.3413C107.93 52.0203 114.509 48.9143 121.089 45.9163C121.273 45.8333 121.403 46.1173 121.219 46.2003C118.558 47.4043 115.931 48.6843 113.362 50.0743C113.362 50.0743 113.364 50.0733 113.366 50.0723C113.358 50.0773 113.349 50.0813 113.341 50.0863C113.346 50.0833 113.351 50.0813 113.356 50.0783C98.6477 58.2113 86.0217 70.1813 76.8627 84.2553C76.8647 84.2533 76.8657 84.2503 76.8667 84.2483C76.8617 84.2553 76.8577 84.2623 76.8527 84.2703C76.8557 84.2653 76.8597 84.2593 76.8627 84.2543C76.7227 84.4753 76.5837 84.6963 76.4437 84.9183C76.4557 84.8993 76.4687 84.8803 76.4807 84.8603C75.4317 86.5163 74.4977 88.2413 73.5117 89.9343C73.4477 90.3343 72.8137 90.2933 72.8157 89.8823Z" fill="#0F3F2D"/>
<path d="M73.3827 67.1864C73.3237 66.7334 73.2647 66.2714 73.1957 65.8184C72.2997 59.7364 70.3317 53.7534 67.0747 48.9314C64.3097 44.8474 60.6187 41.5904 55.8657 39.7884C50.5717 37.5254 45.2077 38.6274 41.4487 41.9244C39.1457 43.9324 37.4537 46.7464 36.7247 50.1124C35.6717 55.5444 37.5617 61.0364 39.8347 65.9174C44.8837 74.8134 54.6947 96.6314 65.2937 98.3044C65.3527 98.3144 65.4217 98.3244 65.4807 98.3334C65.8057 98.3534 66.1007 98.3434 66.3767 98.3044C66.4257 98.2944 66.4747 98.2843 66.5247 98.2753C66.6137 98.2553 66.7017 98.2364 66.7907 98.2064C69.1917 97.5174 69.8907 94.2603 70.3827 91.9673C70.9927 90.5993 71.4947 89.1824 71.9077 87.7454C72.3307 86.2294 72.6657 84.6844 72.9307 83.1394C73.8457 78.3164 74.0527 72.7374 73.3827 67.1864Z" fill="#96BC66"/>
<path d="M63.1367 174.1C57.6787 173.666 54.7647 168.483 52.4117 164.168C50.7677 161.248 48.9987 158.404 47.2567 155.542C42.5297 147.42 29.4187 128.735 37.6387 120.348C41.8877 114.324 51.2927 118.924 56.4837 121.442C62.2957 124.515 66.7767 129.526 69.8087 135.31L69.8107 135.313C69.8627 135.409 69.9147 135.505 69.9667 135.601C69.9477 135.567 69.9297 135.532 69.9117 135.498C76.0387 145.091 80.5427 174.573 63.1367 174.1Z" fill="#96BC66"/>
<path d="M70.5108 200.047C66.3808 180.693 61.4648 161.21 51.8588 143.758C51.8718 143.781 51.8848 143.805 51.8978 143.828C51.8738 143.784 51.8498 143.74 51.8258 143.696C51.8268 143.697 51.8278 143.7 51.8278 143.702C48.0838 136.724 43.5368 130.153 37.9068 124.562C37.9178 124.569 37.9288 124.574 37.9388 124.58C37.9408 124.579 37.9408 124.578 37.9428 124.577C37.9078 124.566 37.8748 124.543 37.8498 124.508C37.7228 124.02 38.3758 124.311 38.5628 124.492C44.4908 128.929 48.9798 134.998 52.9748 141.162C64.4408 159.082 69.8398 180.099 72.2588 201.051C71.8878 201.867 71.5018 202.677 71.1288 203.493C70.9428 202.341 70.7368 201.192 70.5108 200.047Z" fill="#0F3F2D"/>
<path d="M71.7078 134.92C71.6178 133.522 71.5048 132.126 71.3718 130.731C71.3728 130.743 71.3738 130.755 71.3748 130.767C70.4528 121.18 68.3977 111.752 66.2657 102.374C66.2667 102.378 66.2677 102.383 66.2687 102.387C66.2617 102.356 66.2548 102.326 66.2468 102.295C66.2488 102.302 66.2497 102.31 66.2517 102.317C66.2397 102.267 66.2278 102.217 66.2158 102.167C66.2178 102.177 66.2207 102.188 66.2227 102.198C66.1877 102.05 66.1528 101.903 66.1188 101.756C66.1268 101.787 66.1337 101.818 66.1407 101.849C66.1117 101.727 66.0828 101.605 66.0538 101.483C66.0568 101.494 66.0587 101.505 66.0617 101.516C66.0607 101.51 66.0587 101.505 66.0577 101.499V101.501C66.0547 101.49 66.0528 101.478 66.0498 101.467C66.0518 101.475 66.0537 101.484 66.0557 101.492C61.2768 80.6093 52.1978 61.0213 41.6508 42.4743C41.6588 42.4843 41.6658 42.4953 41.6738 42.5053C41.6298 42.4433 41.5838 42.3843 41.5358 42.3263C41.3718 42.2703 41.3198 42.0473 41.4438 41.9253C41.7218 41.6923 42.0678 42.0493 42.2718 42.2313C47.2778 47.8523 50.2217 54.9893 53.6707 61.6053C59.2137 72.3483 63.4207 83.7333 66.1967 95.4983C68.8017 107.296 71.2517 119.199 72.2927 131.25C72.3977 132.464 72.4927 133.678 72.5707 134.893C72.5857 135.129 72.3808 135.332 72.1508 135.339C71.9118 135.347 71.7228 135.156 71.7078 134.92Z" fill="#0F3F2D"/>
<path d="M113.656 246.489C113.531 252.236 92.9427 255.218 71.6347 255.415H71.0387C70.3947 255.415 69.7517 255.425 69.1177 255.425C68.3977 255.425 67.6667 255.425 66.9467 255.415C45.6577 255.208 25.1177 252.227 25.0117 246.489" stroke="#1A1A1A" stroke-width="1.4762" stroke-miterlimit="10" stroke-linecap="round" stroke-linejoin="round"/>
<path d="M66.9457 255.415C66.9457 257.788 33.4047 373.846 19.4057 422.183C18.6017 424.959 14.4887 424.249 14.6597 421.365L25.0107 246.489" stroke="#1A1A1A" stroke-width="1.4762" stroke-miterlimit="10" stroke-linecap="round" stroke-linejoin="round"/>
<path d="M71.8667 255.415C71.8667 257.788 105.408 373.846 119.407 422.183C120.211 424.959 124.324 424.249 124.153 421.365L113.802 246.489" stroke="#1A1A1A" stroke-width="1.4762" stroke-miterlimit="10" stroke-linecap="round" stroke-linejoin="round"/>
</svg>
