<svg width="111" height="162" viewBox="0 0 111 162" fill="none" xmlns="http://www.w3.org/2000/svg">
<path d="M80.338 100.298C82.827 101.873 85.748 102.305 88.586 100.341C91.73 98.166 92.765 94.169 93.419 90.621C94.129 86.763 93.832 82.859 97 79.934C99.945 77.215 103.738 77.223 105.773 73.308C107.591 69.812 108.645 64.21 107.878 60.336C107.182 56.817 104.88 53.61 105.103 49.982C105.46 44.208 109.749 39.079 110.312 33.25C110.614 30.113 109.975 29.323 108.449 26.958C107.431 25.382 106.099 24.689 105.285 22.398C105.082 21.824 103.957 15.668 104.126 15.716L104.161 15.726C101.604 20.158 97.001 22.715 92.797 25.385C82.114 32.658 84.046 43.966 77.511 53.284C74.783 56.806 70.238 60.67 70.465 65.898C71.203 70.842 76.545 73.228 76.886 78.058C77.113 83.285 72.851 87.661 74.669 93.343C75.768 95.967 77.833 98.712 80.338 100.298Z" fill="#6AA63E"/>
<path d="M98.881 33.065C90.618 49.493 88.892 67.768 84.33 85.357C79.754 103 75.374 120.981 67.522 137.515C66.986 138.643 68.673 139.63 69.202 138.496C76.567 122.71 80.717 105.669 85.016 88.859C89.726 70.445 91.375 50.786 99.438 33.39C99.61 33.019 99.07 32.691 98.881 33.065Z" fill="#19484E"/>
<path d="M95.807 44.479C99.353 41.262 103.627 38.174 106.107 33.996C106.28 33.705 105.902 33.462 105.666 33.655C101.927 36.714 98.83 40.667 95.352 44.023C95.05 44.313 95.5 44.757 95.807 44.479Z" fill="#19484E"/>
<path d="M89.824 29.343C90.652 34.202 91.334 40.598 94.501 44.592C94.654 44.784 94.971 44.577 94.902 44.358C93.319 39.29 91.208 34.522 90.084 29.272C90.047 29.1 89.795 29.174 89.824 29.343Z" fill="#19484E"/>
<path d="M89.468 67.165C92.973 65.207 97.102 63.516 99.812 60.445C100.026 60.202 99.76 59.86 99.471 60.004C95.846 61.813 92.606 64.504 89.143 66.608C88.788 66.824 89.105 67.368 89.468 67.165Z" fill="#19484E"/>
<path d="M81.188 55.055C82.783 59.078 84.631 64.413 88.187 67.119C88.39 67.273 88.624 66.984 88.516 66.79C87.421 64.838 85.886 63.129 84.742 61.182C83.554 59.16 82.403 57.088 81.434 54.951C81.371 54.813 81.131 54.913 81.188 55.055Z" fill="#19484E"/>
<path d="M86.91 80.631C90.415 78.674 94.545 76.982 97.254 73.911C97.468 73.668 97.202 73.325 96.913 73.47C93.288 75.279 90.048 77.971 86.584 80.075C86.23 80.29 86.547 80.835 86.91 80.631Z" fill="#19484E"/>
<path d="M78.63 68.521C80.225 72.544 82.074 77.879 85.63 80.585C85.833 80.739 86.067 80.45 85.959 80.256C84.864 78.304 83.329 76.596 82.185 74.648C80.997 72.626 79.845 70.553 78.876 68.417C78.813 68.279 78.574 68.379 78.63 68.521Z" fill="#19484E"/>
<path d="M85.45 45.429C86.647 49.625 88.499 53.587 90.609 57.398C90.916 57.954 91.763 57.458 91.459 56.901C89.413 53.153 87.461 49.314 86.163 45.232C86.018 44.781 85.318 44.969 85.45 45.429Z" fill="#19484E"/>
<path d="M91.597 57.428C93.301 55.87 95.264 54.565 97.13 53.209C98.814 51.985 100.831 50.919 102.242 49.379C102.574 49.018 102.159 48.504 101.731 48.716C99.703 49.72 97.847 51.401 96.035 52.757C94.296 54.059 92.771 55.535 91.266 57.097C91.055 57.315 91.374 57.632 91.597 57.428Z" fill="#19484E"/>
<path d="M39.364 104.845C45.171 105.911 47.037 97.095 45.267 91.415C43.828 86.795 43.151 85.048 45.22 80.778C46.577 77.979 47.417 75.752 46.585 72.367C45.272 67.027 40.229 64.248 36.135 61.162C31.144 57.4 32.762 55.971 32.786 50.309C32.822 42.09 26.959 40.059 21.315 35.834C20.532 35.248 9.30899 25.997 9.38099 25.934L9.41599 25.92C10.946 25.299 7.025 34.751 6.741 35.321C4.673 39.466 1.98599 42.961 0.873995 47.611C-0.907005 55.06 2.84599 55.503 6.33599 61.172C9.90299 66.968 6.44599 72.888 8.27799 78.77C10.449 85.744 16.665 84.7 21.755 88.328C27.363 92.329 30.056 99.166 35.798 103.202C37.119 104.129 38.307 104.651 39.364 104.845Z" fill="#6AA63E"/>
<path d="M15.955 42.869C19.462 60.341 28.866 75.373 36.062 91.448C43.733 108.585 51.529 126.147 55.659 144.533C55.934 145.755 57.818 145.237 57.535 144.015C53.611 127.093 46.367 111.152 39.412 95.308C31.767 77.889 20.954 61.379 16.576 42.699C16.481 42.291 15.874 42.465 15.955 42.869Z" fill="#19484E"/>
<path d="M20.551 53.756C21.37 48.979 22.692 44.026 22.211 39.144C22.182 38.85 21.725 38.735 21.659 39.069C20.715 43.833 20.604 48.775 19.93 53.585C19.873 53.987 20.48 54.17 20.551 53.756Z" fill="#19484E"/>
<path d="M6.50399 45.466C8.48499 47.27 10.459 49.051 12.615 50.646C14.625 52.132 17.082 54.063 19.565 54.597C19.84 54.657 19.97 54.316 19.75 54.158C17.851 52.794 15.624 51.83 13.673 50.5C11.281 48.87 8.91499 47.132 6.69399 45.276C6.56299 45.165 6.37399 45.348 6.50399 45.466Z" fill="#19484E"/>
<path d="M29.563 75.447C31.131 71.709 33.252 67.892 33.558 63.779C33.578 63.507 33.15 63.385 33.034 63.637C31.325 67.356 30.386 71.447 28.942 75.276C28.793 75.671 29.407 75.821 29.563 75.447Z" fill="#19484E"/>
<path d="M15.579 71.057C19.311 73.237 24.018 76.195 28.482 76.237C28.771 76.24 28.786 75.86 28.546 75.765C24.256 74.082 19.858 72.983 15.714 70.825C15.562 70.744 15.428 70.969 15.579 71.057Z" fill="#19484E"/>
<path d="M35.849 87.628C37.417 83.89 39.539 80.073 39.844 75.96C39.864 75.688 39.436 75.565 39.32 75.818C37.611 79.537 36.672 83.629 35.228 87.458C35.079 87.852 35.693 88.001 35.849 87.628Z" fill="#19484E"/>
<path d="M21.866 83.237C25.598 85.417 30.305 88.375 34.77 88.417C35.059 88.419 35.074 88.04 34.834 87.945C30.544 86.262 26.145 85.163 22.001 83.005C21.848 82.924 21.715 83.149 21.866 83.237Z" fill="#19484E"/>
<path d="M13.023 60.863C16.519 63.408 20.387 65.371 24.362 67.053C24.938 67.297 25.442 66.454 24.859 66.203C20.904 64.498 16.961 62.66 13.396 60.224C12.998 59.954 12.645 60.588 13.023 60.863Z" fill="#19484E"/>
<path d="M25.22 66.536C25.968 62.146 28.16 57.96 28.65 53.551C28.695 53.142 28.03 52.962 27.864 53.338C26.074 57.378 25.226 62.101 24.76 66.473C24.732 66.736 25.176 66.795 25.22 66.536Z" fill="#19484E"/>
<path d="M61.232 88.051C64.058 88.88 66.986 88.49 69.172 85.82C71.595 82.863 71.488 78.735 71.138 75.144C70.758 71.239 69.396 67.57 71.636 63.884C73.717 60.458 77.365 59.421 78.243 55.097C79.027 51.236 78.496 45.56 76.691 42.047C75.052 38.857 71.956 36.408 71.17 32.859C69.921 27.21 72.63 21.097 71.565 15.339C70.992 12.24 70.159 11.656 68.041 9.803C66.628 8.569 65.156 8.27 63.743 6.292C63.389 5.797 60.611 0.188995 60.787 0.188995H60.824C59.587 5.154 55.867 8.88 52.561 12.606C44.297 22.542 49.27 32.878 45.557 43.637C43.906 47.775 40.602 52.742 42.261 57.705C44.333 62.253 50.125 63.075 51.784 67.624C53.443 72.587 50.552 77.967 53.865 82.928C55.645 85.148 58.387 87.217 61.232 88.051Z" fill="#537852"/>
<path d="M60.529 18.306C57.041 36.893 60.588 55.527 60.987 74.219C61.364 91.917 62.076 109.801 59.174 127.341C58.971 128.57 60.855 129.092 61.05 127.859C63.685 111.23 63.1 94.317 62.628 77.549C62.077 57.991 58.135 37.97 61.151 18.477C61.213 18.074 60.606 17.893 60.529 18.306Z" fill="#19484E"/>
<path d="M60.714 30.137C63.258 26.033 66.404 21.931 67.728 17.219C67.818 16.901 67.387 16.744 67.214 17.002C64.514 21.028 62.583 25.613 60.157 29.811C59.949 30.173 60.496 30.489 60.714 30.137Z" fill="#19484E"/>
<path d="M50.794 17.227C52.01 19.758 53.222 22.262 54.717 24.644C55.993 26.678 57.486 29.2 59.489 30.596C59.688 30.735 59.944 30.464 59.818 30.267C58.475 28.183 56.722 26.364 55.35 24.274C53.82 21.944 52.338 19.551 51.026 17.091C50.943 16.937 50.719 17.072 50.794 17.227Z" fill="#19484E"/>
<path d="M60.872 53.69C63.676 50.867 67.271 48.076 68.965 44.38C69.097 44.092 68.771 43.818 68.524 44.039C65.513 46.728 63.156 50.266 60.417 53.234C60.135 53.539 60.578 53.986 60.872 53.69Z" fill="#19484E"/>
<path d="M49.578 44.323C50.954 46.111 52.329 47.864 53.9 49.489C55.44 51.082 57.489 53.25 59.628 53.992C59.866 54.074 60.019 53.756 59.862 53.591C58.251 51.893 56.119 50.626 54.416 48.974C52.82 47.427 51.229 45.855 49.79 44.161C49.691 44.044 49.484 44.202 49.578 44.323Z" fill="#19484E"/>
<path d="M62.124 67.34C64.93 64.517 68.524 61.726 70.218 58.03C70.35 57.742 70.024 57.468 69.777 57.689C66.766 60.378 64.409 63.916 61.669 66.884C61.388 67.188 61.83 67.636 62.124 67.34Z" fill="#19484E"/>
<path d="M50.831 57.973C52.207 59.761 53.583 61.514 55.154 63.139C56.694 64.732 58.742 66.9 60.882 67.642C61.12 67.725 61.273 67.406 61.116 67.241C59.506 65.543 57.373 64.276 55.67 62.624C54.074 61.077 52.482 59.505 51.043 57.81C50.944 57.693 50.737 57.852 50.831 57.973Z" fill="#19484E"/>
<path d="M51.02 33.892C53.317 37.594 56.193 40.904 59.273 43.974C59.723 44.423 60.415 43.73 59.969 43.278C56.972 40.237 54.023 37.088 51.657 33.519C51.396 33.125 50.767 33.484 51.02 33.892Z" fill="#19484E"/>
<path d="M60.237 43.743C61.514 41.667 63.13 39.766 64.635 37.852C65.844 36.314 67.359 34.827 68.249 33.076C68.466 32.648 67.945 32.234 67.586 32.565C66.14 33.9 65.03 35.669 63.826 37.228C62.286 39.222 61.013 41.285 59.832 43.507C59.69 43.773 60.079 44.002 60.237 43.743Z" fill="#19484E"/>
<path d="M86.847 118.511L89.376 109.406H55.847H50.788H30.047L32.577 118.511C32.577 118.511 9.09499 158.774 42.848 160.912L42.833 161.007H45.728H73.693H76.589L76.551 160.914C110.338 158.792 86.847 118.511 86.847 118.511Z" fill="#6D464B"/>
<mask id="mask0_1_605" style="mask-type:luminance" maskUnits="userSpaceOnUse" x="24" y="109" width="71" height="53">
<path d="M86.847 118.511L89.376 109.406H55.847H50.788H30.047L32.577 118.511C32.577 118.511 9.09499 158.774 42.848 160.912L42.833 161.007H45.728H73.693H76.589L76.551 160.914C110.338 158.792 86.847 118.511 86.847 118.511Z" fill="white"/>
</mask>
<g mask="url(#mask0_1_605)">
<path d="M40.456 102.998C37.736 106.697 35.978 110.381 36.15 115.026C36.294 118.916 38.183 122.714 39.219 126.415C40.992 132.747 38.436 137.554 36.87 143.539C35.441 149.003 37.044 155.426 37.124 160.999C37.145 162.419 39.353 162.42 39.327 160.999C39.216 154.939 37.818 148.568 39.301 142.615C40.28 138.686 42.308 135.073 41.74 130.913C41.182 126.829 39.586 123.205 38.307 119.323C36.374 113.457 37.888 108.462 41.428 103.566C41.854 102.975 40.88 102.421 40.456 102.998Z" fill="#F5CBCD"/>
<path d="M77.792 103.732C85.725 114.547 73.365 124.73 77.406 136.004C78.942 140.289 79.14 142.523 77.129 146.882C76.227 148.839 75.621 150.739 75.459 152.891C75.083 157.861 75.339 163.538 77.114 168.246C77.721 169.856 80.261 169.225 79.736 167.523C77.926 161.664 77.021 154.025 79.481 148.256C80.263 146.424 81.56 144.382 81.724 142.348C81.968 139.33 80.464 136.75 79.449 133.996C77.357 128.319 81.963 120.465 83.059 114.925C84.01 110.118 82.57 106.058 79.173 102.666C78.485 101.98 77.188 102.909 77.792 103.732Z" fill="#F5CBCD"/>
<path d="M66.209 104.07C69.146 111.279 67.498 117.821 65.376 124.951C64.663 127.346 64.004 129.816 63.746 132.308C63.425 135.403 64.583 137.659 65.712 140.488C66.923 143.522 65.123 146.556 63.983 149.307C62.922 151.866 62.545 154.03 62.344 156.798C62.128 159.775 61.357 165.791 64.112 167.89C64.673 168.317 65.477 167.734 65.47 167.111C65.414 162.104 63.784 157.251 65.285 152.179C66.781 147.124 69.436 143.87 67.237 138.625C65.636 134.806 65.512 132.283 66.369 128.189C67.038 124.994 68.082 121.884 68.795 118.697C69.985 113.378 69.175 108.682 66.959 103.754C66.769 103.332 66.033 103.64 66.209 104.07Z" fill="#F5CBCD"/>
<path d="M51.757 102.322C50.289 107.153 50.059 111.543 50.938 116.506C52.143 123.31 54.737 129.572 53.402 136.594C50.866 149.934 50.605 163.92 50.22 177.471C50.186 178.654 52.117 178.955 52.315 177.755C54.524 164.301 52.486 150.525 54.966 137.026C57.113 125.342 49.867 114.161 52.886 102.633C53.079 101.9 51.977 101.601 51.757 102.322Z" fill="#F5CBCD"/>
</g>
</svg>
