<svg width="143" height="205" viewBox="0 0 143 205" fill="none" xmlns="http://www.w3.org/2000/svg">
<path d="M107.42 38.333C106.906 38.134 106.361 38.006 105.786 37.96C103.439 37.771 102.04 38.94 101.314 40.952C101.092 41.568 100.904 48.07 101.796 47.767C98.839 48.77 94.769 48.623 95.24 52.706C96.332 62.184 111.53 57.2451 116.795 54.9761C116.424 55.1371 113.519 46.867 113.304 46.266C112.162 43.086 110.835 39.647 107.42 38.333Z" fill="#6BA58F"/>
<path d="M110.304 44.7091C109.994 44.5901 109.665 44.5121 109.32 44.4841C107.906 44.3701 107.062 45.074 106.625 46.287C106.489 46.659 106.377 50.5791 106.915 50.3961C105.133 51.0011 102.678 50.912 102.962 53.373C103.621 59.087 112.784 56.1101 115.958 54.7421C115.733 54.8391 113.983 49.8531 113.852 49.4911C113.163 47.5751 112.364 45.5021 110.304 44.7091Z" fill="#428671"/>
<path d="M120.246 47.044C119.866 47.556 114.682 54.625 114.374 54.362C118.752 58.064 131.859 67.207 135.658 58.455C137.295 54.685 133.358 53.643 130.821 51.823C131.588 52.372 133.297 46.096 133.262 45.442C133.153 43.307 132.155 41.781 129.854 41.28C129.29 41.157 128.732 41.121 128.182 41.163C124.531 41.428 122.264 44.332 120.246 47.044Z" fill="#6BA58F"/>
<path d="M118.784 49.971C118.556 50.28 115.431 54.541 115.245 54.384C117.884 56.615 125.787 62.127 128.077 56.851C129.063 54.579 126.69 53.95 125.16 52.853C125.622 53.185 126.653 49.401 126.633 49.005C126.567 47.717 125.964 46.798 124.577 46.497C124.237 46.423 123.901 46.401 123.57 46.426C121.369 46.585 120.001 48.336 118.784 49.971Z" fill="#428671"/>
<path d="M105.713 63.945C105.177 63.815 104.619 63.759 104.044 63.787C101.694 63.906 100.457 65.247 99.999 67.336C99.86 67.975 100.519 74.447 101.364 74.03C98.562 75.41 94.509 75.794 95.507 79.78C97.822 89.035 112.249 82.161 117.174 79.226C116.826 79.433 112.869 71.612 112.579 71.045C111.033 68.04 109.27 64.804 105.713 63.945Z" fill="#6BA58F"/>
<path d="M109.4 69.892C109.078 69.814 108.743 69.78 108.395 69.797C106.978 69.868 106.233 70.676 105.956 71.936C105.872 72.322 106.27 76.224 106.779 75.972C105.09 76.803 102.646 77.035 103.249 79.439C104.644 85.019 113.343 80.874 116.31 79.105C116.101 79.23 113.716 74.515 113.539 74.173C112.609 72.361 111.547 70.409 109.4 69.892Z" fill="#428671"/>
<path d="M119.563 70.914C119.253 71.471 115.033 79.154 114.693 78.934C119.515 82.034 133.701 89.394 136.329 80.223C137.464 76.272 133.423 75.751 130.671 74.277C131.502 74.722 132.381 68.277 132.263 67.632C131.875 65.529 130.686 64.146 128.34 63.948C127.767 63.899 127.207 63.937 126.667 64.049C123.081 64.788 121.21 67.962 119.563 70.914Z" fill="#6BA58F"/>
<path d="M118.495 74.005C118.306 74.341 115.764 78.972 115.56 78.84C118.466 80.709 127.019 85.146 128.603 79.616C129.287 77.235 126.852 76.92 125.193 76.032C125.692 76.301 126.223 72.415 126.151 72.026C125.919 70.758 125.201 69.925 123.788 69.806C123.44 69.777 123.104 69.799 122.779 69.867C120.615 70.313 119.488 72.227 118.495 74.005Z" fill="#428671"/>
<path d="M103.779 85.262C103.371 84.891 102.908 84.575 102.388 84.326C100.266 83.306 98.54 83.895 97.14 85.511C96.711 86.006 94.198 92.006 95.141 92.044C92.021 91.918 88.276 90.317 87.247 94.297C84.859 103.534 100.818 104.388 106.546 104.163C106.142 104.18 106.403 95.418 106.419 94.781C106.496 91.402 106.494 87.716 103.779 85.262Z" fill="#6BA58F"/>
<path d="M104.179 92.248C103.933 92.025 103.654 91.835 103.341 91.684C102.063 91.07 101.021 91.424 100.177 92.399C99.918 92.698 98.405 96.315 98.971 96.338C97.091 96.262 94.832 95.297 94.212 97.696C92.774 103.264 102.395 103.779 105.848 103.644C105.606 103.653 105.762 98.372 105.771 97.987C105.817 95.95 105.816 93.728 104.179 92.248Z" fill="#428671"/>
<path d="M112.616 98.001C112.078 98.342 104.7 103.075 104.507 102.719C107.263 107.747 116.208 120.991 122.899 114.189C125.782 111.26 122.481 108.873 120.768 106.263C121.286 107.051 125.137 101.808 125.341 101.185C126.006 99.153 125.621 97.37 123.655 96.076C123.174 95.759 122.666 95.524 122.137 95.365C118.636 94.301 115.475 96.195 112.616 98.001Z" fill="#6BA58F"/>
<path d="M110.202 100.207C109.876 100.413 105.429 103.266 105.312 103.052C106.973 106.083 112.367 114.067 116.399 109.966C118.137 108.2 116.148 106.76 115.116 105.188C115.427 105.663 117.749 102.502 117.871 102.126C118.273 100.902 118.042 99.827 116.855 99.047C116.566 98.855 116.259 98.714 115.941 98.618C113.829 97.976 111.924 99.118 110.202 100.207Z" fill="#428671"/>
<path d="M87.066 113.542C86.523 113.452 85.964 113.437 85.391 113.509C83.055 113.802 81.923 115.231 81.621 117.348C81.53 117.996 82.667 124.401 83.481 123.923C80.79 125.507 76.775 126.191 78.066 130.093C81.064 139.15 94.94 131.223 99.632 127.929C99.302 128.162 94.775 120.657 94.443 120.112C92.678 117.23 90.68 114.134 87.066 113.542Z" fill="#6BA58F"/>
<path d="M91.189 119.197C90.861 119.143 90.524 119.133 90.178 119.177C88.771 119.353 88.087 120.215 87.907 121.492C87.851 121.884 88.538 125.744 89.027 125.456C87.405 126.411 84.984 126.823 85.763 129.176C87.57 134.636 95.936 129.857 98.764 127.872C98.566 128.012 95.836 123.488 95.635 123.16C94.57 121.421 93.367 119.554 91.189 119.197Z" fill="#428671"/>
<path d="M101.396 119.461C101.128 120.039 97.493 128.014 97.136 127.82C102.176 130.553 116.87 136.838 118.808 127.497C119.644 123.474 115.578 123.254 112.722 121.989C113.584 122.37 113.982 115.877 113.817 115.243C113.275 113.175 111.986 111.885 109.631 111.862C109.055 111.856 108.501 111.934 107.971 112.087C104.451 113.09 102.82 116.396 101.396 119.461Z" fill="#6BA58F"/>
<path d="M100.563 122.623C100.402 122.972 98.209 127.781 97.995 127.664C101.032 129.311 109.893 133.1 111.06 127.469C111.565 125.044 109.113 124.911 107.393 124.148C107.913 124.379 108.151 120.464 108.049 120.082C107.725 118.835 106.947 118.057 105.528 118.044C105.18 118.041 104.846 118.087 104.527 118.179C102.402 118.783 101.421 120.776 100.563 122.623Z" fill="#428671"/>
<path d="M126.545 32.365C107.548 43.595 116.772 67.361 114.305 85.0961C112.819 95.7761 103.749 100.52 98.417 108.948C95.961 112.83 95.756 117.638 95.928 122.08C96.2 129.121 100.304 137.255 93.698 142.563C92.441 143.573 94.223 145.33 95.466 144.331C99.583 141.022 100.314 136.779 99.777 131.717C99.122 125.526 97.513 119.699 99.139 113.487C100.401 108.667 104.737 105.175 108.033 101.719C111.187 98.411 113.887 95.094 115.497 90.788C122.177 72.914 107.586 46.478 127.806 34.525C129.193 33.705 127.935 31.543 126.545 32.365Z" fill="#527851"/>
<path d="M141.574 31.168C141.863 30.698 142.089 30.186 142.238 29.629C142.847 27.355 141.952 25.767 140.105 24.69C139.539 24.36 133.179 22.997 133.314 23.93C132.863 20.84 133.745 16.864 129.644 16.588C120.124 15.945 122.23 31.787 123.508 37.376C123.417 36.981 132.076 35.622 132.705 35.52C136.042 34.971 139.664 34.289 141.574 31.168Z" fill="#6BA58F"/>
<path d="M134.783 32.849C134.956 32.565 135.091 32.257 135.181 31.921C135.549 30.551 135.009 29.594 133.895 28.944C133.555 28.744 129.719 27.923 129.802 28.485C129.531 26.623 130.062 24.226 127.588 24.059C121.851 23.672 123.118 33.2231 123.89 36.5921C123.835 36.3551 129.056 35.535 129.435 35.472C131.446 35.143 133.629 34.731 134.783 32.849Z" fill="#428671"/>
<path d="M61.511 28.052C60.961 28.014 60.402 28.053 59.84 28.179C57.543 28.695 56.553 30.226 56.456 32.362C56.426 33.016 58.174 39.282 58.937 38.728C56.411 40.563 52.479 41.629 54.14 45.389C57.992 54.118 71.044 44.895 75.399 41.167C75.092 41.431 69.866 34.395 69.483 33.885C67.449 31.185 65.163 28.294 61.511 28.052Z" fill="#428671"/>
<path d="M66.156 33.286C65.824 33.264 65.487 33.287 65.148 33.363C63.764 33.673 63.167 34.596 63.108 35.884C63.09 36.279 64.144 40.057 64.604 39.722C63.082 40.827 60.711 41.471 61.712 43.737C64.035 48.999 71.903 43.44 74.529 41.193C74.344 41.351 71.193 37.109 70.962 36.802C69.735 35.175 68.358 33.433 66.156 33.286Z" fill="#6BA58F"/>
<path d="M76.343 32.569C76.131 33.17 73.277 41.458 72.905 41.299C78.183 43.536 93.412 48.383 94.446 38.898C94.892 34.812 90.823 34.984 87.86 33.999C88.755 34.296 88.526 27.795 88.3 27.18C87.563 25.173 86.155 24.013 83.811 24.216C83.237 24.266 82.693 24.397 82.179 24.599C78.771 25.935 77.466 29.381 76.343 32.569Z" fill="#428671"/>
<path d="M75.815 35.797C75.687 36.16 73.966 41.155 73.742 41.061C76.924 42.409 86.105 45.331 86.728 39.613C86.997 37.15 84.543 37.253 82.758 36.659C83.296 36.84 83.159 32.92 83.024 32.549C82.579 31.339 81.731 30.64 80.316 30.762C79.97 30.792 79.643 30.871 79.333 30.993C77.278 31.798 76.492 33.876 75.815 35.797Z" fill="#6BA58F"/>
<path d="M67.473 53.019C66.922 53.053 66.374 53.165 65.833 53.363C63.623 54.173 62.84 55.82 63.023 57.951C63.079 58.603 65.626 64.589 66.311 63.94C64.045 66.089 60.286 67.657 62.421 71.169C67.376 79.321 79.118 68.48 82.952 64.216C82.681 64.517 76.583 58.22 76.137 57.765C73.769 55.353 71.125 52.784 67.473 53.019Z" fill="#428671"/>
<path d="M72.758 57.604C72.426 57.625 72.096 57.692 71.769 57.812C70.438 58.299 69.965 59.292 70.075 60.577C70.108 60.971 71.645 64.579 72.057 64.188C70.691 65.483 68.425 66.428 69.713 68.545C72.7 73.46 79.778 66.923 82.089 64.354C81.927 64.535 78.251 60.739 77.982 60.465C76.554 59.011 74.961 57.462 72.758 57.604Z" fill="#6BA58F"/>
<path d="M82.766 55.568C82.635 56.192 80.883 64.78 80.492 64.671C86.018 66.202 101.748 69.026 101.538 59.488C101.449 55.379 97.437 56.079 94.371 55.487C95.297 55.665 94.224 49.249 93.922 48.669C92.929 46.775 91.383 45.807 89.084 46.314C88.52 46.438 87.998 46.639 87.517 46.906C84.311 48.674 83.465 52.261 82.766 55.568Z" fill="#428671"/>
<path d="M82.663 58.837C82.584 59.213 81.526 64.391 81.292 64.325C84.623 65.248 94.106 66.95 93.98 61.2C93.926 58.723 91.507 59.144 89.66 58.788C90.218 58.896 89.571 55.028 89.388 54.678C88.789 53.535 87.858 52.952 86.472 53.258C86.132 53.333 85.819 53.454 85.528 53.615C83.593 54.682 83.084 56.844 82.663 58.837Z" fill="#6BA58F"/>
<path d="M71.946 73.951C71.445 73.717 70.91 73.552 70.341 73.469C68.012 73.125 66.537 74.198 65.679 76.157C65.416 76.757 64.795 83.232 65.706 82.989C62.689 83.794 58.638 83.375 58.836 87.481C59.294 97.011 74.788 93.096 80.193 91.182C79.812 91.317 77.463 82.873 77.29 82.259C76.36 79.009 75.266 75.489 71.946 73.951Z" fill="#428671"/>
<path d="M74.398 80.503C74.097 80.364 73.775 80.264 73.43 80.214C72.027 80.006 71.138 80.652 70.62 81.834C70.461 82.196 70.087 86.1 70.636 85.953C68.817 86.438 66.374 86.186 66.494 88.661C66.769 94.406 76.111 92.046 79.369 90.892C79.14 90.974 77.724 85.883 77.619 85.513C77.06 83.554 76.402 81.433 74.398 80.503Z" fill="#6BA58F"/>
<path d="M84.162 83.497C83.749 83.982 78.106 90.69 77.815 90.408C81.938 94.393 94.407 104.389 98.78 95.91C100.666 92.259 96.806 90.956 94.395 88.971C95.122 89.57 97.247 83.421 97.257 82.766C97.29 80.628 96.394 79.039 94.133 78.386C93.579 78.227 93.024 78.153 92.473 78.157C88.813 78.179 86.356 80.925 84.162 83.497Z" fill="#428671"/>
<path d="M82.511 86.319C82.261 86.612 78.859 90.655 78.684 90.486C81.169 92.887 88.687 98.914 91.323 93.801C92.461 91.6 90.133 90.815 88.68 89.618C89.118 89.98 90.399 86.274 90.405 85.878C90.426 84.589 89.885 83.632 88.521 83.238C88.188 83.141 87.854 83.098 87.521 83.1C85.313 83.114 83.832 84.769 82.511 86.319Z" fill="#6BA58F"/>
<path d="M64.368 105.913C63.822 105.988 63.283 106.14 62.758 106.377C60.614 107.35 59.956 109.051 60.296 111.162C60.4 111.807 63.387 117.588 64.021 116.89C61.921 119.201 58.289 121.044 60.679 124.388C66.227 132.15 77.129 120.465 80.636 115.928C80.388 116.249 73.84 110.423 73.362 110.001C70.82 107.772 67.993 105.408 64.368 105.913Z" fill="#428671"/>
<path d="M69.98 110.093C69.65 110.139 69.326 110.229 69.009 110.373C67.717 110.959 67.321 111.984 67.526 113.257C67.589 113.648 69.389 117.131 69.771 116.711C68.505 118.104 66.315 119.214 67.757 121.231C71.101 125.91 77.674 118.865 79.788 116.13C79.64 116.323 75.691 112.811 75.402 112.558C73.87 111.214 72.167 109.788 69.98 110.093Z" fill="#428671"/>
<path d="M79.809 107.318C79.724 107.949 78.616 116.645 78.219 116.565C83.843 117.681 99.739 119.328 98.82 109.832C98.426 105.742 94.477 106.737 91.377 106.375C92.313 106.484 90.768 100.165 90.422 99.609C89.291 97.794 87.677 96.944 85.423 97.62C84.87 97.785 84.364 98.024 83.903 98.327C80.837 100.328 80.259 103.969 79.809 107.318Z" fill="#428671"/>
<path d="M79.949 110.585C79.898 110.967 79.23 116.209 78.99 116.161C82.38 116.833 91.965 117.826 91.41 112.101C91.173 109.635 88.791 110.235 86.924 110.018C87.487 110.084 86.556 106.274 86.346 105.939C85.664 104.844 84.692 104.331 83.333 104.74C83 104.84 82.696 104.984 82.418 105.166C80.567 106.373 80.221 108.566 79.949 110.585Z" fill="#6BA58F"/>
<path d="M78.045 16.643C64.245 31.906 77.092 50.815 81.257 67.253C82.442 71.93 82.724 76.715 81.255 81.351C79.548 86.738 76.129 91.427 74.244 96.749C72.749 100.971 73.47 105.404 74.713 109.577C76.852 116.755 84.261 124.143 79.331 131.616C78.44 132.966 80.606 134.217 81.489 132.878C84.149 128.846 84.182 124.711 82.238 120.298C79.506 114.099 75.801 108.323 75.899 101.303C75.972 96.031 79.701 90.957 81.859 86.342C83.659 82.493 84.772 78.765 84.783 74.504C84.837 56.052 64.528 35.315 79.812 18.411C80.891 17.218 79.129 15.444 78.045 16.643Z" fill="#527851"/>
<path d="M92.006 11.083C92.143 10.549 92.205 9.992 92.184 9.416C92.092 7.063 90.765 5.812 88.682 5.331C88.044 5.184 81.565 5.768 81.972 6.619C80.625 3.802 80.288 -0.257989 76.29 0.694011C67.009 2.90301 73.715 17.409 76.593 22.367C76.389 22.017 84.257 18.152 84.827 17.868C87.849 16.355 91.105 14.63 92.006 11.083Z" fill="#428671"/>
<path d="M86.018 14.703C86.1 14.38 86.138 14.045 86.124 13.698C86.069 12.28 85.27 11.526 84.013 11.236C83.629 11.146 79.723 11.499 79.968 12.011C79.157 10.313 78.953 7.86503 76.543 8.44003C70.948 9.77203 74.99 18.517 76.725 21.506C76.603 21.296 81.346 18.965 81.689 18.793C83.512 17.882 85.475 16.842 86.018 14.703Z" fill="#6BA58F"/>
<path d="M33.132 47.06C33.055 47.693 32.043 56.399 31.646 56.324C37.281 57.378 53.195 58.845 52.171 49.361C51.731 45.274 47.793 46.315 44.688 45.987C45.626 46.086 44.008 39.785 43.656 39.233C42.506 37.431 40.883 36.599 38.635 37.3C38.085 37.471 37.582 37.717 37.124 38.024C34.082 40.06 33.546 43.706 33.132 47.06Z" fill="#6BA58F"/>
<path d="M33.31 50.326C33.263 50.708 32.652 55.957 32.413 55.912C35.81 56.546 45.404 57.4311 44.787 51.7131C44.522 49.2501 42.147 49.877 40.276 49.679C40.841 49.74 39.867 45.9411 39.654 45.6071C38.96 44.5201 37.982 44.019 36.628 44.442C36.296 44.545 35.993 44.6941 35.716 44.8781C33.881 46.1061 33.559 48.304 33.31 50.326Z" fill="#428671"/>
<path d="M17.496 45.36C16.951 45.441 16.414 45.599 15.891 45.843C13.759 46.839 13.12 48.547 13.483 50.654C13.595 51.299 16.645 57.045 17.272 56.341C15.197 58.675 11.586 60.559 14.014 63.875C19.648 71.574 30.419 59.768 33.874 55.193C33.63 55.516 27.017 49.763 26.533 49.348C23.967 47.147 21.115 44.814 17.496 45.36Z" fill="#6BA58F"/>
<path d="M23.155 49.477C22.826 49.526 22.503 49.621 22.187 49.769C20.901 50.369 20.516 51.398 20.735 52.669C20.802 53.059 22.642 56.523 23.018 56.098C21.768 57.504 19.591 58.64 21.055 60.64C24.451 65.281 30.945 58.164 33.028 55.406C32.882 55.6 28.895 52.133 28.603 51.882C27.057 50.554 25.337 49.147 23.155 49.477Z" fill="#428671"/>
<path d="M39.299 71.07C39.14 71.688 37.004 80.188 36.62 80.063C42.071 81.841 57.658 85.367 57.877 75.829C57.972 71.72 53.932 72.239 50.896 71.51C51.813 71.73 51.03 65.273 50.752 64.68C49.846 62.743 48.345 61.707 46.025 62.11C45.457 62.208 44.926 62.386 44.432 62.631C41.152 64.252 40.145 67.798 39.299 71.07Z" fill="#6BA58F"/>
<path d="M39.051 74.332C38.954 74.705 37.666 79.829 37.435 79.754C40.721 80.825 50.118 82.951 50.25 77.201C50.308 74.724 47.872 75.037 46.043 74.598C46.595 74.73 46.124 70.838 45.956 70.479C45.41 69.31 44.504 68.687 43.107 68.93C42.763 68.99 42.444 69.097 42.146 69.244C40.166 70.222 39.561 72.359 39.051 74.332Z" fill="#428671"/>
<path d="M24.017 67.35C23.466 67.359 22.913 67.446 22.364 67.62C20.119 68.331 19.263 69.941 19.35 72.077C19.377 72.731 21.654 78.825 22.367 78.208C20.007 80.252 16.181 81.65 18.157 85.255C22.741 93.621 34.956 83.316 38.977 79.23C38.693 79.519 32.885 72.955 32.459 72.479C30.202 69.964 27.677 67.279 24.017 67.35Z" fill="#6BA58F"/>
<path d="M29.092 72.168C28.759 72.174 28.427 72.226 28.095 72.331C26.743 72.759 26.226 73.729 26.279 75.018C26.295 75.413 27.668 79.086 28.097 78.714C26.674 79.946 24.368 80.789 25.559 82.962C28.323 88.006 35.687 81.793 38.111 79.331C37.941 79.504 34.439 75.547 34.182 75.261C32.821 73.744 31.299 72.125 29.092 72.168Z" fill="#428671"/>
<path d="M50.538 92.8641C50.694 93.4821 52.878 101.971 52.48 102.044C58.118 101.002 73.497 96.6521 69.131 88.1681C67.252 84.5131 63.951 86.8991 60.936 87.7101C61.846 87.4661 58.073 82.1671 57.546 81.7781C55.824 80.5101 54.011 80.3161 52.165 81.7791C51.713 82.1361 51.332 82.5471 51.016 82.9981C48.909 85.9901 49.718 89.5851 50.538 92.8641Z" fill="#6BA58F"/>
<path d="M51.877 95.8491C51.971 96.2221 53.287 101.34 53.048 101.384C56.447 100.755 65.718 98.1331 63.087 93.0191C61.954 90.8151 59.964 92.2531 58.146 92.7431C58.695 92.5961 56.421 89.401 56.102 89.167C55.064 88.402 53.97 88.285 52.858 89.167C52.585 89.384 52.356 89.6311 52.165 89.9021C50.894 91.7061 51.383 93.8731 51.877 95.8491Z" fill="#428671"/>
<path d="M35.335 96.8971C34.855 97.1691 34.411 97.5101 34.011 97.9251C32.379 99.6201 32.397 101.445 33.493 103.279C33.83 103.841 38.741 108.107 39.073 107.224C37.976 110.147 35.284 113.203 38.741 115.425C46.765 120.586 52.573 105.697 54.154 100.185C54.043 100.575 45.803 97.5841 45.203 97.3701C42.017 96.2401 38.517 95.0871 35.335 96.8971Z" fill="#6BA58F"/>
<path d="M42.096 98.7061C41.807 98.8701 41.538 99.0751 41.298 99.3251C40.314 100.347 40.324 101.447 40.986 102.553C41.188 102.893 44.15 105.464 44.348 104.932C43.687 106.695 42.064 108.536 44.149 109.876C48.986 112.988 52.488 104.011 53.441 100.69C53.374 100.924 48.407 99.1211 48.045 98.9921C46.124 98.3081 44.015 97.6141 42.096 98.7061Z" fill="#428671"/>
<path d="M67.801 114.934C67.597 115.538 64.836 123.856 64.461 123.703C69.764 125.881 85.047 130.556 85.975 121.06C86.374 116.97 82.307 117.188 79.334 116.235C80.231 116.523 79.931 110.024 79.698 109.413C78.938 107.415 77.518 106.269 75.175 106.498C74.602 106.554 74.06 106.692 73.549 106.899C70.156 108.274 68.889 111.734 67.801 114.934Z" fill="#6BA58F"/>
<path d="M67.311 118.169C67.187 118.533 65.521 123.547 65.296 123.455C68.493 124.768 77.706 127.586 78.266 121.863C78.507 119.396 76.056 119.528 74.263 118.954C74.803 119.127 74.624 115.21 74.482 114.841C74.024 113.635 73.168 112.945 71.756 113.084C71.409 113.118 71.083 113.201 70.775 113.326C68.729 114.153 67.965 116.239 67.311 118.169Z" fill="#428671"/>
<path d="M52.837 110.088C52.287 110.056 51.729 110.102 51.168 110.235C48.877 110.775 47.904 112.318 47.831 114.455C47.809 115.109 49.627 121.355 50.383 120.793C47.878 122.656 43.959 123.767 45.661 127.507C49.61 136.192 62.558 126.823 66.872 123.047C66.567 123.315 61.263 116.336 60.874 115.832C58.811 113.155 56.492 110.29 52.837 110.088Z" fill="#6BA58F"/>
<path d="M57.54 115.271C57.207 115.253 56.872 115.28 56.533 115.36C55.152 115.685 54.566 116.615 54.523 117.903C54.509 118.299 55.605 122.065 56.061 121.725C54.551 122.848 52.188 123.518 53.215 125.772C55.595 131.008 63.401 125.359 66.002 123.084C65.819 123.245 62.621 119.038 62.386 118.732C61.142 117.119 59.745 115.392 57.54 115.271Z" fill="#428671"/>
<path d="M16.445 38.815C37.703 45.606 31.637 74.053 40.264 90.059C45.065 98.966 56.359 100.921 61.589 109.209C67.254 118.186 60.999 133.443 72.176 138.806C73.622 139.5 74.891 137.345 73.438 136.648C66.546 133.341 67.737 125.533 67.069 119.118C66.556 114.187 65.107 109.351 61.961 105.472C59.248 102.125 55.01 100.008 51.496 97.653C46.404 94.239 42.833 90.589 40.595 84.838C34.094 68.133 38.253 43.16 17.11 36.405C15.569 35.912 14.915 38.326 16.445 38.815Z" fill="#527851"/>
<path d="M11.839 40.8511C12.475 40.8131 21.221 40.2301 21.219 40.6351C21.235 34.9031 19.797 18.986 10.654 21.71C6.71499 22.882 8.45097 26.567 8.69097 29.681C8.61797 28.741 2.71398 31.471 2.23498 31.918C0.670978 33.376 0.146974 35.123 1.24297 37.206C1.51097 37.716 1.84498 38.167 2.22898 38.561C4.78198 41.184 8.46498 41.0511 11.839 40.8511Z" fill="#6BA58F"/>
<path d="M15.02 40.085C15.403 40.063 20.676 39.712 20.676 39.955C20.685 36.499 19.818 26.904 14.305 28.546C11.93 29.253 12.977 31.474 13.122 33.351C13.078 32.785 9.51899 34.431 9.22999 34.7C8.28699 35.58 7.97099 36.632 8.63199 37.888C8.79399 38.196 8.99399 38.467 9.22599 38.705C10.766 40.286 12.986 40.206 15.02 40.085Z" fill="#428671"/>
<mask id="mask0_1_1018" style="mask-type:luminance" maskUnits="userSpaceOnUse" x="37" y="133" width="88" height="70">
<path d="M37.972 136.901C41.802 165.851 48.225 199.303 74.638 202.105C113.99 206.279 122.177 176.027 124.593 142.493C124.82 139.344 125.683 136.095 123.027 134.67C121.17 133.671 118.818 134.453 116.875 134.393C112.769 134.266 108.661 134.155 104.553 134.059C96.158 133.864 87.761 133.73 79.365 133.64C72.573 133.566 65.787 133.547 58.997 133.541C54.66 133.537 50.325 133.676 45.989 133.763C45.13 133.781 43.559 133.465 42.033 133.411C39.754 133.332 37.567 133.835 37.972 136.901Z" fill="white"/>
</mask>
<g mask="url(#mask0_1_1018)">
<path d="M37.972 136.901C41.802 165.851 48.225 199.303 74.638 202.105C113.99 206.279 122.177 176.027 124.593 142.493C124.82 139.344 125.683 136.095 123.027 134.67C121.17 133.671 118.818 134.453 116.875 134.393C112.769 134.266 108.661 134.155 104.553 134.059C96.158 133.864 87.761 133.73 79.365 133.64C72.573 133.566 65.787 133.547 58.997 133.541C54.66 133.537 50.325 133.676 45.989 133.763C45.13 133.781 43.559 133.465 42.033 133.411C39.754 133.332 37.567 133.835 37.972 136.901Z" fill="#FBCDCD"/>
</g>
<mask id="mask1_1_1018" style="mask-type:luminance" maskUnits="userSpaceOnUse" x="37" y="133" width="88" height="70">
<path d="M37.972 136.901C41.802 165.851 48.225 199.303 74.638 202.105C113.99 206.279 122.177 176.027 124.593 142.493C124.82 139.344 125.683 136.095 123.027 134.67C121.17 133.671 118.818 134.453 116.875 134.393C112.769 134.266 108.661 134.155 104.553 134.059C96.158 133.864 87.761 133.73 79.365 133.64C72.573 133.566 65.787 133.547 58.997 133.541C54.66 133.537 50.325 133.676 45.989 133.763C45.13 133.781 43.559 133.465 42.033 133.411C39.754 133.332 37.567 133.835 37.972 136.901Z" fill="white"/>
</mask>
<g mask="url(#mask1_1_1018)">
<path d="M31.627 158.611C33.55 154.455 36.447 148.764 41.906 149.747C45.255 150.35 48.195 152.844 51.11 154.455C58.125 158.329 62.205 153.705 64.709 147.145C64.152 147.293 63.595 147.44 63.038 147.586C65.594 150.268 70.461 156.402 74.98 154.658C78.984 153.113 79.828 148.053 84.447 146.738C90.995 144.874 93.848 152.524 99.208 154.176C104.522 155.813 106.961 149.326 108.485 145.455C107.877 145.535 107.267 145.615 106.658 145.694C108.919 149.17 112.516 151.739 114.404 155.418C114.721 156.037 115.835 156.106 116.131 155.418C120.245 145.852 126.157 151.693 133.377 151.73C134.667 151.738 134.666 149.738 133.377 149.73C129.564 149.71 126.126 147.534 122.254 147.553C118.19 147.572 115.837 151.078 114.404 154.408C114.979 154.408 115.555 154.408 116.131 154.408C114.224 150.69 110.658 148.18 108.385 144.684C107.883 143.912 106.873 144.122 106.558 144.923C105.488 147.638 103.453 153.894 99.367 152.074C97.508 151.248 95.962 149.554 94.429 148.252C91.725 145.955 88.548 143.926 84.842 144.633C81.323 145.303 79.026 147.244 76.894 150.019C75.956 151.241 75.01 152.921 73.291 152.978C70.088 153.085 66.391 148.205 64.454 146.172C63.894 145.584 63.038 145.943 62.783 146.613C61.248 150.635 58.998 155.295 54.001 153.605C50.97 152.58 48.37 150.336 45.512 148.926C37.855 145.145 32.96 150.995 29.904 157.601C29.362 158.764 31.086 159.78 31.627 158.611Z" fill="white"/>
<path d="M134.18 169.707C130.71 163.28 125.761 157.974 118.301 161.81C115.378 163.314 112.945 165.609 110.001 167.086C105.101 169.546 102.293 164.337 100.568 160.54C100.313 159.978 99.388 159.874 98.998 160.338C96.848 162.892 94.655 165.628 91.728 167.329C89.558 168.59 88.055 166.484 86.812 165.028C84.47 162.285 81.958 160.563 78.334 160.089C74.484 159.584 71.372 162.205 68.781 164.676C67.34 166.05 65.999 167.515 64.274 168.541C60.576 170.739 57.87 163.914 56.771 161.559C56.448 160.868 55.39 160.948 55.044 161.559C52.996 165.18 49.584 167.921 47.914 171.745C48.49 171.745 49.065 171.745 49.641 171.745C48.107 168.725 45.768 165.379 41.965 165.35C37.839 165.32 34.457 167.913 30.444 168.194C29.165 168.284 29.156 170.285 30.444 170.194C37.644 169.689 43.223 163.519 47.914 172.755C48.231 173.379 49.342 173.438 49.641 172.755C51.297 168.965 54.729 166.18 56.771 162.569C56.195 162.569 55.62 162.569 55.044 162.569C56.725 166.173 59.466 172.227 64.467 170.637C69.553 169.02 71.468 162.413 77.297 162.045C83.028 161.684 84.362 166.985 88.493 169.31C92.931 171.808 98.281 164.284 100.412 161.752C99.889 161.685 99.365 161.617 98.842 161.55C101.697 167.838 105.877 171.904 112.527 167.984C115.462 166.254 117.992 163.842 121.248 162.689C126.703 160.755 130.291 166.71 132.454 170.717C133.065 171.852 134.793 170.842 134.18 169.707Z" fill="white"/>
<path d="M31.627 190.314C33.55 186.159 36.447 180.467 41.906 181.45C45.255 182.054 48.195 184.548 51.11 186.158C58.125 190.033 62.205 185.41 64.709 178.849C64.152 178.996 63.595 179.143 63.038 179.29C65.594 181.973 70.461 188.105 74.98 186.361C78.984 184.815 79.828 179.756 84.447 178.441C90.995 176.577 93.848 184.227 99.208 185.879C104.522 187.515 106.961 181.028 108.485 177.157C107.877 177.237 107.267 177.316 106.658 177.396C108.919 180.872 112.516 183.441 114.404 187.121C114.721 187.74 115.835 187.809 116.131 187.121C120.245 177.554 126.157 183.395 133.377 183.433C134.667 183.44 134.666 181.44 133.377 181.433C129.564 181.412 126.126 179.237 122.254 179.255C118.19 179.274 115.837 182.779 114.404 186.11C114.979 186.11 115.555 186.11 116.131 186.11C114.224 182.392 110.658 179.882 108.385 176.385C107.883 175.613 106.873 175.824 106.558 176.624C105.488 179.34 103.453 185.595 99.367 183.776C97.508 182.948 95.962 181.256 94.429 179.953C91.725 177.656 88.548 175.628 84.842 176.334C81.323 177.005 79.026 178.945 76.894 181.721C75.956 182.943 75.01 184.623 73.291 184.681C70.088 184.788 66.391 179.908 64.454 177.874C63.894 177.286 63.038 177.645 62.783 178.315C61.248 182.336 58.998 186.997 54.001 185.306C50.97 184.28 48.37 182.037 45.512 180.626C37.855 176.845 32.96 182.694 29.904 189.301C29.362 190.466 31.086 191.482 31.627 190.314Z" fill="white"/>
<path d="M134.18 201.41C130.71 194.983 125.761 189.677 118.301 193.513C115.378 195.017 112.945 197.312 110.001 198.789C105.101 201.249 102.293 196.04 100.568 192.243C100.313 191.681 99.388 191.577 98.998 192.041C96.848 194.595 94.655 197.331 91.728 199.031C89.558 200.293 88.055 198.187 86.812 196.731C84.47 193.988 81.958 192.266 78.334 191.792C74.484 191.287 71.373 193.908 68.781 196.379C67.34 197.753 65.999 199.218 64.274 200.243C60.576 202.441 57.87 195.617 56.771 193.261C56.448 192.57 55.39 192.65 55.044 193.261C52.996 196.882 49.584 199.623 47.914 203.447C48.49 203.447 49.065 203.447 49.641 203.447C48.107 200.427 45.768 197.081 41.965 197.052C37.839 197.022 34.457 199.615 30.444 199.896C29.165 199.986 29.156 201.987 30.444 201.896C37.644 201.391 43.223 195.221 47.914 204.456C48.231 205.08 49.342 205.139 49.641 204.456C51.297 200.666 54.729 197.881 56.771 194.271C56.195 194.271 55.62 194.271 55.044 194.271C56.725 197.874 59.466 203.929 64.467 202.339C69.553 200.722 71.469 194.115 77.297 193.747C83.028 193.386 84.362 198.687 88.493 201.012C92.931 203.509 98.281 195.986 100.412 193.454C99.889 193.387 99.365 193.319 98.842 193.252C101.697 199.54 105.877 203.606 112.527 199.686C115.462 197.956 117.992 195.544 121.248 194.391C126.703 192.457 130.291 198.412 132.454 202.419C133.065 203.555 134.793 202.545 134.18 201.41Z" fill="white"/>
</g>
<path d="M130.725 134.81C130.95 135.585 130.961 136.464 130.719 137.461C129.602 142.061 120.738 140.565 115.26 140.824C106.146 141.257 97.314 140.212 88.222 140.212C79.316 140.212 70.408 140.212 61.501 140.212C57.937 140.212 54.365 140.173 50.802 140.212C46.627 140.259 41.633 141.591 37.71 140.807C30.375 139.341 29.248 133.049 35.46 130.504C42.575 127.59 57.835 129.182 66.098 129.182C81.347 129.182 96.599 129.143 111.848 129.182C119.686 129.203 129.328 129.982 130.725 134.81Z" fill="#D2A494"/>
<path d="M52.727 198.998C52.727 201.846 55.062 204.153 57.943 204.153H104.888C107.77 204.153 110.105 201.845 110.105 198.998H52.727Z" fill="#D2A494"/>
</svg>
