<svg width="95" height="198" viewBox="0 0 95 198" fill="none" xmlns="http://www.w3.org/2000/svg">
<path d="M75.959 7.48698C71.314 2.34898 64.911 10.803 62.604 14.201C57.314 21.993 57.207 32.427 58.456 41.376C58.6 42.41 59.199 42.969 59.932 43.152C58.908 45.908 63.003 48.173 64.468 45.379C67.985 38.673 72.442 32.589 75.308 25.528C77.089 21.143 79.68 11.603 75.959 7.48698Z" fill="#527950"/>
<path d="M45.507 1.77097C39.121 -2.60303 36.324 9.09899 35.452 13.717C33.454 24.308 37.386 36.251 42.027 46.062C42.564 47.196 43.347 47.643 44.112 47.616C44.208 51.09 48.962 52.361 49.27 48.703C50.009 39.921 51.879 31.547 51.864 22.57C51.855 16.994 50.622 5.27597 45.507 1.77097Z" fill="#527950"/>
<path d="M18.119 5.13292C10.845 2.48592 11.05 14.5159 11.355 19.2059C12.057 29.9609 18.838 40.5489 25.777 48.8959C26.579 49.8609 27.449 50.0979 28.183 49.8819C29.141 53.2219 34.061 53.2699 33.45 49.6499C31.978 40.9609 31.704 32.3849 29.455 23.6939C28.058 18.2959 23.945 7.25392 18.119 5.13292Z" fill="#527950"/>
<path d="M4.069 19.07C-1.33 18.754 1.215 26.767 2.359 29.845C4.981 36.905 11.641 42.635 17.956 46.833C18.686 47.318 19.316 47.303 19.764 47.012C21.074 49.056 24.377 48.103 23.243 45.802C20.519 40.28 18.619 34.594 15.373 29.226C13.357 25.892 8.395 19.324 4.069 19.07Z" fill="#527950"/>
<path d="M91.456 19.07C96.855 18.754 94.31 26.767 93.167 29.845C90.544 36.905 83.885 42.635 77.569 46.833C76.839 47.318 76.209 47.303 75.761 47.012C74.451 49.056 71.148 48.103 72.282 45.802C75.007 40.28 76.906 34.594 80.152 29.226C82.169 25.892 87.131 19.324 91.456 19.07Z" fill="#527950"/>
<path d="M53.39 12.339C46.849 10.059 45.289 20.549 44.894 24.638C43.992 34.013 48.906 43.219 54.295 50.47C54.918 51.308 55.711 51.511 56.442 51.32C56.865 54.23 61.546 54.251 61.49 51.097C61.358 43.526 62.349 36.049 61.475 28.479C60.933 23.778 58.629 14.165 53.39 12.339Z" fill="#6AA63E"/>
<path d="M32.849 13.867C26.308 11.587 24.747 22.077 24.354 26.166C23.452 35.541 28.365 44.747 33.754 51.998C34.377 52.836 35.171 53.039 35.901 52.848C36.325 55.758 41.005 55.779 40.949 52.625C40.817 45.054 41.808 37.577 40.934 30.007C40.392 25.306 38.088 15.693 32.849 13.867Z" fill="#6AA63E"/>
<path d="M13.628 21.688C8.897 21.13 9.409 28.406 9.753 31.21C10.543 37.639 15.211 43.089 19.909 47.157C20.452 47.627 21.014 47.645 21.477 47.409C22.194 49.3 25.34 48.617 24.833 46.508C23.618 41.444 23.171 36.276 21.458 31.323C20.395 28.246 17.418 22.134 13.628 21.688Z" fill="#6AA63E"/>
<path d="M89.696 17.351C86.535 11.188 78.167 17.703 75.061 20.39C67.939 26.554 65.143 36.607 64.04 45.574C63.912 46.611 64.346 47.3059 65.007 47.6709C63.306 50.0699 66.678 53.315 68.815 50.993C73.943 45.422 79.82 40.694 84.41 34.613C87.263 30.836 92.229 22.288 89.696 17.351Z" fill="#6AA63E"/>
<path d="M78.088 27.677C75.33 24.626 71.528 29.646 70.158 31.663C67.016 36.29 66.953 42.486 67.695 47.799C67.781 48.413 68.136 48.745 68.572 48.854C67.963 50.49 70.395 51.836 71.265 50.177C73.353 46.195 76 42.582 77.702 38.39C78.759 35.785 80.297 30.121 78.088 27.677Z" fill="#527950"/>
<path d="M30.405 31.072C33.163 28.021 36.965 33.041 38.335 35.058C41.477 39.685 41.54 45.881 40.798 51.194C40.712 51.807 40.357 52.14 39.921 52.249C40.53 53.885 38.098 55.23 37.228 53.571C35.14 49.59 32.493 45.976 30.792 41.784C29.735 39.181 28.196 33.516 30.405 31.072Z" fill="#527950"/>
<path d="M15.494 32.274C17.073 30.527 19.249 33.401 20.033 34.556C21.832 37.205 21.868 40.751 21.443 43.793C21.394 44.145 21.191 44.335 20.941 44.397C21.29 45.333 19.898 46.103 19.4 45.154C18.204 42.875 16.69 40.806 15.715 38.407C15.11 36.915 14.229 33.673 15.494 32.274Z" fill="#527950"/>
<path d="M47.381 26.9979C50.139 23.9469 53.941 28.9669 55.311 30.9839C58.453 35.6109 58.516 41.8069 57.774 47.1199C57.688 47.7339 57.333 48.0659 56.898 48.1749C57.506 49.8109 55.075 51.1559 54.205 49.4969C52.117 45.5149 49.47 41.9019 47.769 37.7099C46.71 35.1059 45.172 29.4409 47.381 26.9979Z" fill="#527950"/>
<mask id="mask0_1_1149" style="mask-type:luminance" maskUnits="userSpaceOnUse" x="8" y="40" width="80" height="64">
<path d="M86.928 71.9059C86.579 62.2779 84.922 52.7149 84.83 43.0799C84.816 41.6919 83.682 40.5339 82.284 40.5339C59.251 40.5339 36.219 40.5339 13.186 40.5339C11.788 40.5339 10.653 41.6919 10.64 43.0799C10.553 52.2659 9.09899 61.4129 8.60299 70.5809C8.16799 78.6179 7.69699 88.7299 12.514 95.6849C17.107 102.317 26.681 103.059 33.986 103.131C38.634 103.177 43.286 102.647 47.936 102.182C52.031 102.582 56.124 103.032 60.193 103.121C67.786 103.29 78.167 102.601 82.957 95.6839C87.565 89.0299 87.206 79.6139 86.928 71.9059Z" fill="white"/>
</mask>
<g mask="url(#mask0_1_1149)">
<path d="M86.928 71.9059C86.579 62.2779 84.922 52.7149 84.83 43.0799C84.816 41.6919 83.682 40.5339 82.284 40.5339C59.251 40.5339 36.219 40.5339 13.186 40.5339C11.788 40.5339 10.653 41.6919 10.64 43.0799C10.553 52.2659 9.09899 61.4129 8.60299 70.5809C8.16799 78.6179 7.69699 88.7299 12.514 95.6849C17.107 102.317 26.681 103.059 33.986 103.131C38.634 103.177 43.286 102.647 47.936 102.182C52.031 102.582 56.124 103.032 60.193 103.121C67.786 103.29 78.167 102.601 82.957 95.6839C87.565 89.0299 87.206 79.6139 86.928 71.9059Z" fill="#B17B6B"/>
</g>
<mask id="mask1_1_1149" style="mask-type:luminance" maskUnits="userSpaceOnUse" x="8" y="40" width="80" height="64">
<path d="M86.928 71.9059C86.579 62.2779 84.922 52.7149 84.83 43.0799C84.816 41.6919 83.682 40.5339 82.284 40.5339C59.251 40.5339 36.219 40.5339 13.186 40.5339C11.788 40.5339 10.653 41.6919 10.64 43.0799C10.553 52.2659 9.09899 61.4129 8.60299 70.5809C8.16799 78.6179 7.69699 88.7299 12.514 95.6849C17.107 102.317 26.681 103.059 33.986 103.131C38.634 103.177 43.286 102.647 47.936 102.182C52.031 102.582 56.124 103.032 60.193 103.121C67.786 103.29 78.167 102.601 82.957 95.6839C87.565 89.0299 87.206 79.6139 86.928 71.9059Z" fill="white"/>
</mask>
<g mask="url(#mask1_1_1149)">
<path d="M-1.62901 77.7099C-1.23101 71.5649 5.377 68.0989 10.944 68.2369C16.586 68.3769 17.318 74.6769 18.429 78.8719C20.535 86.8259 27.508 91.2239 35.515 88.2419C39.046 86.9269 42.062 84.5289 45.385 82.7999C50.528 80.1229 56.188 83.0709 56.435 88.9919C56.777 97.1889 51.793 105.392 59.796 111.444C62.37 113.39 64.857 109.045 62.319 107.127C57.875 103.767 60.727 96.6859 61.223 92.1419C61.726 87.5419 61.134 83.3769 57.732 80.0169C49.491 71.8779 41.199 80.8079 33.308 83.7469C26.886 86.1389 24.04 80.7289 22.726 75.5179C21.568 70.9229 20.084 66.4409 15.466 64.3479C6.124 60.1139 -5.97901 67.6959 -6.62901 77.7109C-6.83801 80.9309 -1.83601 80.9109 -1.62901 77.7099Z" fill="#FBCECC"/>
</g>
<mask id="mask2_1_1149" style="mask-type:luminance" maskUnits="userSpaceOnUse" x="8" y="40" width="80" height="64">
<path d="M86.928 71.9059C86.579 62.2779 84.922 52.7149 84.83 43.0799C84.816 41.6919 83.682 40.5339 82.284 40.5339C59.251 40.5339 36.219 40.5339 13.186 40.5339C11.788 40.5339 10.653 41.6919 10.64 43.0799C10.553 52.2659 9.09899 61.4129 8.60299 70.5809C8.16799 78.6179 7.69699 88.7299 12.514 95.6849C17.107 102.317 26.681 103.059 33.986 103.131C38.634 103.177 43.286 102.647 47.936 102.182C52.031 102.582 56.124 103.032 60.193 103.121C67.786 103.29 78.167 102.601 82.957 95.6839C87.565 89.0299 87.206 79.6139 86.928 71.9059Z" fill="white"/>
</mask>
<g mask="url(#mask2_1_1149)">
<path d="M35.863 31.1259C28.977 38.6229 28.248 50.6589 37.033 57.3769C44.763 63.2879 52.179 54.7899 57.732 49.9399C56.31 49.3509 54.887 48.7619 53.464 48.1719C53.61 52.7779 54.816 57.9119 58.271 61.1809C61.416 64.1589 66.182 62.6039 68.534 59.4819C74.572 51.4669 70.938 39.9459 70.686 30.8569C70.597 27.6389 65.597 27.6309 65.686 30.8569C65.841 36.4719 66.944 41.9729 66.816 47.6239C66.743 50.8429 66.336 54.6329 64.019 57.0719C60.423 60.8569 58.523 50.0319 58.464 48.1719C58.392 45.9089 55.834 44.9739 54.196 46.4039C51.055 49.1469 47.324 53.9189 42.944 54.4849C39.174 54.9719 36.714 49.2349 35.797 46.4929C34.316 42.0609 36.46 37.8589 39.398 34.6599C41.575 32.2919 38.048 28.7469 35.863 31.1259Z" fill="#FBCECC"/>
</g>
<mask id="mask3_1_1149" style="mask-type:luminance" maskUnits="userSpaceOnUse" x="8" y="40" width="80" height="64">
<path d="M86.928 71.9059C86.579 62.2779 84.922 52.7149 84.83 43.0799C84.816 41.6919 83.682 40.5339 82.284 40.5339C59.251 40.5339 36.219 40.5339 13.186 40.5339C11.788 40.5339 10.653 41.6919 10.64 43.0799C10.553 52.2659 9.09899 61.4129 8.60299 70.5809C8.16799 78.6179 7.69699 88.7299 12.514 95.6849C17.107 102.317 26.681 103.059 33.986 103.131C38.634 103.177 43.286 102.647 47.936 102.182C52.031 102.582 56.124 103.032 60.193 103.121C67.786 103.29 78.167 102.601 82.957 95.6839C87.565 89.0299 87.206 79.6139 86.928 71.9059Z" fill="white"/>
</mask>
<g mask="url(#mask3_1_1149)">
<path d="M91.26 65.114C81.325 63.019 72.304 68.0489 71.798 78.7289C71.308 89.0819 83.607 88.987 88.827 94.756C90.995 97.152 94.519 93.605 92.362 91.221C88.718 87.193 83.005 86.5259 78.887 83.1849C75.592 80.5119 76.556 75.402 78.975 72.489C81.594 69.336 86.258 69.1609 89.929 69.9349C93.076 70.5979 94.414 65.779 91.26 65.114Z" fill="#FBCECC"/>
</g>
<path d="M5.439 89.146C33.619 89.146 61.798 89.146 89.978 89.146C91.59 89.146 91.59 86.646 89.978 86.646C61.798 86.646 33.619 86.646 5.439 86.646C3.827 86.646 3.827 89.146 5.439 89.146Z" fill="#333D3E"/>
<path d="M11.527 197.11C35.648 197.11 59.769 197.11 83.89 197.11C85.502 197.11 85.502 194.61 83.89 194.61C59.769 194.61 35.648 194.61 11.527 194.61C9.91499 194.61 9.91499 197.11 11.527 197.11Z" fill="#333D3E"/>
<path d="M7.826 88.914C6.129 124.791 11.468 160.378 16.007 195.86C16.209 197.436 18.711 197.456 18.507 195.86C13.968 160.377 8.629 124.791 10.326 88.914C10.402 87.302 7.901 87.309 7.826 88.914Z" fill="#333D3E"/>
<path d="M86.097 88.914C87.794 124.791 82.455 160.378 77.916 195.86C77.712 197.456 80.214 197.436 80.416 195.86C84.955 160.377 90.294 124.791 88.597 88.914C88.521 87.309 86.021 87.302 86.097 88.914Z" fill="#333D3E"/>
<path d="M48.098 89.423C48.076 124.957 47.694 160.338 49.007 195.86C49.067 197.467 51.567 197.473 51.507 195.86C50.194 160.337 50.575 124.957 50.598 89.423C50.599 87.811 48.099 87.811 48.098 89.423Z" fill="#333D3E"/>
</svg>
