<svg width="207" height="247" viewBox="0 0 207 247" fill="none" xmlns="http://www.w3.org/2000/svg">
<path d="M168.492 239.476C168.492 243.402 145.615 246.585 117.395 246.585C89.175 246.585 66.298 243.402 66.298 239.476C66.298 235.55 89.175 232.367 117.395 232.367C145.615 232.367 168.492 235.549 168.492 239.476Z" fill="#D1D3D4"/>
<path d="M143.49 241.801H93.0969C83.8759 241.801 76.1389 234.849 75.1549 225.681L66.7739 147.563H169.508L162.035 224.959C161.113 234.512 153.086 241.801 143.49 241.801Z" fill="#D49A7D"/>
<path d="M165.878 85.046C165.555 77.316 171.345 71.082 166.027 63.438C163.561 59.896 158.277 58.099 154.737 60.567C152.556 62.088 151.519 64.752 149.781 66.765C148.043 68.777 144.635 70.005 142.86 68.025C145.389 61.226 151.51 55.882 158.589 54.295C159.682 54.05 160.884 53.839 161.621 52.997C162.436 52.065 162.402 50.688 162.322 49.453C162.035 44.989 161.716 40.4 159.79 36.363C157.864 32.326 153.923 28.919 149.451 28.995C146.744 29.041 144.23 30.317 141.826 31.563C136.706 34.217 130.68 39.198 133.046 44.457C134.015 46.611 136.187 47.942 137.639 49.805C141.414 54.649 138.558 63.001 132.607 64.519C130.512 57.287 128.98 49.893 128.028 42.425C127.883 41.289 114.803 49.633 113.769 51.801C115.472 52.558 117.953 53.955 118.715 55.819C119.58 57.934 118.189 60.904 115.904 60.898C113.119 60.89 112.082 57.284 111.874 54.507C109.517 57.79 105.552 58.785 105.386 63.491C105.208 68.549 110.519 71.729 114.756 74.498C118.994 77.267 123.114 82.868 120.036 86.887C113.547 80.72 107.259 74.341 101.187 67.764C90.828 73.935 85.806 85.207 87.662 96.913C88.649 103.14 90.046 106.375 94.93 110.422C97.293 112.38 106.338 113.923 108.923 115.446C108.143 118.481 107.472 121.545 106.903 124.631C105.703 131.142 104.908 137.725 104.392 144.324C103.878 150.91 103.64 157.516 103.56 164.121C103.52 167.455 103.52 170.789 103.546 174.122C103.572 177.408 103.552 180.71 103.752 183.992C103.802 184.812 103.895 185.627 103.946 186.447C104.023 187.673 105.841 187.694 105.868 186.447C105.903 184.806 105.974 183.174 105.968 181.531C105.961 179.886 105.933 178.241 105.914 176.595C105.877 173.321 105.861 170.047 105.881 166.772C105.921 160.191 106.103 153.609 106.542 147.042C106.975 140.579 107.654 134.128 108.712 127.736C109.273 124.344 109.94 120.965 110.72 117.612C115.29 123.302 122.977 125.902 130.269 127.297C134.833 128.17 139.643 128.715 144.054 127.252C144.509 127.101 144.956 126.928 145.394 126.734C150.042 124.673 153.617 120.27 154.588 115.267C147.038 113.943 139.487 112.619 131.937 111.294C129.949 110.945 127.595 110.287 127.018 108.354C126.078 105.201 130.62 103.443 133.908 103.555C141.779 103.823 149.587 105.803 156.634 109.318C160.548 103.732 163.047 97.374 163.985 90.622C157.52 89.452 150.801 89.707 144.443 91.364C142.421 91.891 140.369 92.564 138.291 92.343C136.214 92.122 134.08 90.689 133.861 88.612C144.003 84.739 155.135 83.5 165.878 85.046Z" fill="#34522D"/>
<path d="M192.484 113.966C195.267 107.165 202.788 104.041 201.179 95.365C200.432 91.344 196.535 87.73 192.469 88.48C189.964 88.942 188.003 90.838 185.69 91.898C183.376 92.958 179.917 92.687 179.153 90.285C184.055 85.4 191.512 83.175 198.316 84.567C199.366 84.782 200.498 85.069 201.475 84.629C202.555 84.143 203.071 82.94 203.492 81.842C205.011 77.875 206.552 73.788 206.472 69.551C206.392 65.313 204.305 60.833 200.374 59.154C197.994 58.138 195.296 58.258 192.705 58.396C187.187 58.69 179.956 60.639 179.935 66.104C179.926 68.342 181.293 70.339 181.821 72.514C183.194 78.17 177.392 84.268 171.599 83.256C172.638 76.194 174.233 69.211 176.363 62.39C168.175 61.637 159.756 63.511 152.674 67.663C150.917 68.693 149.172 69.936 148.263 71.744C146.101 76.042 149.474 80.862 152.073 84.907C154.672 88.951 156.046 95.397 151.768 97.665C148.546 89.792 146.028 81.184 142.487 73.683C137.062 75.986 132.374 80.667 127.596 84.225C129.646 90.36 132.315 96.291 135.551 101.902C132.345 102.412 129.871 99.198 128.587 96.252C127.303 93.307 126.016 89.831 122.947 88.792C117.927 87.092 118.903 105.569 119.991 107.67C121.698 110.965 127.971 113.51 130.267 116.757C126.688 119.881 123.316 123.25 120.215 126.846C116.314 131.37 112.82 136.233 109.767 141.367C108.253 143.913 106.847 146.524 105.558 149.191C104.25 151.896 103.021 154.66 102.092 157.52C101.865 158.217 101.641 158.911 101.447 159.619C101.191 160.552 102.657 161.218 103.069 160.286C104.252 157.608 105.363 154.899 106.579 152.235C107.809 149.54 109.156 146.898 110.614 144.319C113.496 139.222 116.814 134.368 120.496 129.815C123.737 125.807 127.255 122.003 131.052 118.512C131.062 118.566 131.077 118.62 131.084 118.675C132.145 126.284 138.333 132.131 144.675 136.555C148.31 139.09 152.29 141.438 156.717 141.895C157.174 141.942 157.633 141.967 158.091 141.97C162.963 142.004 167.826 139.597 170.656 135.656C164.595 131.566 158.534 127.476 152.473 123.386C150.877 122.309 149.084 120.822 149.348 118.927C149.778 115.838 154.437 116.092 157.26 117.471C164.02 120.774 170.046 125.531 174.799 131.316C180.427 128.02 185.128 123.505 188.622 118.04C183.447 114.507 177.484 112.105 171.282 111.054C169.31 110.72 167.252 110.5 165.528 109.498C163.804 108.496 162.511 106.427 163.143 104.547C173.523 105.164 183.725 108.439 192.484 113.966Z" fill="#548549"/>
<path d="M166.229 70.944C165.151 71.091 164.056 71.538 163.055 71.948C162.04 72.363 161.05 72.836 160.097 73.379C158.216 74.451 156.324 75.783 154.911 77.441C154.463 77.967 155.14 78.642 155.667 78.197C157.284 76.829 158.877 75.508 160.73 74.461C161.629 73.953 162.561 73.497 163.521 73.115C164.513 72.72 165.554 72.474 166.548 72.097C167.279 71.819 166.984 70.841 166.229 70.944Z" fill="#51A3B8"/>
<path d="M164.804 76.4821C161.863 76.8661 159.104 78.5181 157.152 80.7151C156.666 81.2621 157.428 82.0401 157.96 81.5231C158.927 80.5821 160.032 79.7781 161.209 79.1211C162.393 78.4601 163.666 78.0291 164.96 77.6401C165.567 77.4581 165.488 76.3921 164.804 76.4821Z" fill="#51A3B8"/>
<path d="M189.927 101.332C189.715 101.168 189.362 101.16 189.173 101.377C188.806 101.799 188.45 102.227 188.098 102.661C187.903 102.903 187.708 103.144 187.524 103.394C187.36 103.619 187.167 103.84 187.03 104.082C186.891 104.329 186.952 104.64 187.176 104.812C187.404 104.988 187.708 104.96 187.919 104.768C188.119 104.586 188.286 104.355 188.463 104.151C188.649 103.936 188.823 103.713 188.999 103.489C189.365 103.022 189.724 102.551 190.074 102.072C190.243 101.841 190.133 101.491 189.927 101.332Z" fill="#51A3B8"/>
<path d="M193.275 101.182C193.269 101.138 193.264 101.094 193.257 101.05C193.243 100.966 193.242 100.948 193.252 100.995C193.253 101.064 193.251 100.92 193.25 100.906C193.246 100.851 193.24 100.795 193.234 100.74C193.202 100.449 192.999 100.165 192.673 100.179C192.384 100.192 192.093 100.426 192.112 100.74C192.117 100.823 192.115 100.906 192.121 100.989C192.123 101.011 192.124 101.017 192.126 101.016C192.118 101.09 192.103 101.164 192.094 101.237C192.09 101.274 192.087 101.311 192.084 101.347C192.083 101.355 192.083 101.361 192.082 101.367C192.07 101.444 192.057 101.52 192.041 101.596C192.007 101.759 191.961 101.918 191.909 102.076C191.883 102.155 191.857 102.234 191.827 102.312C191.819 102.334 191.81 102.355 191.802 102.377C191.799 102.385 191.787 102.413 191.775 102.44C191.643 102.738 191.489 103.016 191.303 103.284C191.296 103.295 191.289 103.304 191.285 103.31C191.262 103.34 191.238 103.369 191.213 103.398C191.165 103.454 191.116 103.509 191.066 103.563C190.947 103.692 190.826 103.817 190.695 103.934C190.477 104.128 190.481 104.484 190.649 104.702C190.815 104.916 191.163 105.02 191.403 104.852C192.044 104.405 192.584 103.786 192.898 103.065C193.055 102.704 193.166 102.341 193.221 101.951C193.252 101.733 193.279 101.513 193.277 101.293C193.28 101.255 193.278 101.219 193.275 101.182Z" fill="#51A3B8"/>
<path d="M152.596 108.461C151.405 109.108 150.3 109.926 149.174 110.68C148.042 111.438 146.921 112.21 145.815 113.006C145.233 113.425 145.753 114.379 146.389 113.988C147.566 113.265 148.726 112.515 149.877 111.751C151.032 110.984 152.229 110.258 153.31 109.388C153.849 108.955 153.163 108.154 152.596 108.461Z" fill="#51A3B8"/>
<path d="M130.492 135.947C130.386 135.306 130.29 134.679 130.159 134.042C130.018 133.353 129.776 132.702 129.537 132.042C129.096 130.826 128.558 129.641 127.992 128.479C126.842 126.119 125.492 123.866 123.986 121.716C121.009 117.464 117.336 113.699 113.166 110.608C110.898 108.927 108.41 107.459 106.347 105.543C105.673 104.917 105.078 104.24 104.529 103.531C110.876 103.184 117.153 103.808 123.048 99.997C127.034 97.42 129.717 93.318 130.975 88.777C132.864 81.961 131.54 74.156 126.583 69.038C121.567 73.873 115.145 77.233 108.312 78.597C106.94 78.871 105.241 78.943 104.437 77.798C103.917 77.057 103.986 76.055 104.203 75.175C106.132 67.367 116.116 65.355 124.144 64.873C122.533 57.352 120.922 49.832 119.312 42.311C112.914 49.606 105.871 57.298 96.408 59.442C97.565 50.115 103.681 41.549 112.127 37.425C108.243 30.366 102.086 24.58 94.799 21.141C95.382 26.873 93.228 32.823 89.112 36.854C86.92 31.782 86.714 25.882 88.548 20.67C89.225 18.746 90.182 16.721 89.631 14.757C89.12 12.938 87.457 11.722 85.9 10.65L71.46 0.710999C62.698 10.165 57.469 22.82 57.003 35.701C64.972 33.953 73.796 39.79 75.305 47.807C68.945 44.933 62.631 41.96 56.363 38.89C55.195 46.689 54.064 54.494 52.967 62.303C61.153 61.555 69.529 63.002 76.99 66.451C75.27 70.092 70.215 70.519 66.3 69.575C62.385 68.631 58.361 66.848 54.492 67.966C54.17 73.105 53.848 78.245 53.527 83.384C53.413 85.201 53.332 87.154 54.296 88.699C56.391 92.055 61.398 91.169 65.23 90.184C69.062 89.2 74.478 89.447 75.343 93.307C69.253 93.786 63.163 94.265 57.072 94.743C57.629 94.699 70.192 109.548 74.532 110.69C84.022 113.186 89.302 106.58 98.281 104.372C99.449 104.085 100.617 103.892 101.785 103.757C102.114 104.246 102.456 104.725 102.822 105.186C104.644 107.473 107.063 109.183 109.444 110.837C110.589 111.632 111.731 112.429 112.829 113.288C113.866 114.101 114.712 114.823 115.652 115.7C117.53 117.451 119.264 119.355 120.836 121.385C122.409 123.416 123.738 125.461 124.974 127.753C125.589 128.892 126.158 130.057 126.678 131.243C127.187 132.404 127.605 133.611 128.17 134.745C128.456 135.32 128.742 135.886 129.003 136.473C129.384 137.328 130.635 136.809 130.492 135.947Z" fill="#446B3B"/>
<path d="M110.146 103.584C109.564 100.097 108.582 96.683 107.132 93.456C105.851 90.606 104.128 87.9 101.854 85.738C100.082 84.055 98.012 82.74 95.707 82.004C95.501 78.505 96.908 70.564 95.974 67.876C93.891 61.886 91.349 59.446 85.859 56.343C75.54 50.511 63.225 51.275 53.821 58.822C57.86 66.811 61.638 74.932 65.146 83.168C60.305 84.646 56.497 78.827 55.385 73.889C54.273 68.951 53.15 62.863 48.35 61.261C43.883 59.771 41.564 63.137 37.664 64.197C40.193 65.363 43.208 67.596 42.242 70.207C41.449 72.35 38.18 72.615 36.501 71.065C35.021 69.699 34.58 66.887 34.466 65.026C32.074 65.236 19.682 74.573 20.696 75.106C27.36 78.609 33.752 82.63 39.795 87.121C36.292 92.166 27.469 91.921 24.251 86.691C23.013 84.679 22.526 82.179 20.847 80.518C16.747 76.462 9.97395 80.366 5.69595 84.235C3.68795 86.051 1.61395 87.961 0.623954 90.48C-1.01205 94.643 0.802952 99.526 3.91095 102.743C7.01995 105.959 11.208 107.863 15.289 109.692C16.418 110.198 17.697 110.712 18.855 110.274C19.902 109.878 20.52 108.826 21.132 107.888C25.094 101.811 32.241 97.945 39.495 97.953C40.729 100.308 38.388 103.072 35.894 103.997C33.401 104.921 30.542 104.961 28.355 106.473C24.805 108.927 24.641 114.506 27.097 118.055C32.399 125.71 40.264 122.466 47.393 125.472C49.702 114.866 54.755 104.87 61.926 96.722C63.796 97.654 64.392 100.154 63.873 102.177C63.354 104.201 62.005 105.888 60.805 107.598C57.029 112.975 54.441 119.181 53.277 125.647C59.931 127.13 66.762 127.011 73.363 125.298C72.534 117.466 73.409 109.459 75.91 101.991C76.955 98.872 80.191 95.231 82.815 97.214C84.425 98.431 84.218 100.866 83.85 102.851C82.45 110.388 81.051 117.924 79.651 125.461C84.677 126.301 90.052 124.491 93.609 120.857C93.944 120.515 94.262 120.157 94.563 119.783C97.476 116.163 98.648 111.465 99.425 106.884C100.754 99.059 100.95 90.329 96.355 83.91C97.611 84.483 98.782 85.252 99.821 86.167C104.566 90.344 106.841 96.863 107.954 102.913C109.214 109.763 108.898 116.841 107.896 123.702C106.842 130.914 105.029 137.98 103.408 145.078C102.575 148.724 101.79 152.384 101.184 156.076C100.586 159.719 100.061 163.443 100.164 167.142C100.19 168.075 100.22 169.008 100.264 169.94C100.314 170.994 101.872 171.001 101.907 169.94C101.97 168.018 102.185 166.106 102.359 164.191C102.526 162.354 102.734 160.519 102.998 158.693C103.544 154.911 104.292 151.164 105.117 147.434C106.741 140.091 108.664 132.804 109.8 125.362C110.896 118.167 111.35 110.799 110.146 103.584Z" fill="#34522D"/>
<path d="M137.471 147.103C137.421 145.164 137.327 143.227 137.164 141.294C136.841 137.458 136.275 133.621 135.202 129.918C133.432 123.81 130.142 117.935 125.163 113.873C122.713 111.874 119.913 110.326 116.849 109.504C113.157 108.514 109.267 108.529 105.491 108.927C99.777 109.529 94.169 111.083 88.962 113.512C88.889 113.336 88.824 113.158 88.778 112.975C86.805 105.111 79.713 99.665 72.624 95.73C68.561 93.475 64.162 91.454 59.515 91.467C59.035 91.468 58.557 91.493 58.08 91.541C53.021 92.047 48.249 95.113 45.764 99.562C52.523 103.178 59.282 106.795 66.041 110.411C67.82 111.363 69.851 112.724 69.795 114.741C69.703 118.029 64.839 118.281 61.751 117.148C54.358 114.435 47.559 110.115 41.962 104.574C36.499 108.657 32.139 113.917 29.139 120.038C34.915 123.169 41.378 125.026 47.935 125.438C50.02 125.569 52.18 125.571 54.084 126.43C55.988 127.289 57.567 129.316 57.127 131.358C46.285 131.866 35.323 129.566 25.6 124.742C23.492 132.186 16.045 136.299 18.709 145.223C19.945 149.358 24.404 152.716 28.538 151.477C31.085 150.714 32.902 148.507 35.182 147.138C37.461 145.769 41.083 145.668 42.15 148.103C37.623 153.772 30.139 156.936 22.919 156.233C21.805 156.125 20.597 155.949 19.634 156.519C18.569 157.149 18.171 158.469 17.861 159.667C16.74 163.997 15.609 168.456 16.178 172.893C16.747 177.33 19.426 181.798 23.698 183.122C26.284 183.923 29.071 183.497 31.743 183.064C37.436 182.142 44.717 179.293 44.112 173.557C43.864 171.208 42.217 169.265 41.419 167.042C39.346 161.261 44.668 154.219 50.795 154.637C50.526 162.161 49.672 169.664 48.243 177.056C56.826 176.935 65.349 174.033 72.222 168.89C73.927 167.614 75.596 166.116 76.332 164.118C78.083 159.369 74.03 154.687 70.869 150.733C67.708 146.779 65.544 140.171 69.723 137.315C73.969 145.216 77.569 153.966 82.104 161.442C87.47 158.423 91.798 152.99 96.349 148.726C93.518 142.518 90.068 136.593 86.067 131.066C89.335 130.174 92.271 133.271 93.941 136.218C95.611 139.165 97.346 142.668 100.649 143.417C106.053 144.643 102.923 125.368 101.552 123.285C99.438 120.074 92.832 118.111 89.992 115.052C94.233 113.255 98.704 112.021 103.274 111.394C103.389 111.378 103.582 111.354 103.643 111.347C103.819 111.326 103.995 111.305 104.17 111.285C104.588 111.238 105.006 111.197 105.425 111.161C106.232 111.092 107.042 111.043 107.852 111.015C109.732 110.949 111.632 110.962 113.5 111.205C115.154 111.42 116.788 111.837 118.338 112.452C118.414 112.482 118.491 112.513 118.567 112.544C118.591 112.554 118.612 112.562 118.629 112.57C118.634 112.572 118.649 112.58 118.685 112.595C118.854 112.669 119.022 112.745 119.189 112.823C119.523 112.98 119.852 113.145 120.176 113.32C120.825 113.668 121.455 114.051 122.065 114.464C126.775 117.652 130.285 122.889 132.187 128.223C133.42 131.682 134.162 135.321 134.579 138.956C135.004 142.66 135.04 146.38 135.304 150.093C135.371 151.039 135.518 151.972 135.583 152.919C135.658 154.004 137.241 154.022 137.284 152.919C137.322 151.947 137.441 150.987 137.472 150.015C137.503 149.041 137.496 148.075 137.471 147.103Z" fill="#548549"/>
<path d="M192.489 179.614C190.138 179.387 187.905 180.613 185.567 180.949C179.488 181.824 173.653 175.201 175.288 169.281C182.606 171.05 189.787 173.387 196.743 176.266C197.801 176.704 197.045 161.207 195.675 159.234C194.173 160.337 191.73 161.798 189.733 161.535C187.467 161.237 185.578 158.555 186.718 156.574C188.106 154.16 191.752 155.048 194.266 156.245C192.585 152.57 193.688 148.634 189.684 146.155C185.381 143.491 179.984 146.525 175.479 148.831C170.973 151.137 164.065 151.936 162.102 147.27C170.676 144.695 179.333 142.4 188.057 140.39C187.838 128.334 180.543 118.382 169.457 114.186C163.56 111.954 160.058 111.562 154.122 113.795C151.888 114.635 147.869 119.108 144.966 121.757C143.992 119.853 142.692 118.195 140.937 116.869C138.241 114.83 134.737 114.09 131.406 114.234C128.194 114.372 125.078 115.329 122.246 116.829C116.382 119.934 112.098 125.232 109.143 131.075C107.575 134.175 106.327 137.43 105.229 140.722C104.066 144.208 103.039 147.743 102.113 151.299C101.165 154.938 100.334 158.608 99.62 162.3C99.261 164.159 98.931 166.025 98.632 167.895C98.325 169.81 97.999 171.739 97.812 173.67C97.723 174.585 97.654 175.491 97.64 176.41C97.623 177.525 99.38 177.809 99.621 176.678C100.003 174.883 100.221 173.063 100.483 171.248C100.745 169.427 101.037 167.61 101.356 165.799C101.986 162.229 102.725 158.678 103.573 155.153C104.434 151.576 105.407 148.025 106.489 144.509C107.444 141.408 108.484 138.258 109.751 135.309C112.215 129.573 115.696 124.033 120.801 120.457C123.285 118.717 125.885 117.491 128.845 116.88C130.204 116.6 131.573 116.482 133.062 116.551C134.622 116.623 136.19 116.93 137.646 117.546C140.171 118.614 141.947 120.489 143.298 122.835C143.34 122.908 143.377 122.984 143.417 123.058C142.861 123.466 142.397 123.716 142.067 123.731C133.967 124.091 127.212 129.95 121.939 136.109C118.917 139.639 116.057 143.545 115.14 148.1C115.045 148.57 114.974 149.044 114.926 149.52C114.41 154.578 116.459 159.867 120.321 163.192C125.216 157.293 130.112 151.394 135.007 145.495C136.296 143.942 138.035 142.224 140 142.683C143.204 143.431 142.477 148.247 140.749 151.046C136.612 157.747 131.019 163.545 124.471 167.92C127.379 174.089 131.66 179.414 137.058 183.577C141.281 178.544 144.393 172.583 146.108 166.241C146.654 164.224 147.087 162.108 148.31 160.414C149.533 158.72 151.835 157.578 153.748 158.418C152.077 169.143 147.63 179.423 140.959 187.985C147.831 191.539 150.371 199.659 159.647 198.834C163.945 198.45 168.128 194.753 167.741 190.455C167.502 187.807 165.704 185.585 164.818 183.078C163.933 180.571 164.558 177.002 167.157 176.443C171.806 182.012 173.409 189.978 171.275 196.912C170.946 197.982 170.532 199.13 170.899 200.188C171.304 201.358 172.517 202.011 173.628 202.555C177.646 204.52 181.789 206.52 186.25 206.85C190.711 207.18 195.624 205.449 197.776 201.528C199.079 199.155 199.218 196.339 199.329 193.634C199.565 187.872 198.23 180.168 192.489 179.614Z" fill="#446B3B"/>
<path d="M140.959 187.986C147.631 179.424 152.077 169.144 153.748 158.419C151.835 157.579 149.533 158.721 148.311 160.415C147.088 162.109 146.654 164.225 146.109 166.242C144.394 172.584 141.282 178.545 137.059 183.578C131.661 179.414 127.381 174.09 124.472 167.921C131.02 163.546 136.613 157.749 140.75 151.047C141.365 150.05 141.852 148.798 142.081 147.564C139.15 147.564 136.223 147.564 133.291 147.564C128.968 152.774 124.645 157.983 120.321 163.192C116.459 159.867 114.41 154.579 114.926 149.52C114.975 149.044 115.046 148.57 115.14 148.1C115.176 147.92 115.221 147.742 115.263 147.564H95.801C95.983 147.951 96.17 148.336 96.348 148.725C91.797 152.989 87.469 158.422 82.103 161.441C79.473 157.106 77.158 152.342 74.849 147.564H68.864C69.429 148.712 70.12 149.797 70.868 150.732C74.029 154.686 78.081 159.367 76.331 164.117C75.594 166.115 73.926 167.613 72.221 168.889C71.271 169.6 70.287 170.263 69.278 170.887L75.157 225.682C76.14 234.85 83.878 241.802 93.098 241.802H143.491C153.088 241.802 161.115 234.513 162.037 224.96L164.763 196.724C163.313 197.894 161.492 198.67 159.648 198.834C150.371 199.659 147.83 191.54 140.959 187.986Z" fill="#D49A7D"/>
<path d="M169.212 150.635L169.509 147.563H162.241C163.473 150.075 166.242 150.86 169.212 150.635Z" fill="#D49A7D"/>
<path d="M164.818 183.078C165.098 183.872 165.47 184.637 165.855 185.397L166.707 176.579C164.488 177.432 163.986 180.723 164.818 183.078Z" fill="#D49A7D"/>
<path d="M133.841 126.022C132.499 122.749 130.685 119.651 128.368 116.992C127.511 117.191 126.682 117.44 125.878 117.741C128.432 120.454 130.444 123.773 131.799 127.189C132.466 126.768 133.147 126.378 133.841 126.022Z" fill="#548549"/>
<path d="M79.318 220.423C79.726 223.053 80.182 225.748 81.527 228.045C84.551 233.209 91.098 234.969 97.03 235.759C108.043 237.226 122.215 238.367 132.945 235.126C135.693 234.296 138.901 232.013 137.932 229.311C137.464 228.006 136.146 227.231 134.896 226.633C125.919 222.336 115.573 221.56 106.603 217.25C97.906 213.071 91.004 205.762 85.911 197.567C80.818 189.372 77.391 180.267 74.211 171.158C73.269 177.062 75.127 182.655 75.592 188.536C76.434 199.206 77.678 209.845 79.318 220.423Z" fill="#B57250"/>
<path d="M41.7169 111.87C41.4369 111.706 41.1249 111.823 40.9499 112.071C40.4039 112.845 39.8889 113.639 39.3719 114.433C39.1179 114.823 38.8629 115.213 38.6089 115.602C38.3379 116.017 38.0349 116.432 37.8439 116.89C37.6129 117.442 38.4449 117.86 38.8209 117.459C39.1459 117.112 39.3889 116.661 39.6439 116.261C39.9029 115.856 40.1609 115.451 40.4199 115.045C40.9289 114.248 41.4399 113.453 41.9189 112.637C42.0719 112.376 41.9779 112.023 41.7169 111.87Z" fill="#51A3B8"/>
<path d="M44.9149 114.517C44.6369 114.37 44.3219 114.456 44.1509 114.717C43.6039 115.557 43.0449 116.396 42.5679 117.278C42.4209 117.549 42.4919 117.933 42.7799 118.085C43.0769 118.242 43.4029 118.148 43.5869 117.873C44.1449 117.04 44.6269 116.155 45.1149 115.28C45.2569 115.026 45.1849 114.66 44.9149 114.517Z" fill="#51A3B8"/>
<path d="M61.7149 142.949C60.3989 144.395 59.0269 145.792 57.5729 147.101C56.8549 147.747 56.1149 148.369 55.3549 148.966C54.5799 149.574 53.7339 150.11 52.9879 150.752C52.4649 151.202 53.1319 151.976 53.6989 151.674C54.5659 151.213 55.3579 150.551 56.1269 149.947C56.9059 149.335 57.6639 148.696 58.3989 148.032C59.8709 146.701 61.2369 145.257 62.4599 143.694C62.8649 143.174 62.1819 142.435 61.7149 142.949Z" fill="#51A3B8"/>
<path d="M169.5 137.042C168.679 134.583 167.154 132.267 165.493 130.297C163.805 128.294 161.772 126.594 159.519 125.259C158.928 124.909 158.401 125.818 158.982 126.177C161.112 127.493 163.009 129.159 164.617 131.078C165.41 132.024 166.12 133.039 166.747 134.102C167.393 135.197 167.888 136.345 168.411 137.499C168.69 138.113 169.712 137.679 169.5 137.042Z" fill="#51A3B8"/>
<path d="M172.66 132.376C172.545 131.824 172.221 131.266 171.968 130.764C171.73 130.292 171.473 129.829 171.197 129.377C170.606 128.408 169.929 127.49 169.185 126.632C167.719 124.943 165.957 123.525 164.004 122.437C163.39 122.095 162.857 123.01 163.454 123.378C165.252 124.488 166.863 125.883 168.235 127.489C168.915 128.286 169.526 129.14 170.068 130.037C170.33 130.471 170.575 130.915 170.803 131.369C171.046 131.853 171.218 132.407 171.507 132.862C171.895 133.479 172.805 133.077 172.66 132.376Z" fill="#51A3B8"/>
<path d="M160.825 189.746C158.437 187.23 156.417 184.481 154.953 181.323C154.703 180.783 153.749 181.174 153.981 181.733C155.35 185.032 157.319 188.179 159.916 190.655C160.516 191.226 161.395 190.347 160.825 189.746Z" fill="#51A3B8"/>
<path d="M157.043 191.465C156.651 191.056 156.175 190.709 155.756 190.325C155.332 189.937 154.927 189.53 154.542 189.103C153.789 188.269 153.087 187.378 152.5 186.418C152.12 185.797 151.161 186.354 151.522 186.989C152.124 188.05 152.799 189.058 153.601 189.98C153.988 190.424 154.396 190.85 154.825 191.254C155.266 191.671 155.762 192.138 156.296 192.431C156.909 192.77 157.533 191.976 157.043 191.465Z" fill="#51A3B8"/>
<path d="M114.298 57.893C114.108 57.062 113.731 56.331 113.193 55.675C112.797 55.193 111.971 55.827 112.325 56.345C112.729 56.938 112.986 57.523 113.136 58.214C113.273 58.849 113.236 59.587 113.166 60.241C113.137 60.517 113.404 60.767 113.657 60.797C113.941 60.831 114.192 60.666 114.278 60.392C114.525 59.601 114.48 58.692 114.298 57.893Z" fill="#51A3B8"/>
<path d="M108.853 62.416C108.808 62.324 108.76 62.232 108.703 62.147C108.668 62.095 108.626 62.034 108.581 61.991C108.552 61.959 108.564 61.977 108.618 62.046C108.588 62.007 108.558 61.969 108.528 61.93C108.495 61.887 108.461 61.846 108.426 61.805C108.391 61.764 108.355 61.723 108.316 61.686C108.275 61.647 108.216 61.621 108.18 61.578C108.243 61.629 108.26 61.641 108.229 61.612C108.217 61.601 108.206 61.59 108.194 61.579C108.089 61.481 107.975 61.394 107.86 61.309C107.76 61.235 107.563 61.218 107.448 61.255C107.335 61.291 107.243 61.352 107.17 61.446C107.02 61.64 107.006 61.977 107.212 62.148C107.279 62.203 107.343 62.261 107.404 62.322C107.412 62.33 107.429 62.347 107.444 62.362C107.464 62.388 107.483 62.414 107.504 62.44C107.523 62.475 107.554 62.508 107.576 62.541C107.592 62.564 107.622 62.638 107.646 62.65C107.594 62.524 107.602 62.544 107.672 62.71C107.682 62.73 107.692 62.748 107.704 62.767C107.723 62.8 107.742 62.833 107.759 62.866C107.777 62.899 107.794 62.933 107.81 62.968C107.815 62.978 107.821 62.994 107.826 63.009C107.823 62.999 107.82 62.989 107.816 62.975C107.84 63.058 107.877 63.137 107.902 63.22C107.946 63.368 107.98 63.519 108.005 63.672C108.006 63.687 108.009 63.701 108.01 63.716C108.012 63.738 108.013 63.759 108.015 63.781C108.018 63.818 108.055 64.087 108.025 63.862C108.045 64.011 108.073 64.154 108.191 64.262C108.284 64.348 108.39 64.401 108.516 64.418C108.769 64.452 109.092 64.291 109.137 64.013C109.227 63.46 109.095 62.915 108.853 62.416Z" fill="#51A3B8"/>
<path d="M107.827 63.009C107.853 63.097 107.843 63.055 107.827 63.009Z" fill="#51A3B8"/>
<path d="M108.745 83.651C108.493 83.115 107.618 83.493 107.792 84.053C108.25 85.524 108.586 87.015 108.609 88.561C108.62 89.299 108.576 90.043 108.457 90.771C108.329 91.557 108.068 92.309 107.923 93.089C107.815 93.667 108.617 94.098 108.929 93.513C109.324 92.772 109.498 91.917 109.63 91.094C109.764 90.256 109.832 89.409 109.816 88.56C109.783 86.874 109.465 85.183 108.745 83.651Z" fill="#51A3B8"/>
<path d="M114.668 87.098C114.641 85.664 114.487 84.243 114.151 82.847C114.018 82.293 113.056 82.396 113.132 82.985C113.308 84.347 113.437 85.724 113.438 87.098C113.44 88.484 113.273 89.841 113.158 91.218C113.104 91.867 114.132 91.992 114.285 91.371C114.626 89.995 114.694 88.51 114.668 87.098Z" fill="#51A3B8"/>
<path d="M84.352 18.117C83.889 17.349 83.306 16.642 82.743 15.946C82.178 15.248 81.589 14.568 80.978 13.909C79.755 12.59 78.443 11.352 77.02 10.251C76.515 9.86001 75.794 10.526 76.298 10.973C77.624 12.151 78.915 13.368 80.119 14.671C80.713 15.314 81.287 15.977 81.838 16.657C82.403 17.354 82.914 18.095 83.485 18.786C83.887 19.276 84.671 18.646 84.352 18.117Z" fill="#51A3B8"/>
<path d="M82.2059 20.757C81.7729 20.019 81.2489 19.325 80.7579 18.625C80.2629 17.919 79.7499 17.227 79.2289 16.54C79.0539 16.309 78.7659 16.188 78.4939 16.347C78.2499 16.49 78.1449 16.836 78.3009 17.082C78.7689 17.819 79.2439 18.549 79.7389 19.269C80.2449 20.005 80.7359 20.763 81.2999 21.456C81.4789 21.676 81.8519 21.664 82.0569 21.501C82.2799 21.324 82.3549 21.01 82.2059 20.757Z" fill="#51A3B8"/>
<path d="M83.2159 64.677C79.4269 61.594 74.1869 61.683 69.6139 62.439C68.2629 62.662 66.8929 62.906 65.5739 63.277C64.9169 63.462 65.2049 64.379 65.8499 64.277C68.1389 63.917 70.3809 63.398 72.6999 63.237C74.8969 63.085 77.1389 63.178 79.2449 63.869C80.4249 64.256 81.5119 64.855 82.5079 65.595C83.0359 65.987 83.7309 65.095 83.2159 64.677Z" fill="#376F7D"/>
<path d="M79.9749 68.184C76.4299 66.493 71.9619 66.889 68.5819 68.777C67.9499 69.13 68.5069 70.059 69.1449 69.741C70.7309 68.95 72.5099 68.493 74.2799 68.41C76.0919 68.326 77.8149 68.682 79.5299 69.238C80.1429 69.436 80.5699 68.468 79.9749 68.184Z" fill="#376F7D"/>
<path d="M16.8589 101.1C14.0559 100.708 11.4419 99.65 9.26795 97.813C8.74695 97.373 7.99195 98.101 8.50795 98.573C10.7499 100.624 13.6679 101.973 16.7039 102.243C17.3499 102.3 17.5099 101.191 16.8589 101.1Z" fill="#376F7D"/>
<path d="M19.414 97.157C17.835 96.846 16.233 96.686 14.634 96.524C14.037 96.464 13.895 97.473 14.491 97.579C16.073 97.86 17.658 98.142 19.262 98.274C19.898 98.326 20.043 97.281 19.414 97.157Z" fill="#376F7D"/>
<path d="M143.968 35.031C142.525 35.812 141.32 36.905 140.364 38.235C139.897 38.884 139.505 39.584 139.191 40.32C138.879 41.048 138.521 41.897 138.505 42.699C138.492 43.375 139.4 43.417 139.617 42.849C139.87 42.186 139.975 41.476 140.253 40.815C140.542 40.13 140.914 39.476 141.341 38.868C142.168 37.691 143.263 36.673 144.489 35.921C145.055 35.574 144.553 34.714 143.968 35.031Z" fill="#376F7D"/>
<path d="M145.919 37.68C144.902 38.607 144.025 39.681 143.294 40.846C142.583 41.979 141.924 43.304 141.646 44.62C141.491 45.354 142.486 45.605 142.753 44.925C142.983 44.338 143.174 43.739 143.431 43.162C143.694 42.573 143.997 42.004 144.325 41.448C144.977 40.346 145.771 39.342 146.667 38.428C147.147 37.94 146.421 37.223 145.919 37.68Z" fill="#376F7D"/>
<path d="M36.0019 167.603C34.6309 168.621 33.2709 169.575 31.7159 170.3C30.1899 171.012 28.5539 171.51 26.9079 171.853C26.2169 171.997 26.5279 172.983 27.1929 172.889C28.9569 172.64 30.6399 172.109 32.2579 171.368C33.8409 170.642 35.4299 169.713 36.7199 168.533C37.2069 168.088 36.5489 167.197 36.0019 167.603Z" fill="#51A3B8"/>
<path d="M36.2239 173.873C36.0239 173.622 35.7229 173.586 35.4399 173.716C34.9169 173.958 34.4289 174.309 33.9239 174.59C33.3969 174.883 32.8639 175.165 32.3209 175.428C31.2639 175.94 30.1699 176.36 29.0819 176.801C28.4429 177.06 28.6689 178.02 29.3729 177.857C30.6009 177.573 31.7789 177.098 32.9189 176.567C33.4829 176.304 34.0389 176.022 34.5789 175.713C35.1199 175.403 35.7069 175.085 36.1759 174.671C36.4009 174.473 36.4009 174.096 36.2239 173.873Z" fill="#51A3B8"/>
<path d="M67.0049 159.065C66.1359 159.829 65.3339 160.659 64.4339 161.39C63.5429 162.114 62.5959 162.772 61.6159 163.369C59.6419 164.572 57.5159 165.486 55.3129 166.179C54.6449 166.389 54.9189 167.399 55.6029 167.23C57.9419 166.651 60.1779 165.679 62.2409 164.439C63.2779 163.816 64.2649 163.117 65.2079 162.359C66.1339 161.614 67.0809 160.816 67.8159 159.876C68.2639 159.305 67.5729 158.565 67.0049 159.065Z" fill="#51A3B8"/>
<path d="M63.574 155.471C62.309 156.385 61.07 157.326 59.747 158.158C58.428 158.986 57.061 159.751 55.686 160.48C55.163 160.757 55.53 161.69 56.098 161.457C57.595 160.842 59.014 160.11 60.387 159.252C61.749 158.4 63.098 157.479 64.289 156.397C64.776 155.955 64.123 155.075 63.574 155.471Z" fill="#51A3B8"/>
<path d="M85.261 141.466C84.995 141.31 84.713 141.426 84.544 141.654C83.877 142.557 83.162 143.425 82.505 144.337L81.554 145.656C81.22 146.119 80.841 146.577 80.574 147.083C80.277 147.648 81.013 148.278 81.484 147.785C81.89 147.359 82.215 146.844 82.556 146.367C82.882 145.912 83.208 145.457 83.534 145.001C84.196 144.077 84.798 143.114 85.449 142.183C85.611 141.951 85.491 141.601 85.261 141.466Z" fill="#51A3B8"/>
<path d="M88.1169 143.521C87.3779 144.47 86.6099 145.394 85.8859 146.355C85.5279 146.83 85.1689 147.304 84.8119 147.78C84.4619 148.246 84.0559 148.715 83.7819 149.23C83.4589 149.836 84.2379 150.475 84.7449 149.973C85.1729 149.55 85.5169 149.011 85.8739 148.528C86.2269 148.05 86.5779 147.571 86.9299 147.093C87.6329 146.137 88.2889 145.15 88.9769 144.184C89.3339 143.683 88.4989 143.029 88.1169 143.521Z" fill="#51A3B8"/>
<path d="M64.195 97.297C63.258 97.34 62.289 97.621 61.401 97.906C60.491 98.198 59.614 98.57 58.777 99.032C58.516 99.176 58.431 99.535 58.579 99.789C58.74 100.064 59.065 100.117 59.336 99.987C60.119 99.61 60.927 99.279 61.756 99.017C62.172 98.885 62.593 98.771 63.018 98.673C63.458 98.572 63.908 98.516 64.346 98.409C64.958 98.259 64.839 97.267 64.195 97.297Z" fill="#51A3B8"/>
<path d="M66.321 100.895C66.282 100.608 66.037 100.384 65.742 100.384C65.374 100.384 64.981 100.515 64.633 100.625C64.271 100.74 63.918 100.879 63.575 101.039C62.915 101.346 62.326 101.75 61.767 102.215C61.552 102.394 61.565 102.751 61.723 102.955C61.881 103.159 62.222 103.266 62.45 103.1C62.975 102.719 63.55 102.395 64.141 102.128C64.157 102.121 64.315 102.053 64.297 102.06C64.365 102.032 64.433 102.005 64.501 101.978C64.653 101.918 64.806 101.863 64.961 101.813C65.267 101.713 65.605 101.667 65.9 101.543C66.173 101.427 66.363 101.211 66.321 100.895Z" fill="#51A3B8"/>
<path d="M95.245 125.296C95.213 124.988 95.004 124.722 94.671 124.722C94.375 124.722 94.078 124.985 94.097 125.296C94.142 126.045 94.093 126.805 93.925 127.537C93.752 128.288 93.436 128.948 93.122 129.645C92.821 130.314 93.663 130.803 94.1 130.216C94.6 129.544 94.895 128.664 95.08 127.855C95.271 127.014 95.333 126.155 95.245 125.296Z" fill="#51A3B8"/>
<path d="M98.244 126.711C98.164 126.429 97.861 126.254 97.577 126.332C97.273 126.416 97.147 126.71 97.198 126.999C97.328 127.73 97.286 128.468 97.132 129.158C97.057 129.492 96.9349 129.88 96.8119 130.148C96.6429 130.517 96.423 130.85 96.238 131.209C95.933 131.802 96.676 132.422 97.177 131.933C97.819 131.307 98.185 130.318 98.356 129.456C98.538 128.543 98.5 127.607 98.244 126.711Z" fill="#51A3B8"/>
</svg>
