<svg width="125" height="159" viewBox="0 0 125 159" fill="none" xmlns="http://www.w3.org/2000/svg">
<path d="M67.638 19.073C52.071 9.48402 51.189 44.484 50.886 52.389C50.424 64.433 50.925 76.361 52.628 88.311C53.583 95.012 54.417 101.713 55.338 108.418C55.9 112.51 56.743 119.585 61.296 121.189C62.95 121.772 64.553 119.653 63.586 118.21C58.509 110.641 58.626 99.783 56.854 91.04C54.531 79.579 53.562 68.187 53.55 56.527C53.544 49.781 52.94 11.764 67.237 19.76C67.685 20.013 68.074 19.343 67.638 19.073Z" fill="#5D9F31"/>
<path d="M88.353 94.47C84.735 89.333 80.645 81.187 73.48 80.979C66.892 80.788 63.594 91.386 62.136 96.241C60.26 102.49 58.569 108.792 57.944 115.307C57.733 117.504 57.646 120.138 58.86 122.083C60.064 124.011 62.507 123.727 63.739 122.088C64.166 121.52 63.96 120.592 63.486 120.128C62.272 118.94 62.607 114.183 62.849 111.646C63.281 107.117 64.072 102.542 65.06 98.101C66.094 93.454 68.116 85.893 72.943 84.02C77.923 82.089 84.4 92.405 87.358 95.237C87.861 95.718 88.78 95.076 88.353 94.47Z" fill="#5D9F31"/>
<path d="M89.452 108.2C89.338 107.602 88.759 107.33 88.224 107.265C78.952 106.145 67.421 106.129 58.052 106.709C50.721 107.163 43.304 106.374 35.939 107.265C35.404 107.329 34.825 107.602 34.711 108.2C33.65 113.788 34.566 119.97 35.102 125.563C35.822 133.08 36.786 140.751 38.899 148.017C40.171 152.389 42.842 154.884 46.273 156.278C46.043 157.088 46.71 158.199 47.822 157.977C48.927 157.757 50.132 157.633 51.406 157.571C54.641 158.01 58.181 157.959 61.697 157.815C65.561 157.994 69.491 158.096 73.038 157.581C74.207 157.65 75.316 157.772 76.343 157.977C77.439 158.196 78.103 157.121 77.903 156.314C81.131 154.993 83.687 152.691 85.035 148.751C87.426 141.756 88.162 134.022 88.945 126.711C89.58 120.784 90.577 114.131 89.452 108.2Z" fill="#AD796B"/>
<path d="M88.133 133.915C88.247 133 88.357 132.088 88.458 131.176C86.016 129.841 82.925 128.513 80.329 129.766C76.84 131.451 75.962 135.614 74.2 138.742C69.551 146.994 64.796 134.186 62.386 131.216C60.489 128.879 56.046 127.91 53.411 129.479C49.946 131.543 48.739 135.568 46.064 138.399C43.594 141.014 40.173 140.063 36.803 138.791C36.96 139.687 37.13 140.58 37.31 141.47C38.254 141.849 39.213 142.188 40.217 142.43C43.749 143.282 47.101 141.507 49.155 138.702C52.132 134.636 56.566 126.877 61.523 134.303C63.849 137.787 64.569 142.398 69.087 143.698C72.964 144.813 75.761 141.404 77.262 138.403C78.3 136.326 78.957 133.747 80.918 132.3C82.977 130.782 86.294 132.873 88.133 133.915Z" fill="white"/>
<path d="M59.921 148.628C59.901 148.409 59.864 148.181 59.809 147.946C59.62 147.145 59.253 146.502 58.784 146.018C55.668 142.81 51.104 147.207 53.906 150.579C56.26 153.414 60.234 152.092 59.921 148.628Z" fill="#FBCDCD"/>
<path d="M70.367 133.88C70.586 133.898 70.817 133.902 71.057 133.889C71.878 133.844 72.577 133.595 73.136 133.217C76.84 130.713 73.311 125.448 69.5 127.615C66.297 129.436 66.902 133.58 70.367 133.88Z" fill="#FBCDCD"/>
<path d="M83.103 149.561C83.457 149.988 83.851 150.31 84.258 150.555C84.543 149.991 84.81 149.402 85.032 148.752C85.559 147.207 85.997 145.622 86.382 144.018C83.574 143.214 80.758 146.738 83.103 149.561Z" fill="#FBCDCD"/>
<path d="M36.125 134.48C38.334 135.472 40.818 134.079 40.569 131.313C40.549 131.094 40.512 130.867 40.456 130.631C40.268 129.83 39.9 129.187 39.431 128.703C38.107 127.339 36.525 127.357 35.354 128.08C35.576 130.21 35.828 132.347 36.125 134.48Z" fill="#FBCDCD"/>
<path d="M98.771 11.819C95.686 11.882 90.14 15.753 87.615 14.916C86.187 14.435 86.02 12.731 87.307 11.492C87.763 11.053 88.254 10.672 88.761 10.317C87.689 8.48001 86.969 6.07901 85.866 4.71501C82.412 0.441009 76.759 -0.814993 73.341 2.77301C70.132 6.13801 68.205 11.252 66.433 15.605C65.874 16.981 65.333 18.394 64.897 19.848C60.313 20.212 55.781 21.244 51.683 22.846C47.208 24.596 44.844 28.331 46.927 33.605C47.906 36.087 50.28 38.159 52.53 39.42C53.229 39.812 53.945 40.173 54.575 40.608C55.179 39.839 55.845 39.111 56.635 38.477C58.667 36.845 60.162 38.388 59.89 40.267C59.678 41.743 56.87 44.516 56.136 46.125C53.985 50.837 54.367 56.127 58.583 58.408C62.294 60.418 65.522 57.605 69.136 57.872C69.209 57.878 69.275 57.892 69.343 57.901C69.654 57.192 70.011 56.502 70.483 55.893C71.693 54.338 73.562 54.304 74.447 55.562C75.512 57.075 73.623 58.975 73.301 60.592C72.644 63.896 74.015 67.048 76.884 68.382C77.853 68.83 80.114 68.062 80.874 67.006C81.733 65.812 80.646 64.223 82.146 63.184C83.144 62.491 84.933 62.626 85.509 63.43C85.937 64.025 85.688 64.714 85.513 65.478C85.417 65.894 84.405 68.757 84.578 68.926C86.093 70.416 88.129 71.06 90.13 71.462C95.273 72.495 99.46 68.416 104.226 67.8C106.025 67.568 107.851 68.005 109.309 69.448C109.673 69.809 110.125 69.719 110.348 69.458C110.638 69.27 110.783 68.832 110.471 68.424C106.423 63.136 113.046 57.064 114.517 52.714C115.23 50.599 114.878 48.226 114.208 45.96C113.922 44.982 113.557 44.177 112.823 43.422C112.784 43.381 112.75 43.341 112.712 43.299C112.534 43.328 112.355 43.359 112.179 43.381C110.632 43.569 107.578 44.4 106.598 43.175C105.826 42.206 106.08 40.827 107.291 39.879C108.739 38.747 110.767 39.155 112.294 39.129C112.485 38.82 112.702 38.51 112.931 38.189C115.799 34.166 110.392 32.489 107.597 31.933C107.104 31.835 105.536 31.672 104.04 31.334C101.461 30.751 99.094 29.644 102.816 27.447C103.234 27.201 103.678 27.008 104.133 26.843C104.38 24.153 106.258 20.965 106.412 19.053C106.727 15.213 102.227 11.749 98.771 11.819ZM69.278 41.561C69.274 41.704 69.265 41.867 69.278 41.561ZM71.948 36.475C73.033 36.166 74.124 36.582 74.488 37.504C74.813 38.328 74.746 39.576 74.307 40.53C74.112 40.953 73.886 41.391 73.63 41.789C73.416 42.119 73.098 42.411 72.805 42.687C69.167 46.106 67.686 37.689 71.948 36.475ZM92.166 65.218C92.366 65.456 92.262 65.327 92.166 65.218ZM96.588 61.101C96.685 61.545 96.762 62.021 96.779 62.488C96.794 62.874 96.673 63.304 96.568 63.706C95.242 68.676 87.82 63.397 91.327 59.654C92.223 58.699 93.628 58.284 94.648 58.728C95.559 59.123 96.366 60.099 96.588 61.101ZM94.553 40.495C94.772 40.467 94.654 40.48 94.553 40.495ZM91.324 39.293C91.281 38.587 91.759 37.791 92.482 37.429C93.129 37.107 94.019 37 94.631 37.184C94.905 37.265 95.186 37.365 95.429 37.492C95.633 37.596 95.791 37.779 95.942 37.945C97.81 40.018 91.501 42.057 91.324 39.293ZM87.642 30.684C87.993 30.642 87.807 30.661 87.642 30.684ZM82.439 28.745C82.366 27.606 83.136 26.324 84.306 25.741C85.348 25.22 86.78 25.049 87.775 25.344C88.213 25.474 88.663 25.638 89.058 25.841C89.384 26.011 89.64 26.304 89.884 26.573C92.894 29.913 82.722 33.203 82.439 28.745Z" fill="#527950"/>
<path d="M96.638 20.464C92.185 20.83 87.823 21.185 83.339 22.602C80.365 23.542 75.651 25.712 74.656 29.049C71.682 25.919 68.719 22.784 65.815 19.611C65.453 19.213 64.695 19.879 65.041 20.291C67.766 23.501 70.518 26.685 73.291 29.854C70.38 30.732 68.116 34.271 66.796 36.717C64.424 41.117 63.567 45.848 62.594 50.417C62.53 50.707 62.958 50.674 63.037 50.399C64.024 46.98 65.077 43.546 66.441 40.176C67.273 38.116 68.285 36.128 69.628 34.249C70.861 32.525 72.328 31.659 73.981 30.646C76.081 33.04 78.194 35.424 80.316 37.8C78.224 38.462 76.703 41.353 76.034 43.176C74.666 46.9 74.714 50.658 74.6 54.309C74.591 54.557 75.015 54.482 75.046 54.236C75.398 51.499 75.796 48.738 76.428 45.992C76.77 44.496 77.235 43.048 77.944 41.608C78.711 40.051 79.79 39.411 81.121 38.696C83.688 41.565 86.267 44.425 88.86 47.271C87.441 47.809 86.282 49.736 85.766 51.002C84.51 54.094 84.655 57.251 84.637 60.269C84.635 60.516 85.052 60.441 85.084 60.196C85.365 58.05 85.687 55.88 86.173 53.726C86.433 52.571 86.776 51.447 87.318 50.33C87.894 49.137 88.712 48.728 89.671 48.159C94.187 53.108 98.732 58.032 103.284 62.94C103.612 63.293 104.25 62.72 103.969 62.337C99.975 56.919 95.652 51.761 91.168 46.734C91.568 46.197 91.948 45.718 92.682 45.294C93.981 44.546 95.574 44.41 96.918 44.272C99.114 44.045 101.314 44.022 103.475 44.016C103.722 44.017 103.85 43.613 103.606 43.582C100.693 43.226 97.892 42.866 94.785 43.41C93.463 43.642 91.278 44.504 90.357 45.821C87.809 42.985 85.213 40.191 82.598 37.415C83.258 36.463 83.795 35.687 84.972 35.005C86.656 34.028 88.744 33.814 90.489 33.62C93.29 33.306 96.091 33.3 98.841 33.3C99.089 33.3 99.218 32.888 98.971 32.865C95.27 32.508 91.663 32.135 87.744 32.87C85.801 33.234 82.661 34.513 81.816 36.587C79.628 34.272 77.431 31.964 75.238 29.657C76.434 28.188 77.34 26.93 79.009 25.8C80.888 24.526 83.073 23.824 85.135 23.212C88.913 22.091 92.777 21.485 96.563 20.902C96.846 20.859 96.933 20.439 96.638 20.464Z" fill="#6AA63E"/>
<path d="M8.495 63.696C8.649 65.608 10.528 68.796 10.775 71.486C11.229 71.652 11.674 71.844 12.092 72.091C15.815 74.288 13.448 75.395 10.868 75.979C9.373 76.316 7.805 76.48 7.312 76.578C4.518 77.134 -0.88999 78.811 1.97901 82.834C2.20701 83.155 2.42401 83.465 2.61501 83.773C4.14201 83.798 6.16901 83.39 7.61701 84.523C8.82801 85.472 9.082 86.851 8.31 87.819C7.331 89.044 4.27701 88.213 2.72901 88.025C2.55301 88.004 2.37401 87.972 2.19601 87.944C2.15801 87.986 2.12501 88.025 2.08501 88.066C1.35201 88.822 0.987003 89.627 0.700003 90.604C0.0310032 92.871 -0.321995 95.244 0.392005 97.358C1.863 101.708 8.48601 107.78 4.43801 113.068C4.12501 113.476 4.27 113.913 4.56 114.101C4.783 114.363 5.23501 114.453 5.60001 114.092C7.05801 112.649 8.88401 112.211 10.683 112.444C15.448 113.059 19.635 117.138 24.779 116.106C26.78 115.704 28.816 115.061 30.331 113.57C30.505 113.401 29.492 110.538 29.396 110.122C29.222 109.358 28.972 108.669 29.399 108.074C29.976 107.27 31.765 107.136 32.763 107.829C34.263 108.868 33.176 110.457 34.035 111.651C34.795 112.706 37.056 113.475 38.026 113.026C40.894 111.693 42.266 108.541 41.607 105.236C41.286 103.619 39.397 101.718 40.462 100.206C41.346 98.948 43.216 98.983 44.425 100.538C44.898 101.147 45.254 101.837 45.564 102.546C45.633 102.537 45.699 102.523 45.772 102.517C49.386 102.25 52.614 105.062 56.326 103.053C60.542 100.772 60.923 95.482 58.772 90.77C58.038 89.161 55.23 86.387 55.018 84.912C54.746 83.034 56.241 81.491 58.273 83.123C59.063 83.757 59.729 84.485 60.334 85.255C60.963 84.819 61.679 84.457 62.379 84.066C64.628 82.805 67.002 80.733 67.981 78.251C70.064 72.978 67.7 69.243 63.225 67.493C59.127 65.891 54.596 64.859 50.012 64.495C49.576 63.04 49.035 61.628 48.475 60.252C46.703 55.899 44.776 50.786 41.568 47.42C38.148 43.832 32.496 45.088 29.041 49.363C27.94 50.726 27.22 53.127 26.147 54.964C26.653 55.319 27.144 55.699 27.601 56.139C28.888 57.377 28.721 59.081 27.293 59.562C24.768 60.399 19.221 56.528 16.137 56.465C12.682 56.393 8.183 59.856 8.495 63.696ZM45.631 86.204C45.645 86.511 45.635 86.347 45.631 86.204ZM42.104 87.331C41.81 87.055 41.492 86.763 41.279 86.434C41.023 86.035 40.798 85.597 40.603 85.174C40.164 84.22 40.096 82.971 40.421 82.148C40.786 81.226 41.877 80.81 42.963 81.119C47.223 82.333 45.743 90.75 42.104 87.331ZM22.743 109.861C22.646 109.97 22.543 110.1 22.743 109.861ZM20.261 103.372C21.281 102.928 22.687 103.344 23.582 104.298C27.088 108.04 19.667 113.319 18.341 108.35C18.236 107.948 18.116 107.517 18.129 107.131C18.147 106.664 18.225 106.188 18.321 105.744C18.544 104.743 19.351 103.767 20.261 103.372ZM20.356 85.139C20.254 85.124 20.137 85.111 20.356 85.139ZM18.966 82.589C19.116 82.422 19.276 82.24 19.479 82.135C19.723 82.008 20.004 81.907 20.276 81.827C20.889 81.643 21.779 81.749 22.426 82.072C23.151 82.435 23.628 83.231 23.584 83.936C23.408 86.7 17.101 84.661 18.966 82.589ZM27.268 75.329C27.103 75.305 26.916 75.285 27.268 75.329ZM25.025 71.216C25.269 70.948 25.526 70.654 25.852 70.484C26.247 70.281 26.698 70.117 27.136 69.987C28.131 69.692 29.562 69.864 30.604 70.384C31.774 70.968 32.544 72.25 32.472 73.388C32.188 77.846 22.016 74.557 25.025 71.216Z" fill="#527950"/>
<path d="M18.272 65.108C22.724 65.474 27.087 65.829 31.571 67.246C34.545 68.186 39.259 70.356 40.254 73.693C43.228 70.563 46.19 67.427 49.095 64.254C49.457 63.856 50.215 64.522 49.868 64.934C47.144 68.144 44.392 71.328 41.619 74.497C44.529 75.374 46.792 78.914 48.113 81.36C50.485 85.76 51.342 90.491 52.315 95.06C52.378 95.35 51.951 95.318 51.871 95.041C50.885 91.622 49.831 88.188 48.468 84.818C47.635 82.759 46.623 80.77 45.281 78.891C44.047 77.167 42.581 76.301 40.929 75.289C38.829 77.683 36.716 80.067 34.594 82.443C36.686 83.105 38.207 85.996 38.877 87.819C40.244 91.543 40.197 95.301 40.309 98.952C40.319 99.2 39.894 99.125 39.863 98.879C39.511 96.142 39.112 93.381 38.482 90.635C38.139 89.139 37.675 87.691 36.966 86.251C36.2 84.694 35.12 84.054 33.79 83.339C31.222 86.208 28.644 89.068 26.05 91.914C27.469 92.452 28.629 94.379 29.144 95.646C30.401 98.738 30.255 101.894 30.273 104.912C30.274 105.159 29.857 105.084 29.824 104.839C29.545 102.694 29.222 100.523 28.736 98.37C28.477 97.215 28.134 96.091 27.593 94.973C27.016 93.781 26.199 93.371 25.239 92.802C20.724 97.751 16.179 102.675 11.627 107.583C11.298 107.935 10.661 107.363 10.94 106.981C14.936 101.564 19.258 96.405 23.742 91.378C23.341 90.841 22.962 90.362 22.229 89.938C20.93 89.19 19.337 89.054 17.992 88.916C15.796 88.689 13.597 88.666 11.435 88.661C11.188 88.661 11.061 88.257 11.305 88.226C14.217 87.87 17.017 87.51 20.126 88.054C21.448 88.286 23.633 89.148 24.554 90.465C27.101 87.63 29.697 84.836 32.312 82.06C31.651 81.108 31.114 80.332 29.938 79.65C28.255 78.673 26.166 78.459 24.422 78.265C21.62 77.951 18.819 77.945 16.068 77.945C15.82 77.944 15.692 77.533 15.939 77.51C19.64 77.154 23.246 76.78 27.166 77.515C29.109 77.879 32.249 79.158 33.094 81.232C35.282 78.917 37.478 76.61 39.672 74.302C38.476 72.834 37.569 71.575 35.901 70.445C34.022 69.171 31.837 68.468 29.773 67.857C25.996 66.736 22.132 66.13 18.346 65.547C18.064 65.502 17.977 65.083 18.272 65.108Z" fill="#6AA63E"/>
<path d="M111.459 82.643C108.891 82.695 104.272 85.918 102.17 85.222C100.981 84.822 100.843 83.403 101.914 82.372C102.294 82.005 102.703 81.689 103.125 81.393C102.232 79.863 101.633 77.864 100.715 76.729C97.839 73.17 93.132 72.124 90.284 75.111C87.613 77.913 86.01 82.172 84.533 85.796C84.068 86.941 83.617 88.117 83.255 89.328C79.437 89.632 75.664 90.491 72.252 91.825C68.526 93.282 66.559 96.391 68.293 100.783C69.107 102.849 71.084 104.575 72.956 105.625C73.539 105.951 74.136 106.252 74.659 106.615C75.163 105.974 75.718 105.368 76.376 104.84C78.067 103.481 79.312 104.765 79.086 106.329C78.908 107.558 76.571 109.867 75.959 111.207C74.168 115.13 74.486 119.535 77.995 121.434C81.087 123.108 83.774 120.765 86.783 120.989C86.844 120.993 86.898 121.005 86.956 121.013C87.214 120.422 87.512 119.847 87.904 119.34C88.912 118.046 90.468 118.017 91.206 119.064C92.092 120.324 90.519 121.906 90.252 123.253C89.704 126.004 90.847 128.629 93.234 129.739C94.041 130.112 95.923 129.472 96.556 128.593C97.273 127.599 96.367 126.276 97.616 125.41C98.448 124.833 99.936 124.945 100.417 125.615C100.774 126.111 100.565 126.684 100.42 127.32C100.341 127.667 99.497 130.049 99.643 130.191C100.904 131.432 102.6 131.968 104.265 132.302C108.549 133.162 112.036 129.766 116.002 129.254C117.5 129.06 119.019 129.424 120.234 130.626C120.537 130.927 120.913 130.852 121.098 130.634C121.339 130.477 121.46 130.114 121.201 129.774C117.83 125.371 123.345 120.314 124.569 116.693C125.165 114.932 124.87 112.956 124.313 111.069C124.074 110.255 123.77 109.585 123.16 108.956C123.127 108.921 123.098 108.889 123.066 108.854C122.919 108.877 122.769 108.904 122.623 108.921C121.335 109.078 118.792 109.77 117.976 108.75C117.334 107.943 117.543 106.796 118.553 106.005C119.759 105.062 121.446 105.402 122.719 105.381C122.878 105.124 123.058 104.866 123.248 104.599C125.635 101.249 121.133 99.852 118.807 99.39C118.397 99.308 117.091 99.172 115.846 98.891C113.699 98.405 111.727 97.483 114.826 95.654C115.174 95.449 115.544 95.289 115.923 95.152C116.129 92.912 117.693 90.257 117.821 88.665C118.084 85.468 114.338 82.584 111.459 82.643ZM86.902 107.406C86.898 107.526 86.891 107.662 86.902 107.406ZM89.125 103.171C90.029 102.914 90.938 103.26 91.24 104.027C91.51 104.714 91.454 105.753 91.089 106.547C90.927 106.899 90.739 107.264 90.526 107.596C90.349 107.87 90.084 108.114 89.838 108.343C86.81 111.191 85.577 104.183 89.125 103.171ZM105.961 127.105C106.127 127.303 106.04 127.195 105.961 127.105ZM109.642 123.677C109.722 124.047 109.787 124.443 109.801 124.832C109.812 125.154 109.713 125.512 109.625 125.847C108.521 129.985 102.342 125.589 105.262 122.473C106.006 121.677 107.177 121.332 108.027 121.702C108.784 122.03 109.456 122.842 109.642 123.677ZM107.947 106.52C108.129 106.496 108.031 106.507 107.947 106.52ZM105.258 105.518C105.223 104.93 105.619 104.267 106.223 103.965C106.762 103.697 107.503 103.609 108.014 103.761C108.241 103.828 108.474 103.912 108.677 104.018C108.846 104.105 108.979 104.257 109.105 104.395C110.658 106.122 105.405 107.82 105.258 105.518ZM102.192 98.351C102.485 98.314 102.33 98.331 102.192 98.351ZM97.859 96.736C97.798 95.788 98.44 94.72 99.415 94.234C100.283 93.801 101.474 93.658 102.302 93.904C102.666 94.012 103.042 94.149 103.371 94.318C103.642 94.46 103.856 94.704 104.06 94.927C106.565 97.708 98.097 100.447 97.859 96.736Z" fill="#224136"/>
<path d="M109.683 89.841C105.976 90.146 102.343 90.441 98.611 91.621C96.133 92.404 92.208 94.211 91.381 96.989C88.904 94.383 86.439 91.772 84.02 89.13C83.718 88.798 83.087 89.353 83.375 89.696C85.644 92.368 87.936 95.02 90.244 97.658C87.82 98.388 85.935 101.335 84.836 103.372C82.861 107.035 82.147 110.974 81.338 114.779C81.285 115.02 81.641 114.993 81.708 114.764C82.529 111.917 83.405 109.057 84.541 106.252C85.233 104.537 86.077 102.882 87.195 101.317C88.221 99.882 89.442 99.16 90.817 98.317C92.566 100.31 94.326 102.296 96.093 104.274C94.351 104.825 93.084 107.232 92.526 108.75C91.388 111.851 91.428 114.98 91.334 118.02C91.326 118.226 91.679 118.163 91.705 117.959C91.998 115.68 92.331 113.381 92.856 111.095C93.141 109.849 93.528 108.643 94.119 107.445C94.757 106.149 95.654 105.616 96.762 105.021C98.9 107.41 101.047 109.791 103.206 112.161C102.025 112.609 101.06 114.213 100.63 115.268C99.584 117.843 99.705 120.471 99.691 122.984C99.691 123.189 100.037 123.127 100.065 122.923C100.296 121.136 100.566 119.329 100.971 117.536C101.186 116.574 101.472 115.638 101.922 114.708C102.402 113.715 103.082 113.375 103.882 112.9C107.642 117.022 111.425 121.121 115.215 125.208C115.49 125.502 116.021 125.025 115.787 124.707C112.461 120.196 108.861 115.901 105.128 111.715C105.461 111.268 105.776 110.869 106.389 110.516C107.47 109.893 108.795 109.78 109.915 109.665C111.743 109.476 113.576 109.457 115.375 109.452C115.58 109.452 115.688 109.116 115.483 109.09C113.058 108.793 110.725 108.493 108.138 108.947C107.037 109.14 105.218 109.858 104.45 110.955C102.33 108.594 100.169 106.267 97.991 103.956C98.541 103.163 98.988 102.517 99.967 101.949C101.369 101.136 103.109 100.958 104.56 100.796C106.894 100.535 109.225 100.53 111.516 100.53C111.723 100.53 111.829 100.186 111.623 100.168C108.542 99.871 105.539 99.56 102.276 100.172C100.658 100.475 98.044 101.54 97.34 103.267C95.518 101.339 93.69 99.418 91.863 97.497C92.859 96.274 93.613 95.226 95.002 94.285C96.568 93.224 98.387 92.639 100.105 92.13C103.251 91.197 106.467 90.692 109.621 90.207C109.855 90.169 109.929 89.82 109.683 89.841Z" fill="#6AA63E"/>
</svg>
