<svg width="115" height="178" viewBox="0 0 115 178" fill="none" xmlns="http://www.w3.org/2000/svg">
<path d="M62.043 79.044C60.19 70.256 53.71 67.001 46.285 63.388C40.851 60.744 38.81 57.706 38.752 51.661C38.711 47.412 38.938 43.261 37.761 39.131C36.005 32.973 30.859 29.21 26.013 25.512C21.285 21.905 17.682 16.426 12.332 13.953C15.014 20.685 18.962 26.292 19.394 33.792C19.697 39.066 17.653 44.493 17.095 49.718C16.242 57.707 19.914 64.256 27.244 67.461C31.754 69.433 36.653 69.974 40.148 73.806C43.006 76.94 43.51 82.192 44.433 86.139C45.921 92.497 48.699 97.306 55.268 99.119C55.651 99.224 55.962 99.155 56.196 98.987C55.645 99.695 55.05 100.341 54.404 100.902C53.174 101.97 54.643 104.05 55.885 102.973C62.622 97.127 63.809 87.427 62.043 79.044Z" fill="#79B163"/>
<path d="M56.357 76.593C55.693 74.246 54.614 72.044 53.097 70.272C50.581 67.332 48.832 67.943 45.411 67.284C38.654 65.983 38.575 60.53 37.373 55.453C36.64 52.362 33.955 50.875 33.057 48.029C32.162 45.198 33.867 42.162 32.933 39.304C32.743 38.725 31.817 38.534 31.611 37.905C31.323 37.027 31.992 35.933 31.587 35.03C30.478 32.55 30.178 34.2 28.434 32.732C25.628 30.369 25.166 25.443 20.769 24.649C22.178 25.32 23.25 32.221 23.542 33.803C24.648 39.816 19.632 43.348 21.591 49.492C22.032 50.876 23.316 50.062 23.04 52.831C22.897 54.256 21.543 55.015 21.765 56.743C22.388 61.583 28.57 64.097 32.557 65.421C38.263 67.316 45.143 69.512 45.474 77.275C45.539 78.817 44.571 80.436 44.686 81.971C44.839 84 46.176 84.936 46.751 86.78C47.422 88.939 46.461 95.151 49.559 96.218C54.303 97.853 56.126 89.537 56.761 86.511C57.401 83.443 57.287 79.877 56.357 76.593Z" fill="#2E5D4B"/>
<mask id="mask0_1_1204" style="mask-type:luminance" maskUnits="userSpaceOnUse" x="20" y="24" width="38" height="73">
<path d="M56.357 76.593C55.693 74.246 54.614 72.044 53.097 70.272C50.581 67.332 48.832 67.943 45.411 67.284C38.654 65.983 38.575 60.53 37.373 55.453C36.64 52.362 33.955 50.875 33.057 48.029C32.162 45.198 33.867 42.162 32.933 39.304C32.743 38.725 31.817 38.534 31.611 37.905C31.323 37.027 31.992 35.933 31.587 35.03C30.478 32.55 30.178 34.2 28.434 32.732C25.628 30.369 25.166 25.443 20.769 24.649C22.178 25.32 23.25 32.221 23.542 33.803C24.648 39.816 19.632 43.348 21.591 49.492C22.032 50.876 23.316 50.062 23.04 52.831C22.897 54.256 21.543 55.015 21.765 56.743C22.388 61.583 28.57 64.097 32.557 65.421C38.263 67.316 45.143 69.512 45.474 77.275C45.539 78.817 44.571 80.436 44.686 81.971C44.839 84 46.176 84.936 46.751 86.78C47.422 88.939 46.461 95.151 49.559 96.218C54.303 97.853 56.126 89.537 56.761 86.511C57.401 83.443 57.287 79.877 56.357 76.593Z" fill="white"/>
</mask>
<g mask="url(#mask0_1_1204)">
<path d="M42.908 27.47C33.047 35.73 20.912 42.008 9.39499 47.65C8.97899 47.854 8.63801 47.334 9.00601 47.042C19.27 38.956 32.12 34.889 42.303 26.526C42.863 26.065 43.453 27.014 42.908 27.47Z" fill="#FBFDB7"/>
<path d="M45.688 31.6549C35.063 42.8009 21.972 51.8729 8.778 59.7199C8.194 60.0659 7.65099 59.2189 8.21199 58.8359C20.914 50.0919 34.382 42.3959 45.209 31.2209C45.498 30.9209 45.978 31.3519 45.688 31.6549Z" fill="#FBFDB7"/>
<path d="M40.684 45.177C34.99 49.004 29.596 53.447 23.548 56.714C23.266 56.866 23.029 56.492 23.281 56.298C28.735 52.126 34.63 48.445 40.454 44.822C40.686 44.677 40.908 45.024 40.684 45.177Z" fill="#FBFDB7"/>
<path d="M50.678 47.75C42.134 54.716 32.561 60.271 24.01 67.211C23.915 67.288 23.782 67.132 23.87 67.048C31.901 59.368 41.719 54.155 50.354 47.247C50.657 47.004 50.971 47.51 50.678 47.75Z" fill="#FBFDB7"/>
<path d="M48.688 63.193C44.444 66.948 39.784 71.063 34.271 72.741C34.055 72.806 33.908 72.499 34.103 72.38C39.013 69.362 43.719 66.447 48.121 62.683C48.486 62.37 49.057 62.865 48.688 63.193Z" fill="#FBFDB7"/>
<path d="M60.919 60.3189C53.685 71.1659 40.369 78.2199 28.991 83.9499C28.765 84.0639 28.577 83.7759 28.78 83.6199C39.307 75.4679 52.769 71.6689 60.607 60.1599C60.733 59.9779 61.043 60.1319 60.919 60.3189Z" fill="#FBFDB7"/>
<path d="M59.797 74.2089C51.609 79.5989 43.287 86.1609 33.834 89.1519C33.662 89.2069 33.53 88.9459 33.695 88.8569C42.504 84.0799 51.025 79.1139 59.518 73.7759C59.799 73.5999 60.074 74.0269 59.797 74.2089Z" fill="#FBFDB7"/>
<path d="M64.323 62.418C59.655 68.04 53.624 72.31 47.298 75.874C47.083 75.995 46.892 75.698 47.091 75.554C52.948 71.307 59.173 67.62 63.955 62.089C64.164 61.845 64.525 62.174 64.323 62.418Z" fill="#FBFDB7"/>
<path d="M26.822 33.311C22.507 36.039 17.904 38.48 13.353 40.794C13.082 40.931 12.851 40.581 13.097 40.395C17.184 37.314 22.125 35.455 26.477 32.772C26.827 32.558 27.171 33.092 26.822 33.311Z" fill="#FBFDB7"/>
</g>
<path d="M96.977 31.64C95.904 25.378 94.918 19.262 93.09 13.137C96.625 20.759 91.579 29.672 88.765 36.565C85.163 45.385 85.238 54.614 78.526 62.34C78.71 62.128 82.454 62.209 83.096 62.042C84.701 61.624 86.215 60.816 87.589 59.902C90.059 58.257 91.053 56.777 92.108 54.133C94.887 47.16 98.291 39.306 96.977 31.64Z" fill="#79B163"/>
<path d="M92.343 12.656C93.848 18.181 95.01 23.365 94.719 29.25C94.406 35.558 93.172 41.968 90.739 47.814C88.757 52.579 85.983 56.455 81.291 58.681C77.535 60.463 74.279 61.63 71.692 65.199C67.431 71.079 64.533 81.636 67.288 88.55C68.137 90.68 70.162 96.397 72.39 97.377C76.063 98.994 82.864 88.555 83.938 85.974C86.56 79.667 83.102 72.161 86.524 65.606C88.039 62.702 91.669 60.27 93.884 57.846C96.848 54.605 100.695 49.366 102.076 45.135C103.598 40.473 101.8 33.318 100.229 28.86C98.101 22.813 96.711 15.428 91.841 10.839C92.011 11.451 92.179 12.055 92.343 12.656Z" fill="#2E5D4B"/>
<path d="M71.369 93.643C71.377 93.615 71.032 93.627 70.435 93.208C70.147 93.01 69.769 92.522 69.779 91.832C69.779 91.16 70.059 90.496 70.418 89.889C73.493 84.782 78.747 83.667 80.069 77.35C80.526 75.166 80.109 72.798 80.604 70.551C80.696 69.938 80.994 69.115 81.241 68.378C81.467 67.626 81.863 66.865 82.278 66.112C83.084 64.603 84.318 63.188 85.684 62.044C87.257 60.807 88.972 59.899 90.481 59.391C92.036 58.814 93.406 58.534 94.699 58.283C97.224 57.844 99.281 57.668 100.92 57.378C101.753 57.244 102.437 57.075 103.075 56.894C103.411 56.803 103.783 56.612 104.141 56.485C104.476 56.327 104.807 56.171 105.133 56.017C106.379 55.364 107.389 54.597 108.224 53.619C109.906 51.653 110.695 48.987 111.26 47.245C111.796 45.457 112.111 44.412 112.111 44.412C112.111 44.412 112.55 45.384 113.129 47.236C113.417 48.165 113.719 49.327 113.921 50.766C114.111 52.201 114.182 53.962 113.716 55.986C113.266 58 112.185 60.223 110.569 62.123C110.165 62.581 109.736 63.042 109.287 63.488C108.818 63.903 108.394 64.333 107.841 64.746C106.72 65.598 105.497 66.327 104.29 66.889C101.863 68.038 99.464 68.726 97.436 69.396C95.415 70.046 93.902 70.752 93.23 71.323C92.665 71.826 92.28 72.289 91.778 73.513C91.269 74.921 90.955 76.332 90.568 78.433C90.35 79.496 90.111 80.765 89.528 82.215C88.934 83.681 87.942 85.061 86.883 86.042C84.717 87.914 82.746 88.513 81.045 89.029C81.197 88.943 81.349 88.856 81.481 88.78C80.667 89.177 80.196 89.275 79.671 89.43C79.168 89.566 78.697 89.68 78.247 89.785C77.371 89.988 76.537 90.182 75.749 90.366C74.223 90.729 72.937 91.091 72.058 91.499C71.186 91.923 70.786 92.248 70.954 92.829C71.112 93.362 71.393 93.639 71.369 93.643Z" fill="#79B163"/>
<path d="M76.305 87.001C77.019 85.894 77.234 84.843 77.994 83.842C78.577 83.074 79.492 80.932 80.349 80.885C80.262 80.711 80.103 80.304 80.193 80.1C80.838 78.636 81.25 76.787 82.063 75.258C82.588 74.272 83.241 73.846 83.429 72.593C83.571 71.663 83.389 70.765 83.591 69.83C83.804 68.846 84.394 68.066 84.774 67.161C85.06 66.483 85.049 65.197 85.409 64.636C85.703 64.179 87.136 64.009 87.669 63.637C88.283 63.209 88.64 62.209 89.189 61.924C90.254 61.372 92.73 61.844 93.945 61.558C95.545 61.182 97.168 60.488 98.7 60.235C99.063 60.175 99.45 60.604 99.888 60.513C100.245 60.44 100.539 59.828 100.907 59.678C101.765 59.327 102.2 59.483 103.076 58.829C103.51 58.506 104.186 57.52 104.634 57.348C105.523 57.007 106.546 57.826 107.333 57.966C107.354 55.244 111.768 52.982 112.935 50.574C112.478 51.27 112.757 51.829 112.621 52.597C112.42 53.733 112.127 54.303 111.433 55.322C109.991 57.44 109.091 60.047 107.317 61.908C106.584 62.678 105.616 63.526 104.647 63.774C103.752 64.003 102.875 63.745 101.926 64.102C101.64 64.21 101.231 63.974 100.954 64.125C100.356 64.451 100.329 65.29 99.766 65.655C99.378 65.906 98.849 65.602 98.527 65.798C98.298 65.936 98.097 66.381 97.855 66.493C97.653 66.586 96.966 66.724 96.834 66.816C96.61 66.97 96.184 67.594 95.951 67.689C95.147 68.021 94.218 67.837 93.43 68.343C92.443 68.976 92.576 69.636 92.071 70.558C91.422 71.75 91.614 71.234 90.549 72.112C88.93 73.447 87.841 75.552 87.666 77.548C87.519 79.229 87.737 80.96 87.329 82.617C86.742 85.003 85.628 83.779 83.956 84.672C81.478 84.992 78.981 86.692 76.305 87.001Z" fill="#2E5D4B"/>
<mask id="mask1_1_1204" style="mask-type:luminance" maskUnits="userSpaceOnUse" x="76" y="50" width="37" height="38">
<path d="M76.305 87.001C77.019 85.894 77.234 84.843 77.994 83.842C78.577 83.074 79.492 80.932 80.349 80.885C80.262 80.711 80.103 80.304 80.193 80.1C80.838 78.636 81.25 76.787 82.063 75.258C82.588 74.272 83.241 73.846 83.429 72.593C83.571 71.663 83.389 70.765 83.591 69.83C83.804 68.846 84.394 68.066 84.774 67.161C85.06 66.483 85.049 65.197 85.409 64.636C85.703 64.179 87.136 64.009 87.669 63.637C88.283 63.209 88.64 62.209 89.189 61.924C90.254 61.372 92.73 61.844 93.945 61.558C95.545 61.182 97.168 60.488 98.7 60.235C99.063 60.175 99.45 60.604 99.888 60.513C100.245 60.44 100.539 59.828 100.907 59.678C101.765 59.327 102.2 59.483 103.076 58.829C103.51 58.506 104.186 57.52 104.634 57.348C105.523 57.007 106.546 57.826 107.333 57.966C107.354 55.244 111.768 52.982 112.935 50.574C112.478 51.27 112.757 51.829 112.621 52.597C112.42 53.733 112.127 54.303 111.433 55.322C109.991 57.44 109.091 60.047 107.317 61.908C106.584 62.678 105.616 63.526 104.647 63.774C103.752 64.003 102.875 63.745 101.926 64.102C101.64 64.21 101.231 63.974 100.954 64.125C100.356 64.451 100.329 65.29 99.766 65.655C99.378 65.906 98.849 65.602 98.527 65.798C98.298 65.936 98.097 66.381 97.855 66.493C97.653 66.586 96.966 66.724 96.834 66.816C96.61 66.97 96.184 67.594 95.951 67.689C95.147 68.021 94.218 67.837 93.43 68.343C92.443 68.976 92.576 69.636 92.071 70.558C91.422 71.75 91.614 71.234 90.549 72.112C88.93 73.447 87.841 75.552 87.666 77.548C87.519 79.229 87.737 80.96 87.329 82.617C86.742 85.003 85.628 83.779 83.956 84.672C81.478 84.992 78.981 86.692 76.305 87.001Z" fill="white"/>
</mask>
<g mask="url(#mask1_1_1204)">
<path d="M92.273 50.333C98.009 57.02 105.505 62.623 112.652 67.728C112.911 67.912 113.199 67.599 112.983 67.361C106.956 60.746 98.728 56.556 92.788 49.763C92.461 49.389 91.956 49.963 92.273 50.333Z" fill="#FBFDB7"/>
<path d="M89.925 52.849C95.854 61.572 103.682 69.17 111.717 75.952C112.071 76.251 112.533 75.74 112.197 75.418C104.596 68.086 96.359 61.3739 90.298 52.6099C90.136 52.3739 89.763 52.611 89.925 52.849Z" fill="#FBFDB7"/>
<path d="M91.791 62.547C95.209 65.771 98.354 69.378 102.074 72.264C102.247 72.398 102.45 72.172 102.301 72.013C99.084 68.583 95.514 65.434 91.986 62.332C91.845 62.208 91.656 62.418 91.791 62.547Z" fill="#FBFDB7"/>
<path d="M84.75 63.163C89.741 68.828 95.586 73.656 100.585 79.304C100.64 79.367 100.747 79.276 100.697 79.21C96.132 73.12 90.083 68.496 85.023 62.86C84.847 62.663 84.578 62.968 84.75 63.163Z" fill="#FBFDB7"/>
<path d="M84.362 73.8211C86.807 76.8341 89.494 80.1371 93.031 81.8901C93.17 81.9581 93.303 81.768 93.185 81.665C90.207 79.075 87.352 76.577 84.801 73.54C84.59 73.288 84.149 73.5591 84.362 73.8211Z" fill="#FBFDB7"/>
<path d="M76.42 70.507C80.091 78.648 88.296 84.907 95.341 90.055C95.481 90.157 95.64 89.984 95.522 89.856C89.323 83.168 80.653 79.09 76.649 70.435C76.584 70.297 76.355 70.367 76.42 70.507Z" fill="#FBFDB7"/>
<path d="M75.62 80.018C80.547 84.578 85.434 89.945 91.484 93.027C91.594 93.084 91.714 92.922 91.611 92.842C86.196 88.627 80.995 84.315 75.856 79.756C75.686 79.605 75.453 79.864 75.62 80.018Z" fill="#FBFDB7"/>
<path d="M73.884 71.543C76.406 75.865 80.002 79.427 83.879 82.544C84.01 82.649 84.172 82.47 84.054 82.351C80.574 78.824 76.78 75.635 74.17 71.361C74.056 71.174 73.774 71.356 73.884 71.543Z" fill="#FBFDB7"/>
<path d="M102.486 56.084C105.096 58.412 107.932 60.578 110.747 62.651C110.916 62.774 111.11 62.563 110.965 62.41C108.549 59.87 105.419 58.059 102.781 55.76C102.567 55.575 102.276 55.897 102.486 56.084Z" fill="#FBFDB7"/>
</g>
<path d="M65.598 101.452C65.598 89.229 70.181 87.702 74.765 78.025C79.858 66.821 66.107 64.275 67.125 54.089C68.144 43.395 79.348 41.358 74.765 28.116C72.218 20.986 66.107 12.838 62.033 6.21802C57.96 12.839 51.848 20.986 49.302 28.116C44.719 41.357 55.923 43.394 56.942 54.089C57.961 64.275 44.21 66.821 49.302 78.025C53.886 87.701 58.469 89.229 58.469 101.452H65.598Z" fill="#2E5D4B"/>
<mask id="mask2_1_1204" style="mask-type:luminance" maskUnits="userSpaceOnUse" x="48" y="6" width="28" height="96">
<path d="M65.598 101.452C65.598 89.229 70.181 87.702 74.765 78.025C79.858 66.821 66.107 64.275 67.125 54.089C68.144 43.395 79.348 41.358 74.765 28.116C72.218 20.986 66.107 12.838 62.033 6.21802C57.96 12.839 51.848 20.986 49.302 28.116C44.719 41.357 55.923 43.394 56.942 54.089C57.961 64.275 44.21 66.821 49.302 78.025C53.886 87.701 58.469 89.229 58.469 101.452H65.598Z" fill="white"/>
</mask>
<g mask="url(#mask2_1_1204)">
<path d="M41.662 23.875C49.519 24.9 57.349 24.7521 65.241 24.2771C72.506 23.8401 79.935 23.6171 87.133 22.5321C87.802 22.4311 87.535 21.5311 86.987 21.4581C79.835 20.4971 72.398 21.599 65.241 22.154C57.384 22.763 49.506 23.095 41.662 22.172C40.567 22.043 40.594 23.736 41.662 23.875Z" fill="#FBFDB7"/>
<path d="M41.531 29.61C58.812 33.861 77.393 34.8001 95.135 34.0061C96.162 33.9601 96.162 32.458 95.135 32.412C77.275 31.61 59.368 32.7871 41.793 28.6601C41.176 28.5161 40.914 29.458 41.531 29.61Z" fill="#FBFDB7"/>
<path d="M54.903 39.6411C62.831 39.8591 70.922 40.9871 78.839 40.2051C79.323 40.1571 79.319 39.5071 78.839 39.4551C70.941 38.6021 62.832 38.8551 54.903 39.0001C54.49 39.0081 54.491 39.6301 54.903 39.6411Z" fill="#FBFDB7"/>
<path d="M46.755 48.4311C59.452 49.9131 72.25 49.4151 84.95 50.6881C85.135 50.7061 85.174 50.4031 84.994 50.3661C72.354 47.7141 59.522 48.8581 46.755 47.5251C46.172 47.4641 46.184 48.3641 46.755 48.4311Z" fill="#FBFDB7"/>
<path d="M58.314 62.2861C64.755 63.3081 72.069 64.5901 78.41 62.5321C78.736 62.4261 78.68 61.9411 78.329 61.9331C71.68 61.7911 65.257 62.0741 58.621 61.1711C57.898 61.0731 57.573 62.1681 58.314 62.2861Z" fill="#FBFDB7"/>
<path d="M44.584 67.0511C51.051 69.8961 57.758 70.8581 64.769 71.1311C73.149 71.4571 82.24 71.2821 90.552 70.1741C90.931 70.1231 90.936 69.6261 90.552 69.5801C83.771 68.7701 76.564 69.9171 69.745 70.0711C61.339 70.2601 52.688 69.9221 44.852 66.5921C44.542 66.4601 44.27 66.9121 44.584 67.0511Z" fill="#FBFDB7"/>
<path d="M54.394 79.943C65.657 80.122 78.146 81.564 89.091 78.266C89.356 78.186 89.314 77.763 89.025 77.775C77.461 78.272 65.993 79.027 54.394 79.162C53.89 79.168 53.89 79.935 54.394 79.943Z" fill="#FBFDB7"/>
<path d="M42.581 71.257C50.635 73.85 59.236 74.357 67.635 73.731C68.007 73.703 68.007 73.1811 67.635 73.1531C59.274 72.5221 50.917 72.9221 42.781 70.5341C42.313 70.3971 42.123 71.11 42.581 71.257Z" fill="#FBFDB7"/>
<path d="M61.014 19.434C66.905 19.411 72.994 19.0311 78.839 18.2901C79.297 18.2321 79.306 17.6201 78.839 17.5711C72.959 16.9601 66.912 18.353 61.014 18.464C60.39 18.477 60.389 19.436 61.014 19.434Z" fill="#FBFDB7"/>
</g>
<path d="M68.376 56.924C66.204 48.66 76.128 43.391 76.897 35.738C77.577 28.97 74.279 22.622 70.794 17.069C67.725 12.177 62.078 6.73001 61.541 0.695007C60.011 7.39801 56.869 11.212 53.176 17.028C49.815 22.323 46.761 28.221 46.812 34.655C46.879 43.162 56.811 47.916 55.366 56.836C54.236 63.807 46.119 66.762 46.768 74.589C47.103 78.626 49.901 82.498 52.008 85.799C55.241 90.866 56.84 95.346 56.952 101.452C56.967 102.279 57.629 102.966 58.467 102.967C60.86 102.969 63.218 101.989 65.597 101.989C65.806 101.989 65.943 101.886 66.027 101.75C66.086 101.67 66.131 101.576 66.135 101.452C66.31 95.664 67.969 91.311 71.039 86.52C73.371 82.882 76.019 79.193 76.87 74.881C78.322 67.523 70.058 63.328 68.376 56.924ZM72.468 77.254C72.725 77.859 73.076 78.459 72.995 79.049C72.785 80.573 72.202 80.028 71.441 81.067C70.734 82.032 70.667 82.796 70.18 83.626C66.909 89.206 65.167 94.275 65.07 100.889C63.358 100.792 61.655 100.278 59.941 100.048C59.665 93.26 56.698 89.437 53.683 83.721C52.673 81.808 51.168 79.472 50.892 77.283C50.857 77.007 51.544 73.249 52.068 74.421C50.18 70.19 50.143 65.66 55.628 65.508C55.499 63.922 55.913 61.76 56.883 60.447C58.446 58.333 59.278 59.042 58.469 55.844C58.01 54.028 57.895 51.729 57.143 49.943C56.046 47.336 53.376 45.688 52.04 43.393C50.942 41.505 52.452 40.05 51.604 37.983C51.197 36.987 50.409 37 50.064 35.766C49.753 34.649 50.002 32.836 50.064 31.68C50.249 28.295 51.788 27.262 53.629 24.626C55.278 22.267 55.638 19.096 56.735 16.504C57.734 14.142 59.793 13.629 60.946 11.574C64.412 5.406 64.679 17.797 66.361 19.729C67.455 20.984 69.169 20.944 70.191 22.316C70.961 23.348 71.519 25.623 71.905 26.835C72.337 28.194 72.005 29.942 72.466 31.176C72.878 32.281 73.793 32.552 74.196 33.972C75.124 37.228 72.753 39.186 71.199 41.095C70.189 42.336 70.361 42.672 69.926 44.22C69.3 46.442 69.701 45.365 68.1 46.753C66.403 48.224 66.088 47.882 65.852 50.336C65.743 51.471 66.102 52.78 65.864 53.889C65.546 55.371 64.681 55.653 64.872 57.398C65.022 58.777 65.959 60.6 66.177 61.999C66.4 63.427 66.059 63.932 67.559 65.297C69.171 66.761 70.729 67.177 71.653 69.365C72.167 70.581 73.007 72.453 73.001 73.694C72.998 74.422 72.24 75.238 72.22 76.24C72.212 76.581 72.325 76.918 72.468 77.254Z" fill="#79B163"/>
<path d="M27.14 68.978C25.101 66.891 23.233 66.916 20.196 65.734C12.456 62.722 5.02001 52.988 1.50601 45.799C1.78001 46.36 1.118 48.754 1.199 49.58C1.361 51.257 1.98001 53.181 2.86801 54.619C4.19601 56.77 6.40799 58.703 8.08499 60.635C10.155 63.019 12.928 64.856 15.381 66.813C18.862 69.592 21.363 72.593 25.784 73.697C29.741 74.685 30.936 74.001 28.252 70.31C27.87 69.786 27.502 69.349 27.14 68.978Z" fill="#79B163"/>
<path d="M54.408 85.293C48.103 85.495 42.009 79.837 38.165 75.399C35.262 72.047 31.955 69.802 27.572 68.93C23.389 68.098 18.306 68.838 14.645 66.245C8.25797 61.722 3.10398 51.062 1.34398 43.745C-1.28402 48.24 0.528977 58.564 2.25298 63.22C4.62398 69.622 12.802 73.447 19.097 74.253C22.603 74.702 26.513 74.118 29.743 75.779C32.352 77.121 34.257 80.487 36.144 82.631C40.357 87.411 47.963 92.321 54.408 92.742C59.184 93.052 59.236 85.139 54.408 85.293Z" fill="#2E5D4B"/>
<mask id="mask3_1_1204" style="mask-type:luminance" maskUnits="userSpaceOnUse" x="21" y="89" width="83" height="85">
<path d="M82.863 89.738L62.816 91.743L42.769 89.738C41.242 90.247 -4.084 101.451 43.279 173.767H54.853H70.779H82.353C129.716 101.452 84.391 90.248 82.863 89.738Z" fill="white"/>
</mask>
<g mask="url(#mask3_1_1204)">
<path d="M82.863 89.738L62.816 91.743L42.769 89.738C41.242 90.247 -4.084 101.451 43.279 173.767H54.853H70.779H82.353C129.716 101.452 84.391 90.248 82.863 89.738Z" fill="#6D464B"/>
</g>
<mask id="mask4_1_1204" style="mask-type:luminance" maskUnits="userSpaceOnUse" x="21" y="89" width="83" height="85">
<path d="M82.863 89.738L62.816 91.743L42.769 89.738C41.242 90.247 -4.084 101.451 43.279 173.767H54.853H70.779H82.353C129.716 101.452 84.391 90.248 82.863 89.738Z" fill="white"/>
</mask>
<g mask="url(#mask4_1_1204)">
<path d="M50.631 83.939C27.341 112.13 36.86 152.805 50.984 182.931C51.531 184.098 53.255 183.081 52.711 181.921C39.014 152.707 29.408 112.753 52.045 85.353C52.859 84.367 51.453 82.943 50.631 83.939Z" fill="#AD796B"/>
<path d="M56.586 89.743C52.718 97.26 51.57 105.612 50.97 113.948C50.298 123.282 50.085 132.762 50.053 142.119C49.988 160.961 53.611 179.399 65.243 194.643C66.014 195.654 67.753 194.66 66.97 193.633C55.462 178.553 52.152 160.712 52.053 142.118C52.009 133.794 52.422 125.421 52.791 117.106C53.189 108.127 54.145 98.852 58.313 90.752C58.901 89.607 57.176 88.596 56.586 89.743Z" fill="#AD796B"/>
<path d="M64.634 93.06C68.407 109.584 70.593 125.942 68.928 142.885C67.26 159.857 63.222 176.51 63.07 193.629C63.058 194.919 65.058 194.918 65.07 193.629C65.228 175.902 69.386 158.572 71.114 140.987C72.724 124.61 70.203 108.465 66.562 92.5281C66.274 91.2711 64.347 91.804 64.634 93.06Z" fill="#AD796B"/>
<path d="M74.058 89.936C85.244 98.794 86.462 117.685 86.647 130.854C86.914 149.93 82.446 168.632 75.329 186.234C74.845 187.43 76.78 187.945 77.257 186.765C84.959 167.72 89.138 147.799 88.572 127.216C88.222 114.506 86.132 96.962 75.472 88.521C74.473 87.73 73.047 89.136 74.058 89.936Z" fill="#AD796B"/>
</g>
<path d="M91.046 90.031C91.174 90.422 91.181 90.864 91.042 91.366C90.406 93.682 85.356 92.928 82.237 93.059C77.046 93.277 72.015 92.75 66.837 92.75C61.764 92.75 56.691 92.75 51.617 92.75C49.588 92.75 47.553 92.73 45.523 92.75C43.144 92.774 40.3 93.444 38.066 93.05C33.889 92.312 33.247 89.145 36.785 87.864C40.837 86.397 49.529 87.199 54.235 87.199C62.921 87.199 71.608 87.18 80.294 87.199C84.759 87.208 90.25 87.6 91.046 90.031Z" fill="#6D464B"/>
<path d="M86.497 174.06C86.603 174.45 86.61 174.892 86.493 175.395C85.96 177.71 81.724 176.956 79.108 177.087C74.753 177.305 70.533 176.778 66.189 176.778C61.933 176.778 57.676 176.778 53.421 176.778C51.718 176.778 50.011 176.758 48.309 176.778C46.315 176.802 43.928 177.472 42.053 177.078C38.55 176.34 38.011 173.173 40.979 171.892C44.377 170.425 51.669 171.227 55.618 171.227C62.905 171.227 70.192 171.206 77.477 171.227C81.223 171.237 85.83 171.629 86.497 174.06Z" fill="#6D464B"/>
</svg>
