<svg width="180" height="246" viewBox="0 0 180 246" fill="none" xmlns="http://www.w3.org/2000/svg">
<path d="M77.291 245.732C105.511 245.732 128.388 242.549 128.388 238.623C128.388 234.697 105.511 231.514 77.291 231.514C49.0709 231.514 26.194 234.697 26.194 238.623C26.194 242.549 49.0709 245.732 77.291 245.732Z" fill="#D1D3D4"/>
<path d="M117.866 12.238C106.902 72.328 112.342 135.149 92.5769 193.217C90.8629 198.251 88.738 204.203 83.911 207.188C76.679 195.844 82.4039 178.79 83.0629 166.409C83.9929 148.948 85.9139 131.534 88.7959 114.263C94.6099 79.416 104.352 45.147 117.866 12.238Z" fill="#34522D"/>
<path d="M23.9869 0.712036C38.5769 15.251 45.2199 35.12 50.9849 54.355C58.9569 80.956 66.1049 107.827 70.8569 135.117C73.2239 148.711 75.0049 162.403 75.9689 176.15C76.5819 184.896 80.5509 203.188 74.8239 210.443C66.8019 204.569 65.1809 186.16 62.9449 177.397C57.9439 157.794 53.1589 138.143 48.5919 118.446C39.5289 79.366 31.3259 40.11 23.9869 0.712036Z" fill="#446B3B"/>
<path d="M69.011 8.62604C70.784 44.619 72.557 80.611 74.33 116.603C75.208 134.437 76.087 152.271 76.965 170.105C77.518 181.328 84.094 207.879 75.948 216.813C68.22 209.057 69.859 186.255 68.589 176.136C66.216 157.238 63.691 138.351 61.994 119.386C60.318 100.654 59.403 81.824 60.315 63.032C60.759 53.875 61.622 44.733 63.036 35.662C64.319 27.429 69.41 16.72 69.011 8.62604Z" fill="#34522D"/>
<path d="M93.566 166.291C104.184 124.861 117.475 84.036 133.343 44.115C127.271 75.216 119.747 106.05 111.596 136.723C107.56 151.912 103.365 167.063 99.114 182.201C96.389 191.905 95.0649 210.189 87.4529 217.397C80.1269 205.503 90.487 178.305 93.566 166.291Z" fill="#446B3B"/>
<path d="M84.496 60.2681C84.462 111.135 82.9279 162.001 79.8959 212.788C79.8529 213.509 76.4899 209.501 76.3049 208.941C75.5249 206.566 78.1529 205.924 78.2179 204.14C78.4509 197.736 77.833 191.211 77.532 184.737C76.893 170.987 76.7189 157.218 77.0119 143.457C77.6029 115.616 80.1 87.8101 84.496 60.2681Z" fill="#446B3B"/>
<path d="M35.3669 106.147C26.1759 89.4 15.3359 73.097 0.317932 60.61C7.13393 66.277 12.0289 78.74 16.3179 86.251C21.3049 94.984 25.9419 103.894 30.2169 112.955C39.0169 131.609 46.2889 150.902 51.9289 170.606C53.9779 177.765 59.0319 221.651 72.368 212.018C78.68 207.459 75.3319 200.115 72.6359 195.104C68.5679 187.544 65.6939 181.013 63.2299 172.748C56.372 149.741 47.0229 127.385 35.3669 106.147Z" fill="#34522D"/>
<path d="M85.9449 204.535C91.5469 180.542 98.0439 156.013 113.18 135.984C128.315 115.955 154.132 101.197 179.945 105.09C155.281 107.086 134.148 123.874 121.765 144.015C109.383 164.156 104.332 187.438 99.8769 210.317C99.5169 212.167 99.1279 214.088 97.9499 215.609C94.0459 220.651 84.5429 217.003 82.7179 211.008C80.8929 205.013 83.9569 198.765 86.9399 193.195L85.9449 204.535Z" fill="#34522D"/>
<path d="M177.596 104.353C168.036 104.549 158.811 107.096 150.298 111.275C141.772 115.46 134.063 121.174 127.378 127.795C120.35 134.757 114.505 142.746 109.756 151.332C104.555 160.735 100.622 170.764 97.5359 181C95.9729 186.184 94.6359 191.429 93.4519 196.708C92.2679 201.986 91.1459 207.311 90.4049 212.667C90.2269 213.953 90.0259 215.234 89.8559 216.521C89.7849 217.06 90.7119 217.176 90.8289 216.649C93.1569 206.222 95.1879 195.747 98.0889 185.447C100.949 175.295 104.55 165.308 109.367 155.871C113.82 147.147 119.297 138.939 126.037 131.723C132.39 124.921 139.752 118.982 147.976 114.444C156.033 109.998 164.939 106.993 174.11 105.719C175.268 105.558 176.43 105.433 177.595 105.334C178.231 105.28 178.254 104.339 177.596 104.353Z" fill="#376F7D"/>
<path d="M117.432 12.4871C113.597 25.9481 110.322 39.5531 107.38 53.2251C104.437 66.9021 101.857 80.6501 99.456 94.4261C97.05 108.233 94.764 122.057 92.568 135.897C90.323 150.046 88.053 164.191 85.873 178.349C84.402 187.907 82.882 197.486 81.646 207.09C81.155 189.475 80.761 171.869 80.879 154.243C81.008 134.951 81.595 115.663 82.608 96.3971C83.177 85.5831 84.049 74.7921 84.705 63.9851C84.737 63.4651 83.933 63.4801 83.883 63.9851C82.918 73.6791 82.377 83.4311 81.815 93.1541C81.259 102.786 80.818 112.423 80.495 122.064C79.849 141.346 79.654 160.643 79.91 179.933C80.054 190.757 80.278 201.591 80.829 212.403C80.835 212.532 80.886 212.631 80.958 212.705C80.655 215.327 80.377 217.951 80.132 220.577C79.968 222.332 79.809 224.087 79.649 225.842C79.568 226.723 80.934 226.69 81.043 225.842C82.851 211.688 84.796 197.545 86.938 183.436C89.078 169.338 91.343 155.259 93.561 141.172C95.736 127.359 97.818 113.532 100.047 99.7271C102.267 85.9791 104.646 72.2541 107.378 58.5931C110.121 44.8791 113.243 31.2381 116.903 17.7281C117.356 16.0561 117.818 14.3861 118.287 12.7181C118.44 12.1791 117.585 11.9501 117.432 12.4871Z" fill="#376F7D"/>
<path d="M132.651 46.173C128.173 56.127 124.435 66.397 121.397 76.854C118.269 87.62 116.138 98.607 113.584 109.507C111.127 119.995 107.948 130.281 104.443 140.478C100.98 150.554 97.2719 160.55 93.9109 170.659C90.5619 180.732 87.5719 190.923 85.6309 201.351C85.3889 202.651 85.1689 203.952 84.9739 205.259C84.8869 205.843 85.7909 206.109 85.9019 205.508C87.8159 195.127 90.5009 184.93 93.7179 174.862C96.9439 164.766 100.611 154.811 104.107 144.802C107.633 134.708 110.983 124.548 113.539 114.175C116.216 103.31 118.19 92.29 121.089 81.475C123.911 70.946 127.456 60.601 131.69 50.532C132.245 49.213 132.793 47.893 133.364 46.58C133.569 46.11 132.865 45.697 132.651 46.173Z" fill="#51A3B8"/>
<path d="M77.7199 238.971C74.2309 209.354 71.343 179.669 69.627 149.901C67.911 120.135 67.2499 90.3021 67.6749 60.4931C67.9129 43.7801 68.499 27.0751 69.385 10.3831C69.415 9.82606 68.529 9.82906 68.497 10.3831C66.793 40.1481 66.1869 69.9841 66.6239 99.7931C67.0619 129.601 68.541 159.4 71.113 189.106C72.556 205.771 74.348 222.396 76.63 238.972C76.722 239.633 77.8009 239.655 77.7199 238.971Z" fill="#376F7D"/>
<path d="M65.8749 171.236C63.9299 157.278 61.6709 143.355 59.0439 129.503C56.4289 115.716 53.5489 101.976 50.3509 88.305C47.1379 74.567 43.6019 60.903 39.7629 47.318C35.9239 33.733 31.7939 20.224 27.3499 6.81503C26.7969 5.14703 26.2379 3.48002 25.6679 1.81702C25.4879 1.29002 24.6319 1.51203 24.8079 2.04803C29.1859 15.408 33.3919 28.815 37.2259 42.334C41.0589 55.851 44.5809 69.452 47.8149 83.117C51.0499 96.784 53.9789 110.517 56.5879 124.31C59.1969 138.103 61.4909 151.953 63.5129 165.838C65.5459 179.796 67.0779 193.795 68.6989 207.801C68.9009 209.545 69.0889 211.29 69.2719 213.036C69.3599 213.88 70.7179 213.901 70.6449 213.036C69.4749 199.06 67.8119 185.131 65.8749 171.236Z" fill="#51A3B8"/>
<path d="M68.9199 217.096C68.1349 211.561 67.2049 206.082 66.0619 200.605C64.9229 195.147 63.6519 189.715 62.2509 184.315C59.4489 173.514 56.1209 162.843 52.2929 152.345C48.4739 141.872 44.1389 131.585 39.3239 121.509C34.4999 111.414 29.1369 101.555 23.3749 91.94C17.6089 82.319 11.3879 72.954 4.72791 63.897C3.91491 62.792 3.09491 61.693 2.26691 60.599C1.93091 60.155 1.15792 60.582 1.49592 61.038C8.17392 70.029 14.4669 79.279 20.2729 88.8291C26.0789 98.378 31.4049 108.201 36.2479 118.246C41.1239 128.359 45.5509 138.671 49.4909 149.164C53.3879 159.541 56.7919 170.093 59.6969 180.774C61.1619 186.158 62.4969 191.575 63.7009 197.02C64.9049 202.467 65.8689 207.952 66.9619 213.42C67.2279 214.751 67.5029 216.077 67.7379 217.414C67.8729 218.178 69.0249 217.84 68.9199 217.096Z" fill="#376F7D"/>
<path d="M111.16 188.936C110.705 187.252 109.761 185.828 108.704 184.651C107.653 183.48 106.466 182.469 105.233 181.611C102.867 179.965 99.8929 178.625 97.1729 179.665C96.7959 179.809 96.432 180.001 96.084 180.229C94.253 177.506 90.6239 176.938 88.2999 179.018C86.8199 177.521 84.6679 176.973 82.8599 177.783C81.2179 178.519 79.9589 180.16 79.4059 182.145C78.7759 181.858 78.0719 181.846 77.4269 182.116C76.7409 181.233 75.6779 180.801 74.6949 180.895C73.8899 180.973 73.1229 181.328 72.5409 181.945C70.0259 177.968 65.3329 176.49 61.4609 178.058C60.4299 178.475 59.478 179.096 58.661 179.958C57.795 179.36 56.7899 179.192 55.7909 179.49C54.8409 179.773 54.0099 180.468 53.5009 181.461C52.0899 180.733 50.4939 180.916 49.0869 181.681C47.4029 182.597 46.1869 184.399 45.2999 186.333C45.0199 186.943 44.7679 187.571 44.5289 188.206C44.4429 188.171 44.3549 188.147 44.2679 188.147C43.7349 188.147 43.4119 188.661 43.3609 189.263C43.2109 191.039 43.9049 192.763 44.9469 193.954C46.1089 195.282 47.5849 195.889 49.1339 196.13C50.7659 196.384 52.4309 196.241 54.0699 196.204C55.7809 196.164 57.4919 196.133 59.2029 196.109C66.1349 196.013 73.0689 196.047 79.9999 196.211C86.9529 196.375 93.905 196.67 100.851 197.096C103.264 197.244 105.805 197.426 108.091 196.268C109.164 195.725 110.134 194.902 110.748 193.664C111.442 192.262 111.579 190.488 111.16 188.936Z" fill="#3D3723"/>
<path d="M73.7679 183.578C73.8619 183.504 73.8119 183.537 73.7679 183.578Z" fill="#3D3723"/>
<path d="M41.0089 191.398H113.572V203.444C113.572 224.628 109.399 241.801 88.2149 241.801H65.2679C48.5559 241.801 41.0089 228.253 41.0089 211.542V191.398Z" fill="#A16547"/>
<path d="M50.7659 228.23C51.6239 230.085 52.8509 231.747 54.6019 233.082C61.9169 238.662 76.6649 239.999 85.3819 237.224C86.0849 235.956 85.6059 234.674 84.0779 234.233C82.4779 233.771 80.7019 234.121 78.9959 234.221C70.9379 234.694 64.2879 229.543 59.8999 224.368C54.7469 218.291 53.0619 208.212 47.1589 203.233C50.9019 206.391 46.7099 219.463 50.7659 228.23Z" fill="#B57250"/>
</svg>
