<svg width="146" height="220" viewBox="0 0 146 220" fill="none" xmlns="http://www.w3.org/2000/svg">
<path d="M30.942 75.669C38.878 60.648 50.721 48.271 61.124 34.986C62.059 33.793 66.057 29.796 65.056 28.383C65.457 28.949 65.858 29.515 66.258 30.082C68.117 32.708 69.977 35.335 71.836 37.962C80.253 49.852 88.67 61.742 97.086 73.632C97.548 74.284 98.633 73.661 98.166 73.001C87.471 57.893 76.776 42.784 66.082 27.676C65.798 27.276 65.286 27.276 65.002 27.676C53.628 43.713 39.113 57.531 29.862 75.038C29.486 75.75 30.565 76.382 30.942 75.669Z" fill="#3D5363"/>
<path d="M64.49 32.452C64.709 32.471 64.94 32.474 65.18 32.461C66.002 32.416 66.701 32.167 67.259 31.79C70.963 29.285 67.434 24.021 63.623 26.187C60.421 28.008 61.025 32.151 64.49 32.452Z" fill="#3D5363"/>
<path d="M64.407 29.519C63.948 44.123 64.874 58.714 64.917 73.316C64.919 74.122 66.169 74.122 66.167 73.316C66.124 58.713 65.198 44.123 65.657 29.519C65.683 28.712 64.433 28.715 64.407 29.519Z" fill="#3D5363"/>
<path d="M94.63 73.741C93.426 73.773 92.187 73.962 91.508 73.951C88.086 73.899 84.664 73.816 81.242 73.818C75.884 73.822 70.527 73.833 65.167 73.878C58.54 73.932 51.914 74.012 45.287 74.129C42.046 74.187 38.805 74.253 35.562 74.329C34.029 74.366 32.173 73.897 30.707 74.496C28.612 75.349 29.293 77.296 29.473 79.184C29.938 84.089 31.3 88.903 33.36 93.374C39.466 106.629 54.148 116.09 68.897 114.903C89.744 113.225 94.813 93.18 97.836 75.833C98.155 73.995 96.43 73.693 94.63 73.741Z" fill="#FA91A3"/>
<mask id="mask0_1_750" style="mask-type:luminance" maskUnits="userSpaceOnUse" x="29" y="73" width="69" height="43">
<path d="M94.63 73.741C93.426 73.773 92.187 73.962 91.508 73.951C88.086 73.899 84.664 73.816 81.242 73.818C75.884 73.822 70.527 73.833 65.167 73.878C58.54 73.932 51.914 74.012 45.287 74.129C42.046 74.187 38.805 74.253 35.562 74.329C34.029 74.366 32.173 73.897 30.707 74.496C28.612 75.349 29.293 77.296 29.473 79.184C29.938 84.089 31.3 88.903 33.36 93.374C39.466 106.629 54.148 116.09 68.897 114.903C89.744 113.225 94.813 93.18 97.836 75.833C98.155 73.995 96.43 73.693 94.63 73.741Z" fill="white"/>
</mask>
<g mask="url(#mask0_1_750)">
<path d="M26.877 80.74C40.457 81.092 54.004 82.293 67.597 82.164C81.602 82.031 95.439 79.347 109.439 79.028C110.244 79.009 110.246 77.759 109.439 77.778C96.085 78.082 82.884 80.391 69.54 80.873C55.322 81.386 41.083 79.858 26.878 79.49C26.07 79.469 26.072 80.719 26.877 80.74Z" fill="#3D5363"/>
<path d="M19.102 84.642C45.774 86.14 72.418 83.377 99.095 83.891C99.902 83.907 99.9 82.657 99.095 82.641C72.417 82.128 45.774 84.89 19.102 83.392C18.297 83.347 18.301 84.597 19.102 84.642Z" fill="#3D5363"/>
<path d="M28.779 89.225C55.451 90.723 82.094 87.961 108.772 88.474C109.579 88.49 109.577 87.24 108.772 87.224C82.094 86.711 55.451 89.473 28.779 87.975C27.974 87.93 27.977 89.18 28.779 89.225Z" fill="#3D5363"/>
</g>
<path d="M85.235 70.841C91.775 67.01 98.346 66.649 102.517 73.683C104.74 77.43 105.363 82.167 106.002 86.401C107.239 94.591 108.529 101.418 115.109 107.045C118.12 109.621 121.899 110.88 125.346 112.725C131.154 115.834 131.113 121.595 129.521 127.148C127.51 134.158 127.087 138.848 133.789 143.232C134.466 143.675 135.092 142.592 134.42 142.153C128.368 138.193 128.866 133.636 130.726 127.48C131.774 124.012 132.217 120.721 131.14 117.213C130.088 113.791 126.708 111.95 123.723 110.493C118.4 107.895 113.883 105.313 110.7 100.053C106.098 92.453 107.678 82.232 104.127 74.097C100.308 65.351 91.947 65.46 84.604 69.762C83.909 70.169 84.538 71.249 85.235 70.841Z" fill="#85B35D"/>
<path d="M108.164 90.043C111.049 85.156 115.789 88.152 117.207 92.44C117.459 93.202 118.666 92.876 118.412 92.108C117.574 89.572 115.983 87.404 113.456 86.388C110.759 85.303 108.386 87.208 107.084 89.412C106.674 90.108 107.754 90.736 108.164 90.043Z" fill="#85B35D"/>
<path d="M121.438 86.687C117.683 85.886 116.767 89.017 117.171 92.077C115.947 91.708 114.678 91.64 113.629 92.114C111.936 92.879 110.484 94.915 111.738 96.684C113.14 98.659 115.686 99.382 117.935 99.865C119.33 100.164 127.576 102.998 126.752 99.143C125.988 95.559 126.071 87.675 121.438 86.687Z" fill="#517850"/>
<path d="M118.265 92.943C119.304 93.909 120.214 94.99 121.155 96.048C122.072 97.077 122.928 98.294 124.113 99.026C124.323 99.157 124.61 98.912 124.473 98.687C123.066 96.362 120.471 94.489 118.37 92.816C118.295 92.757 118.196 92.88 118.265 92.943Z" fill="#A6C181"/>
<path d="M110.113 100.105C107.472 100.362 105.153 101.564 104.669 104.369C104.206 107.052 105.826 109.733 107.707 111.486C108.297 112.035 109.183 111.153 108.592 110.602C105.346 107.579 104.429 101.908 110.113 101.355C110.908 101.278 110.916 100.027 110.113 100.105Z" fill="#85B35D"/>
<path d="M101.556 111.991C102.405 108.247 105.63 108.73 108.239 110.381C108.418 109.116 108.889 107.934 109.76 107.182C111.164 105.966 113.622 105.503 114.701 107.384C115.905 109.486 115.493 112.099 114.988 114.343C114.673 115.735 113.784 124.409 110.631 122.043C107.698 119.846 100.508 116.613 101.556 111.991Z" fill="#224136"/>
<path d="M108.566 111.737C109.006 113.086 109.605 114.365 110.171 115.664C110.721 116.928 111.465 118.216 111.632 119.599C111.664 119.844 111.321 120.002 111.173 119.784C109.653 117.531 109.042 114.389 108.405 111.78C108.384 111.687 108.537 111.65 108.566 111.737Z" fill="#A6C181"/>
<path d="M96.726 67.139C96.025 61.417 101.654 60.926 105.433 63.539C106.098 63.999 106.722 62.915 106.064 62.46C103.905 60.967 101.188 60.164 98.617 60.986C95.937 61.842 95.167 64.615 95.476 67.139C95.572 67.929 96.823 67.938 96.726 67.139Z" fill="#85B35D"/>
<path d="M105.253 56.357C101.778 57.992 102.945 61.039 105.121 63.23C103.923 63.676 102.871 64.392 102.324 65.403C101.438 67.037 101.515 69.537 103.586 70.185C105.898 70.908 108.361 69.942 110.444 68.965C111.736 68.358 120.014 65.621 117.024 63.051C114.246 60.663 109.539 54.337 105.253 56.357Z" fill="#224136"/>
<path d="M106.516 63.257C107.927 63.397 109.306 63.705 110.697 63.979C112.049 64.244 113.467 64.693 114.853 64.559C115.1 64.537 115.179 64.168 114.935 64.071C112.407 63.073 109.207 63.153 106.523 63.093C106.427 63.09 106.423 63.248 106.516 63.257Z" fill="#A6C181"/>
<path d="M84.866 61.989C81.391 63.625 82.558 66.671 84.734 68.862C83.536 69.308 82.484 70.024 81.937 71.035C81.051 72.669 81.128 75.169 83.199 75.817C85.51 76.54 87.974 75.574 90.056 74.597C91.348 73.99 99.626 71.253 96.637 68.683C93.859 66.296 89.152 59.97 84.866 61.989Z" fill="#517850"/>
<path d="M86.129 68.89C87.54 69.03 88.919 69.338 90.31 69.612C91.662 69.877 93.08 70.326 94.466 70.192C94.713 70.17 94.792 69.801 94.548 69.704C92.02 68.705 88.82 68.786 86.136 68.726C86.04 68.723 86.036 68.881 86.129 68.89Z" fill="#A6C181"/>
<path d="M137.867 135.498C134.026 135.429 133.726 138.677 134.709 141.604C133.436 141.475 132.177 141.651 131.238 142.316C129.721 143.39 128.686 145.667 130.256 147.163C132.01 148.834 134.647 149.058 136.946 149.101C138.373 149.128 147.007 150.334 145.464 146.708C144.028 143.337 142.603 135.582 137.867 135.498Z" fill="#517850"/>
<path d="M135.947 142.245C137.151 142.994 138.251 143.881 139.378 144.741C140.474 145.576 141.547 146.607 142.85 147.099C143.08 147.187 143.316 146.892 143.139 146.697C141.314 144.684 138.409 143.341 136.028 142.1C135.941 142.056 135.868 142.196 135.947 142.245Z" fill="#A6C181"/>
<path d="M102.983 73.114C100.342 73.371 98.023 74.573 97.539 77.378C97.076 80.061 98.696 82.742 100.577 84.495C101.167 85.044 102.053 84.162 101.462 83.611C98.216 80.588 97.299 74.917 102.984 74.364C103.778 74.287 103.786 73.036 102.983 73.114Z" fill="#85B35D"/>
<path d="M94.426 85C95.275 81.256 98.5 81.739 101.109 83.39C101.288 82.125 101.759 80.943 102.629 80.191C104.033 78.975 106.491 78.512 107.57 80.393C108.774 82.495 108.362 85.108 107.857 87.352C107.542 88.744 106.653 97.418 103.5 95.052C100.568 92.854 93.378 89.622 94.426 85Z" fill="#517850"/>
<path d="M101.436 84.746C101.876 86.095 102.475 87.374 103.041 88.673C103.591 89.937 104.335 91.225 104.502 92.608C104.534 92.853 104.19 93.011 104.044 92.793C102.523 90.54 101.912 87.398 101.276 84.789C101.255 84.696 101.407 84.659 101.436 84.746Z" fill="#A6C181"/>
<path d="M125.734 112.451C128.619 107.563 133.358 110.561 134.777 114.848C135.029 115.61 136.236 115.284 135.982 114.516C135.143 111.98 133.553 109.812 131.026 108.796C128.328 107.711 125.956 109.616 124.654 111.82C124.244 112.516 125.324 113.145 125.734 112.451Z" fill="#85B35D"/>
<path d="M139.007 109.095C135.252 108.294 134.336 111.425 134.741 114.485C133.517 114.116 132.247 114.048 131.199 114.522C129.505 115.286 128.053 117.323 129.307 119.092C130.71 121.068 133.255 121.79 135.504 122.273C136.9 122.572 145.146 125.406 144.321 121.551C143.558 117.967 143.642 110.083 139.007 109.095Z" fill="#224136"/>
<path d="M135.834 115.352C136.873 116.318 137.783 117.398 138.725 118.457C139.641 119.487 140.498 120.703 141.682 121.435C141.892 121.566 142.179 121.321 142.043 121.096C140.636 118.771 138.04 116.897 135.939 115.224C135.865 115.165 135.767 115.288 135.834 115.352Z" fill="#A6C181"/>
<path d="M130.619 122.63C128.069 121.763 125.492 122.059 123.929 124.427C122.433 126.692 122.909 129.818 123.904 132.156C124.219 132.896 125.296 132.258 124.984 131.525C124.156 129.579 123.905 127.307 124.841 125.353C125.889 123.165 128.277 123.151 130.287 123.834C131.053 124.095 131.378 122.888 130.619 122.63Z" fill="#85B35D"/>
<path d="M118.038 130.009C120.344 126.939 123.091 128.699 124.794 131.273C125.476 130.192 126.389 129.306 127.491 128.975C129.27 128.44 131.702 129.023 131.918 131.181C132.157 133.591 130.712 135.807 129.333 137.649C128.476 138.79 124.117 146.342 122.207 142.894C120.431 139.689 115.191 133.797 118.038 130.009Z" fill="#517850"/>
<path d="M124.54 132.644C124.39 134.055 124.413 135.468 124.398 136.884C124.383 138.262 124.535 139.742 124.123 141.072C124.051 141.309 123.673 141.313 123.629 141.053C123.163 138.375 123.89 135.258 124.377 132.616C124.395 132.524 124.55 132.553 124.54 132.644Z" fill="#A6C181"/>
<path d="M50.866 70.095C48.534 64.115 40.717 55.62 33.787 60.769C31.208 62.685 30.255 66.56 29.047 69.36C27.148 73.763 23.996 75.885 19.655 77.548C13.544 79.887 8.325 82.199 9.334 89.724C9.978 94.535 13.112 97.835 15.58 101.778C19.065 107.346 15.102 120.657 7.48497 120.563C6.67797 120.553 6.67897 121.803 7.48497 121.813C14.656 121.902 17.561 113.01 18.201 107.144C19.101 98.885 3.25899 89.035 13.505 81.634C18.699 77.882 25.031 78.14 28.883 72.398C31.003 69.236 31.507 65.257 33.984 62.291C39.327 55.892 47.815 65.692 49.662 70.428C49.95 71.169 51.159 70.847 50.866 70.095Z" fill="#85B35D"/>
<path d="M35.182 60.221C33.319 58.277 30.984 57.323 28.469 58.634C26.053 59.893 25.005 62.939 24.776 65.459C24.703 66.262 25.954 66.255 26.026 65.459C26.218 63.352 27.012 61.271 28.735 59.947C30.686 58.448 32.821 59.563 34.298 61.105C34.855 61.688 35.738 60.803 35.182 60.221Z" fill="#85B35D"/>
<path d="M20.597 60.843C24.071 59.21 25.675 62.049 25.978 65.121C27.084 64.484 28.306 64.129 29.435 64.353C31.258 64.711 33.134 66.365 32.316 68.373C31.399 70.615 29.085 71.898 27.004 72.879C25.713 73.488 18.328 78.123 18.254 74.181C18.183 70.518 16.309 62.86 20.597 60.843Z" fill="#224136"/>
<path d="M25.109 66.214C24.316 67.39 23.676 68.65 23.001 69.895C22.344 71.106 21.784 72.485 20.798 73.468C20.624 73.644 20.289 73.47 20.37 73.22C21.212 70.636 23.312 68.222 24.977 66.114C25.038 66.04 25.16 66.137 25.109 66.214Z" fill="#A6C181"/>
<path d="M11.09 93.038C8.459 93.331 6.14501 94.557 5.69801 97.368C5.27101 100.057 6.91601 102.715 8.82401 104.445C9.42001 104.985 10.306 104.104 9.70902 103.561C6.43302 100.591 5.41 94.919 11.09 94.288C11.882 94.2 11.891 92.949 11.09 93.038Z" fill="#85B35D"/>
<path d="M2.68498 105.039C3.48399 101.285 6.716 101.723 9.346 103.338C9.507 102.072 9.96199 100.883 10.823 100.119C12.211 98.883 14.663 98.388 15.767 100.253C16.998 102.338 16.622 104.957 16.147 107.208C15.852 108.604 15.082 117.289 11.896 114.966C8.93498 112.809 1.70199 109.674 2.68498 105.039Z" fill="#224136"/>
<path d="M9.69301 104.689C10.15 106.032 10.767 107.303 11.351 108.594C11.919 109.85 12.679 111.128 12.866 112.509C12.901 112.754 12.559 112.916 12.411 112.7C10.86 110.468 10.206 107.335 9.533 104.735C9.511 104.641 9.66201 104.602 9.69301 104.689Z" fill="#A6C181"/>
<path d="M14.365 124.736C14.549 120.9 11.31 120.504 8.35502 121.399C8.52102 120.131 8.38301 118.867 7.74601 117.909C6.71701 116.361 4.473 115.259 2.93 116.784C1.208 118.487 0.907023 121.116 0.795023 123.413C0.725023 124.838 -0.734993 133.434 2.93501 131.997C6.34801 130.663 14.142 129.469 14.365 124.736Z" fill="#517850"/>
<path d="M7.678 122.618C6.895 123.8 5.975 124.872 5.082 125.973C4.214 127.042 3.152 128.085 2.621 129.372C2.526 129.601 2.81499 129.845 3.01599 129.674C5.08199 127.909 6.51101 125.045 7.82101 122.701C7.86701 122.619 7.728 122.54 7.678 122.618Z" fill="#A6C181"/>
<path d="M17.498 79.571C23.082 78.482 23.869 84.163 21.597 87.989C21.185 88.684 22.266 89.312 22.677 88.62C23.97 86.443 24.738 83.539 23.667 81.107C22.487 78.43 19.838 77.845 17.166 78.367C16.375 78.521 16.711 79.725 17.498 79.571Z" fill="#85B35D"/>
<path d="M28.729 87.346C26.854 83.995 23.897 85.372 21.864 87.695C21.334 86.531 20.547 85.532 19.5 85.056C17.808 84.287 15.32 84.54 14.818 86.649C14.257 89.006 15.393 91.396 16.513 93.405C17.209 94.651 20.518 102.718 22.872 99.556C25.063 96.618 31.043 91.481 28.729 87.346Z" fill="#517850"/>
<path d="M21.934 89.088C21.893 90.506 21.682 91.903 21.506 93.309C21.337 94.676 20.987 96.122 21.219 97.496C21.259 97.741 21.633 97.795 21.711 97.544C22.53 94.953 22.228 91.766 22.099 89.083C22.094 88.988 21.936 88.995 21.934 89.088Z" fill="#A6C181"/>
<path d="M57.2 67.175C49.566 61.366 42.214 70.584 41.494 77.971C40.982 83.23 44.777 88.45 46.097 93.344C48.521 102.34 43.231 111.553 38.512 118.762C33.402 126.569 26.176 136.319 30.836 146.064C33.379 151.382 37.874 155.545 39.468 161.343C40.958 166.767 37.742 173.112 35.911 178.061C35.631 178.818 36.839 179.142 37.116 178.393C39.5 171.951 42.872 164.778 39.626 158.032C37.274 153.144 33.365 149.236 31.431 144.14C29.023 137.798 32.166 131.273 35.365 125.905C41.003 116.443 47.836 108.291 47.75 96.701C47.715 91.934 45.323 87.716 43.687 83.374C42.307 79.711 42.574 76.074 44.302 72.574C46.625 67.87 51.764 64.598 56.569 68.255C57.211 68.743 57.833 67.656 57.2 67.175Z" fill="#85B35D"/>
<path d="M38.719 120.652C44.303 119.563 45.089 125.245 42.817 129.069C42.405 129.764 43.486 130.392 43.897 129.7C45.19 127.523 45.959 124.619 44.887 122.187C43.708 119.51 41.059 118.925 38.387 119.447C37.596 119.602 37.932 120.806 38.719 120.652Z" fill="#85B35D"/>
<path d="M49.949 128.426C48.074 125.075 45.117 126.452 43.084 128.775C42.555 127.612 41.768 126.612 40.72 126.137C39.029 125.368 36.54 125.62 36.038 127.73C35.478 130.087 36.614 132.477 37.734 134.486C38.43 135.732 41.738 143.799 44.092 140.637C46.282 137.699 52.263 132.562 49.949 128.426Z" fill="#224136"/>
<path d="M43.154 130.168C43.113 131.586 42.901 132.983 42.726 134.389C42.557 135.756 42.206 137.202 42.438 138.576C42.478 138.821 42.852 138.875 42.931 138.624C43.75 136.033 43.447 132.847 43.319 130.164C43.314 130.068 43.157 130.076 43.154 130.168Z" fill="#A6C181"/>
<path d="M34.843 125.408C32.98 123.464 30.645 122.51 28.129 123.821C25.714 125.08 24.666 128.126 24.436 130.646C24.363 131.449 25.614 131.442 25.686 130.646C25.878 128.539 26.672 126.458 28.396 125.134C30.347 123.635 32.482 124.75 33.959 126.292C34.517 126.875 35.399 125.989 34.843 125.408Z" fill="#85B35D"/>
<path d="M20.258 126.03C23.732 124.397 25.336 127.236 25.638 130.308C26.744 129.671 27.967 129.316 29.096 129.54C30.919 129.898 32.795 131.552 31.976 133.56C31.059 135.802 28.746 137.085 26.665 138.066C25.374 138.675 17.99 143.31 17.915 139.368C17.844 135.704 15.97 128.047 20.258 126.03Z" fill="#517850"/>
<path d="M24.77 131.401C23.976 132.577 23.336 133.837 22.662 135.082C22.004 136.294 21.445 137.672 20.459 138.655C20.284 138.831 19.949 138.657 20.031 138.407C20.872 135.823 22.973 133.409 24.638 131.301C24.699 131.226 24.821 131.324 24.77 131.401Z" fill="#A6C181"/>
<path d="M40.445 160.038C38.582 158.094 36.247 157.14 33.732 158.451C31.316 159.71 30.268 162.756 30.039 165.276C29.966 166.079 31.217 166.072 31.289 165.276C31.481 163.169 32.275 161.088 33.998 159.764C35.949 158.265 38.084 159.38 39.561 160.922C40.119 161.505 41.002 160.62 40.445 160.038Z" fill="#85B35D"/>
<path d="M25.86 160.66C29.334 159.027 30.938 161.866 31.241 164.938C32.346 164.301 33.569 163.946 34.698 164.169C36.521 164.528 38.397 166.181 37.579 168.189C36.662 170.431 34.349 171.714 32.267 172.695C30.976 173.304 23.591 177.939 23.517 173.997C23.446 170.335 21.572 162.677 25.86 160.66Z" fill="#517850"/>
<path d="M30.373 166.031C29.58 167.207 28.94 168.467 28.265 169.712C27.608 170.923 27.049 172.302 26.062 173.285C25.888 173.461 25.553 173.287 25.634 173.037C26.476 170.453 28.576 168.039 30.241 165.931C30.302 165.856 30.424 165.954 30.373 166.031Z" fill="#A6C181"/>
<path d="M46.556 103.849C44.693 101.905 42.358 100.951 39.843 102.262C37.427 103.52 36.379 106.566 36.15 109.087C36.077 109.89 37.328 109.883 37.4 109.087C37.592 106.98 38.386 104.899 40.109 103.575C42.06 102.076 44.195 103.191 45.672 104.733C46.229 105.315 47.112 104.431 46.556 103.849Z" fill="#85B35D"/>
<path d="M31.971 104.471C35.445 102.838 37.049 105.677 37.352 108.749C38.457 108.112 39.68 107.757 40.809 107.981C42.632 108.339 44.508 109.993 43.69 112.001C42.773 114.243 40.459 115.526 38.378 116.507C37.087 117.115 29.702 121.751 29.628 117.809C29.557 114.145 27.683 106.488 31.971 104.471Z" fill="#224136"/>
<path d="M36.483 109.842C35.69 111.018 35.05 112.278 34.375 113.523C33.718 114.735 33.158 116.113 32.172 117.096C31.998 117.272 31.663 117.098 31.744 116.848C32.586 114.264 34.686 111.849 36.352 109.742C36.412 109.667 36.534 109.765 36.483 109.842Z" fill="#A6C181"/>
<path d="M42.506 177.81C40.425 174.582 37.559 176.141 35.675 178.588C35.073 177.46 34.226 176.511 33.151 176.102C31.414 175.441 28.947 175.849 28.579 177.986C28.167 180.373 29.45 182.688 30.694 184.622C31.466 185.823 35.274 193.666 37.425 190.363C39.426 187.292 45.073 181.79 42.506 177.81Z" fill="#224136"/>
<path d="M35.832 179.973C35.881 181.39 35.757 182.798 35.67 184.213C35.586 185.588 35.328 187.053 35.645 188.409C35.701 188.65 36.077 188.681 36.14 188.426C36.796 185.788 36.294 182.627 35.998 179.959C35.986 179.863 35.828 179.88 35.832 179.973Z" fill="#A6C181"/>
<path d="M43.132 83.646C48.716 82.557 49.502 88.238 47.231 92.064C46.819 92.759 47.9 93.387 48.311 92.695C49.603 90.518 50.373 87.614 49.301 85.182C48.121 82.505 45.472 81.92 42.8 82.442C42.009 82.595 42.345 83.799 43.132 83.646Z" fill="#85B35D"/>
<path d="M54.363 91.42C52.488 88.069 49.531 89.446 47.498 91.769C46.968 90.606 46.181 89.606 45.134 89.13C43.442 88.361 40.954 88.614 40.451 90.723C39.891 93.08 41.027 95.47 42.147 97.478C42.843 98.725 46.152 106.792 48.505 103.63C50.695 100.692 56.677 95.555 54.363 91.42Z" fill="#517850"/>
<path d="M47.567 93.162C47.526 94.58 47.314 95.977 47.139 97.383C46.97 98.75 46.619 100.196 46.852 101.57C46.891 101.815 47.265 101.869 47.344 101.618C48.163 99.027 47.86 95.84 47.732 93.157C47.727 93.062 47.57 93.069 47.567 93.162Z" fill="#A6C181"/>
<path d="M49.114 76.277C48.496 72.487 45.246 72.771 42.541 74.261C42.441 72.986 42.042 71.778 41.221 70.973C39.893 69.673 37.468 69.06 36.276 70.873C34.946 72.896 35.196 75.531 35.564 77.801C35.794 79.21 36.149 87.922 39.442 85.754C42.502 83.74 49.878 80.952 49.114 76.277Z" fill="#224136"/>
<path d="M42.132 75.594C41.611 76.913 40.934 78.153 40.289 79.416C39.663 80.643 38.841 81.883 38.59 83.253C38.544 83.496 38.876 83.675 39.036 83.466C40.692 81.31 41.494 78.212 42.289 75.647C42.317 75.555 42.166 75.507 42.132 75.594Z" fill="#A6C181"/>
<path d="M32.508 147.371C36.937 143.771 40.27 148.445 40.094 152.875C40.062 153.681 41.312 153.678 41.344 152.875C41.45 150.196 40.662 147.362 38.465 145.665C36.236 143.942 33.593 144.887 31.623 146.488C30.998 146.996 31.888 147.875 32.508 147.371Z" fill="#85B35D"/>
<path d="M46.07 148.907C42.832 146.845 40.88 149.458 40.189 152.467C39.17 151.694 38.005 151.186 36.857 151.263C35.003 151.388 32.931 152.788 33.489 154.884C34.112 157.226 36.245 158.792 38.182 160.031C39.385 160.798 46.122 166.336 46.697 162.436C47.233 158.811 50.067 151.453 46.07 148.907Z" fill="#517850"/>
<path d="M40.911 153.661C41.547 154.929 42.022 156.26 42.534 157.581C43.032 158.865 43.409 160.304 44.264 161.404C44.415 161.601 44.771 161.471 44.721 161.213C44.214 158.544 42.438 155.88 41.055 153.579C41.005 153.497 40.87 153.578 40.911 153.661Z" fill="#A6C181"/>
<path d="M62.58 77.225C61.419 72.888 63.24 68.523 65.6 64.93C68.33 60.773 75.597 56.122 79.466 61.619C83.574 67.456 81.589 78.474 80.969 85.068C80.21 93.121 78.708 101.191 78.435 109.272C78.138 118.024 83.898 122.077 89.95 127.173C105.631 140.375 81.645 156.716 75.921 168.161C72.847 174.307 74.913 180.414 78.852 185.586C82.342 190.169 86.158 193.982 87.986 199.591C88.903 202.407 88.763 205.373 88.274 208.244C88.017 209.754 87.48 211.211 86.971 212.649C87.529 211.073 87.12 216.569 87.558 212.857C87.652 212.057 86.401 212.066 86.308 212.857C86.24 213.33 86.172 213.802 86.104 214.275C86.019 214.74 86.382 215.166 86.873 215.044C89.172 214.47 89.662 207.758 89.876 205.69C90.388 200.751 88.281 196.094 85.65 192.072C82.494 187.247 77.89 183.614 76.089 177.965C74.574 173.218 76.75 168.608 79.413 164.777C84.169 157.936 91.345 152.612 94.46 144.667C97.627 136.588 95.938 130.404 89.341 125.054C85.383 121.845 81.38 118.896 80.043 113.69C78.553 107.885 80.483 100.887 81.104 95.037C82.003 86.561 83.256 78.093 82.711 69.546C82.333 63.624 80.486 57.429 73.389 58.004C66.267 58.581 61.669 67.543 60.975 73.733C60.829 75.029 61.044 76.314 61.377 77.559C61.583 78.335 62.789 78.004 62.58 77.225Z" fill="#85B35D"/>
<path d="M95.756 141.363C101.34 140.274 102.126 145.955 99.855 149.781C99.443 150.476 100.524 151.104 100.935 150.412C102.227 148.235 102.996 145.331 101.925 142.899C100.745 140.222 98.096 139.637 95.424 140.159C94.633 140.312 94.969 141.517 95.756 141.363Z" fill="#85B35D"/>
<path d="M106.986 149.137C105.111 145.786 102.154 147.163 100.121 149.486C99.592 148.323 98.805 147.323 97.757 146.848C96.066 146.079 93.578 146.331 93.075 148.441C92.515 150.798 93.651 153.188 94.771 155.197C95.467 156.443 98.775 164.51 101.129 161.348C103.319 158.409 109.301 153.272 106.986 149.137Z" fill="#517850"/>
<path d="M100.191 150.879C100.15 152.297 99.938 153.694 99.763 155.1C99.594 156.467 99.243 157.914 99.475 159.287C99.515 159.532 99.889 159.586 99.968 159.335C100.787 156.744 100.484 153.558 100.356 150.875C100.352 150.779 100.194 150.787 100.191 150.879Z" fill="#A6C181"/>
<path d="M86.906 123.617C89.56 118.61 94.431 121.3 96.055 125.544C96.34 126.289 97.548 125.966 97.26 125.212C96.309 122.724 94.64 120.605 92.066 119.704C89.323 118.744 87.032 120.712 85.826 122.986C85.449 123.698 86.528 124.33 86.906 123.617Z" fill="#85B35D"/>
<path d="M100.025 119.63C96.237 119.003 95.466 122.172 96.011 125.211C94.771 124.899 93.498 124.889 92.474 125.41C90.817 126.251 89.46 128.352 90.794 130.062C92.285 131.971 94.86 132.576 97.13 132.956C98.538 133.191 106.905 135.644 105.905 131.831C104.977 128.285 104.7 120.406 100.025 119.63Z" fill="#224136"/>
<path d="M97.143 126.026C98.225 126.943 99.184 127.981 100.172 128.996C101.135 129.982 102.046 131.159 103.263 131.835C103.479 131.957 103.755 131.698 103.608 131.48C102.096 129.222 99.418 127.469 97.243 125.895C97.164 125.839 97.073 125.966 97.143 126.026Z" fill="#A6C181"/>
<path d="M80.924 92.12C86.68 91.639 86.892 97.325 84.151 100.98C83.668 101.626 84.754 102.248 85.231 101.611C86.809 99.506 87.695 96.826 86.971 94.223C86.218 91.513 83.446 90.659 80.924 90.87C80.127 90.937 80.12 92.188 80.924 92.12Z" fill="#85B35D"/>
<path d="M91.348 101.055C89.846 97.522 86.757 98.571 84.485 100.66C84.085 99.446 83.41 98.366 82.422 97.781C80.822 96.833 78.321 96.815 77.594 98.858C76.782 101.141 77.653 103.639 78.549 105.757C79.107 107.072 81.524 115.449 84.206 112.561C86.698 109.876 93.2 105.416 91.348 101.055Z" fill="#517850"/>
<path d="M84.404 102.052C84.209 103.457 83.847 104.823 83.521 106.202C83.206 107.543 82.701 108.943 82.782 110.333C82.796 110.581 83.162 110.675 83.267 110.434C84.363 107.947 84.405 104.746 84.568 102.065C84.574 101.97 84.417 101.961 84.404 102.052Z" fill="#A6C181"/>
<path d="M77.664 168.081C82.093 164.481 85.425 169.155 85.25 173.585C85.218 174.391 86.469 174.388 86.5 173.585C86.605 170.906 85.818 168.072 83.621 166.374C81.392 164.651 78.749 165.596 76.779 167.197C76.154 167.706 77.044 168.585 77.664 168.081Z" fill="#85B35D"/>
<path d="M91.227 169.617C87.988 167.555 86.037 170.168 85.346 173.177C84.327 172.404 83.161 171.896 82.014 171.973C80.159 172.098 78.088 173.498 78.645 175.594C79.269 177.936 81.402 179.502 83.339 180.741C84.542 181.509 91.278 187.046 91.853 183.146C92.389 179.521 95.223 172.163 91.227 169.617Z" fill="#517850"/>
<path d="M86.067 174.371C86.702 175.639 87.177 176.97 87.69 178.291C88.188 179.575 88.565 181.014 89.419 182.114C89.57 182.311 89.925 182.181 89.876 181.923C89.369 179.254 87.593 176.59 86.209 174.289C86.16 174.207 86.026 174.288 86.067 174.371Z" fill="#A6C181"/>
<path d="M92.313 147.148C90.394 145.273 88.025 144.365 85.554 145.759C83.18 147.097 82.217 150.156 82.071 152.693C82.024 153.499 83.275 153.494 83.321 152.693C83.581 148.197 87.364 144.061 91.428 148.032C92.006 148.596 92.891 147.712 92.313 147.148Z" fill="#85B35D"/>
<path d="M77.742 148.239C81.16 146.49 82.857 149.276 83.26 152.336C84.345 151.663 85.555 151.267 86.691 151.453C88.525 151.751 90.455 153.342 89.703 155.375C88.861 157.646 86.591 159.005 84.544 160.055C83.273 160.705 76.047 165.583 75.842 161.646C75.649 157.988 73.523 150.396 77.742 148.239Z" fill="#224136"/>
<path d="M82.431 153.458C81.677 154.66 81.079 155.94 80.446 157.207C79.828 158.439 79.316 159.836 78.362 160.851C78.194 161.032 77.852 160.87 77.926 160.617C78.682 158.007 80.702 155.523 82.296 153.363C82.352 153.286 82.479 153.379 82.431 153.458Z" fill="#A6C181"/>
<path d="M81.335 117.738C74.755 118.859 75.508 125.719 79.839 129.21C80.461 129.711 81.351 128.832 80.724 128.326C77.157 125.451 75.964 119.914 81.667 118.943C82.461 118.809 82.123 117.604 81.335 117.738Z" fill="#85B35D"/>
<path d="M73.771 130.186C74.35 126.391 77.602 126.641 80.321 128.102C80.409 126.828 80.795 125.615 81.609 124.802C82.923 123.488 85.341 122.851 86.553 124.649C87.904 126.66 87.68 129.296 87.335 131.571C87.121 132.982 86.857 141.697 83.541 139.563C80.461 137.58 73.058 134.87 73.771 130.186Z" fill="#517850"/>
<path d="M80.746 129.43C81.28 130.744 81.971 131.977 82.628 133.232C83.268 134.454 84.102 135.686 84.368 137.052C84.417 137.295 84.086 137.476 83.924 137.27C82.246 135.131 81.412 132.041 80.589 129.484C80.561 129.393 80.711 129.345 80.746 129.43Z" fill="#A6C181"/>
<path d="M82.468 80.774C80.549 78.899 78.181 77.991 75.709 79.385C73.335 80.723 72.372 83.781 72.226 86.319C72.179 87.125 73.43 87.12 73.476 86.319C73.736 81.823 77.52 77.687 81.583 81.658C82.16 82.221 83.045 81.338 82.468 80.774Z" fill="#85B35D"/>
<path d="M67.897 81.864C71.315 80.116 73.011 82.901 73.415 85.962C74.5 85.289 75.71 84.893 76.846 85.079C78.68 85.377 80.61 86.968 79.858 89.001C79.015 91.272 76.746 92.632 74.699 93.682C73.428 94.332 66.201 99.21 65.996 95.273C65.805 91.613 63.678 84.022 67.897 81.864Z" fill="#224136"/>
<path d="M72.585 87.083C71.831 88.285 71.233 89.565 70.6 90.832C69.983 92.064 69.47 93.461 68.516 94.475C68.348 94.657 68.007 94.495 68.08 94.242C68.836 91.631 70.856 89.148 72.451 86.987C72.508 86.911 72.634 87.004 72.585 87.083Z" fill="#A6C181"/>
<path d="M78.977 184.001C76.402 183.286 73.809 183.682 72.382 186.136C71.02 188.48 71.631 191.569 72.761 193.855C73.118 194.578 74.197 193.944 73.841 193.224C72.913 191.349 72.564 189.253 73.244 187.241C74.051 184.857 76.549 184.624 78.644 185.206C79.424 185.422 79.753 184.216 78.977 184.001Z" fill="#85B35D"/>
<path d="M66.803 192.075C68.93 188.879 71.772 190.48 73.621 192.952C74.237 191.834 75.099 190.898 76.181 190.505C77.927 189.868 80.388 190.313 80.726 192.455C81.101 194.848 79.785 197.143 78.512 199.06C77.722 200.248 73.801 208.036 71.698 204.702C69.742 201.602 64.177 196.02 66.803 192.075Z" fill="#517850"/>
<path d="M73.443 194.336C73.373 195.753 73.477 197.162 73.543 198.577C73.607 199.953 73.843 201.423 73.506 202.774C73.447 203.014 73.072 203.04 73.011 202.784C72.395 200.137 72.944 196.983 73.278 194.319C73.291 194.224 73.447 194.243 73.443 194.336Z" fill="#A6C181"/>
<path d="M95.849 208.402C94.731 204.728 91.548 205.444 89.066 207.281C88.796 206.031 88.241 204.887 87.319 204.2C85.829 203.088 83.344 202.805 82.405 204.76C81.356 206.944 81.957 209.521 82.624 211.722C83.039 213.088 84.555 221.674 87.528 219.086C90.291 216.681 97.229 212.934 95.849 208.402Z" fill="#517850"/>
<path d="M88.838 208.657C88.497 210.033 87.992 211.353 87.523 212.69C87.065 213.99 86.416 215.328 86.35 216.719C86.337 216.967 86.69 217.098 86.822 216.871C88.175 214.514 88.556 211.336 89.002 208.688C89.016 208.593 88.86 208.566 88.838 208.657Z" fill="#A6C181"/>
<path d="M70.632 72.209C68.833 68.816 65.846 70.126 63.76 72.403C63.257 71.227 62.492 70.21 61.456 69.711C59.782 68.904 57.288 69.101 56.74 71.199C56.127 73.542 57.208 75.958 58.283 77.991C58.95 79.253 62.076 87.392 64.502 84.284C66.757 81.396 72.852 76.394 70.632 72.209Z" fill="#224136"/>
<path d="M63.798 73.797C63.727 75.213 63.484 76.605 63.277 78.007C63.076 79.37 62.695 80.808 62.895 82.186C62.928 82.432 63.3 82.494 63.386 82.246C64.264 79.674 64.033 76.481 63.965 73.797C63.961 73.7 63.804 73.704 63.798 73.797Z" fill="#A6C181"/>
<path d="M61.45 65.23C61.436 61.39 58.183 61.159 55.277 62.204C55.38 60.93 55.175 59.673 54.49 58.75C53.384 57.257 51.086 56.27 49.624 57.873C47.99 59.662 47.824 62.303 47.83 64.603C47.833 66.031 46.813 74.69 50.406 73.066C53.745 71.559 61.469 69.967 61.45 65.23Z" fill="#517850"/>
<path d="M54.663 63.456C53.941 64.676 53.078 65.795 52.242 66.94C51.429 68.054 50.424 69.148 49.96 70.461C49.875 70.694 50.176 70.923 50.366 70.742C52.341 68.874 53.621 65.94 54.81 63.532C54.852 63.446 54.711 63.376 54.663 63.456Z" fill="#A6C181"/>
<path d="M64.407 1.00001C64.407 10.676 64.407 20.352 64.407 30.028C64.407 30.834 65.657 30.834 65.657 30.028C65.657 20.352 65.657 10.676 65.657 1.00001C65.657 0.194008 64.407 0.194008 64.407 1.00001Z" fill="#3D5363"/>
</svg>
