<?xml version="1.0" encoding="utf-8"?>
<!-- Generator: Adobe Illustrator 27.5.0, SVG Export Plug-In . SVG Version: 6.00 Build 0)  -->
<svg version="1.1" xmlns="http://www.w3.org/2000/svg" xmlns:xlink="http://www.w3.org/1999/xlink"
	x="0px" y="0px"
	viewBox="0 0 750 500" style="enable-background:new 0 0 750 500;" xml:space="preserve">
<g id="Background_Simple">
	<g>
		<path style="fill:#92E3A9;" d="M87.591,437.131c0.285,0.105,0.573,0.197,0.859,0.296h608.192c4.248-3.14,6.923-8.289,9.094-13.238
			c26.928-61.379,25.821-143.044,0.421-211.109c-11.264-30.183-27.304-57.693-47.796-79.573
			c-35.949-38.385-86.849-59.295-137.816-72.261c-56.926-14.482-118.171-20.202-173.712-1.082
			c-55.574,19.131-99.465,60.453-152.22,85.212c-24.448,11.474-50.567,15.602-73.958,30.136
			c-23.003,14.293-42.879,33.71-57.349,56.627c-1.736,2.75-3.395,5.548-4.971,8.393c-25.05,45.208-29.059,101.532-10.664,149.832
			C55.196,410.126,67.754,429.809,87.591,437.131z"/>
		<path style="opacity:0.7;fill:#FFFFFF;" d="M87.591,437.131c0.285,0.105,0.573,0.197,0.859,0.296h608.192
			c4.248-3.14,6.923-8.289,9.094-13.238c26.928-61.379,25.821-143.044,0.421-211.109c-11.264-30.183-27.304-57.693-47.796-79.573
			c-35.949-38.385-86.849-59.295-137.816-72.261c-56.926-14.482-118.171-20.202-173.712-1.082
			c-55.574,19.131-99.465,60.453-152.22,85.212c-24.448,11.474-50.567,15.602-73.958,30.136
			c-23.003,14.293-42.879,33.71-57.349,56.627c-1.736,2.75-3.395,5.548-4.971,8.393c-25.05,45.208-29.059,101.532-10.664,149.832
			C55.196,410.126,67.754,429.809,87.591,437.131z"/>
	</g>
</g>
<g id="Window">
	<g style="opacity:0.3;">
		<path style="fill:none;stroke:#000000;stroke-linecap:round;stroke-linejoin:round;stroke-miterlimit:10;" d="M666.307,424.059
			H507.184V137.894c0-43.941,35.621-79.562,79.562-79.562h0c43.941,0,79.562,35.621,79.562,79.562V424.059z"/>
		<path style="fill:none;stroke:#000000;stroke-linecap:round;stroke-linejoin:round;stroke-miterlimit:10;" d="M525.149,423.204
			V140.46c0-34.019,27.577-61.596,61.596-61.596h0c34.018,0,61.596,27.578,61.596,61.596v282.743"/>

			<line style="fill:none;stroke:#000000;stroke-linecap:round;stroke-linejoin:round;stroke-miterlimit:10;" x1="586.745" y1="58.332" x2="586.745" y2="423.632"/>

			<line style="fill:none;stroke:#000000;stroke-linecap:round;stroke-linejoin:round;stroke-miterlimit:10;" x1="508.039" y1="128.697" x2="665.237" y2="128.697"/>

			<line style="fill:none;stroke:#000000;stroke-linecap:round;stroke-linejoin:round;stroke-miterlimit:10;" x1="508.039" y1="178.316" x2="665.237" y2="178.316"/>

			<line style="fill:none;stroke:#000000;stroke-linecap:round;stroke-linejoin:round;stroke-miterlimit:10;" x1="508.039" y1="227.936" x2="665.237" y2="227.936"/>

			<line style="fill:none;stroke:#000000;stroke-linecap:round;stroke-linejoin:round;stroke-miterlimit:10;" x1="508.039" y1="277.555" x2="665.237" y2="277.555"/>

			<line style="fill:none;stroke:#000000;stroke-linecap:round;stroke-linejoin:round;stroke-miterlimit:10;" x1="508.039" y1="327.174" x2="665.237" y2="327.174"/>

			<line style="fill:none;stroke:#000000;stroke-linecap:round;stroke-linejoin:round;stroke-miterlimit:10;" x1="508.039" y1="376.793" x2="665.237" y2="376.793"/>

			<line style="fill:none;stroke:#000000;stroke-linecap:round;stroke-linejoin:round;stroke-miterlimit:10;" x1="529.058" y1="83.163" x2="543.313" y2="96.144"/>

			<line style="fill:none;stroke:#000000;stroke-linecap:round;stroke-linejoin:round;stroke-miterlimit:10;" x1="643.835" y1="83.163" x2="629.579" y2="96.144"/>
	</g>
</g>
<g id="Plant_5">
	<g>
		<path style="fill:#B2B2B2;" d="M483.166,220.816c15.088-6.498,29.134-16.952,29.134-16.952s-10.678,2.403-23.645,5.893
			c17.159-10.54,32.624-26.574,32.624-26.574s-12.928,5.261-28.133,12.236c11.988-11.431,21.056-23.712,21.056-23.712
			s-18.368,10.462-36.293,22.238c12.774-15.064,22.406-34.956,22.406-34.956s-16.48,13.856-31.907,28.734
			c10.403-17.599,16.488-40.956,16.488-40.956s-12.211,15.234-23.94,31.884c6.201-18.617,7.795-40.321,7.795-40.321
			s-8.367,15.531-16.522,32.95c2.387-18.543,0.562-38.016,0.562-38.016s-5.392,15.877-10.436,33.845
			c-0.792-18.196-5.438-36.149-5.438-36.149s-4.064,24.013-6.109,46.617c-2.981-21.119-15.388-45.693-15.388-45.693
			s0.759,16.192,2.565,34.383c-7.299-16.328-17.737-30.867-17.737-30.867s3.319,16.214,7.99,34.13
			c-9.819-15.189-22.694-28.185-22.694-28.185s8.46,22.487,17.992,42.937c-13.219-16.627-35.947-31.442-35.947-31.442
			s9.947,15.439,21.557,31.337c-15.32-11.454-34.164-19.621-34.164-19.621s13.118,14.336,27.728,28.449
			c-17.409-9.082-38.622-14.098-38.622-14.098s15.623,11.952,32.607,23.34c-18.826-5.948-40.873-7.137-40.873-7.137
			s13.576,6.975,29.614,14.238c-17.267-1.748-34.111-0.218-34.111-0.218s21.136,7.248,42.228,12.849
			c-14.325,0.84-27.782,4.248-27.782,4.248s7.092,1.231,16.799,2.607c-9.61,2.146-16.92,4.681-16.92,4.681
			s21.164,1.826,40.434,1.927c2.075,0.011,4.224-0.02,6.404-0.079c-12.409,3.369-25.187,10.919-25.187,10.919
			s16.13-1.836,30.584-4.68c12.433-2.447,27.932-7.48,32.026-8.84c-0.011,0.097-0.019,0.164-0.019,0.164s0.038-0.077,0.094-0.189
			c0.054-0.018,0.112-0.037,0.162-0.054c0.009,0.198,0.014,0.312,0.014,0.312s0.039-0.123,0.11-0.354
			c0.051-0.017,0.104-0.035,0.15-0.05c0.043,0.163,0.074,0.278,0.093,0.349l1.127,204.59l3.408-0.113l-1.11-204.083
			c7.927,4.026,23.603,11.639,36.397,15.706c17.923,5.697,43.599,4.152,43.599,4.152s-17.678-6.626-35.509-11.957
			c17.747,0.534,38.188-4.851,38.188-4.851s-20.447-3.323-39.803-4.994c18.146-2.639,38.961-13.175,38.961-13.175
			S500,219.003,483.166,220.816z"/>
		<path style="fill:#B2B2B2;" d="M433.098,304.814c2.462-16.242,1.015-33.692,1.015-33.692s-3.606,10.334-7.5,23.185
			c0.126-20.137-5.307-41.741-5.307-41.741s-2.37,13.755-4.488,30.349c-3.365-16.219-8.994-30.409-8.994-30.409
			s-0.832,21.122-0.313,42.563c-6.032-18.807-17.824-37.5-17.824-37.5s3.048,21.314,7.519,42.274
			c-9.437-18.135-26.046-35.65-26.046-35.65s6.475,18.419,14.406,37.178c-12.523-15.106-30.103-27.935-30.103-27.935
			s8.759,15.313,19.232,31.445c-14.477-11.83-31.971-20.577-31.971-20.577s10.625,12.971,23.21,26.752
			c-15.863-8.948-33.558-14.497-33.558-14.497s18.234,16.145,36.338,29.832c-19.502-8.636-46.92-11.097-46.92-11.097
			s14.145,7.917,30.541,16.002c-17.718-2.438-35.578-1.265-35.578-1.265s15.517,5.755,33.194,11.263
			c-18.084,0.303-35.922,4.361-35.922,4.361s23.56,4.709,45.957,7.43c-21.102,2.429-45.694,13.887-45.694,13.887
			s18.364-0.28,37.996-1.729c-17.822,6.948-34.717,18.624-34.717,18.624s19.104-3.555,38.808-8.494
			c-16.913,9.975-32.386,25.328-32.386,25.328s18.405-6.942,37.051-15.336c-15.002,12.835-27.668,30.92-27.668,30.92
			s13.098-7.835,27.742-17.609c-10.613,13.731-18.22,28.838-18.22,28.838s17.327-14.108,33.233-29.049
			c-6.861,12.604-11.083,25.827-11.083,25.827s4.795-5.369,11.095-12.881c-3.26,9.292-4.973,16.836-4.973,16.836
			s12.74-16.998,23.014-33.301c1.106-1.755,2.217-3.596,3.318-5.477c-3.702,12.314-4.049,27.151-4.049,27.151
			s6.97-14.661,12.197-28.434c4.497-11.847,8.42-27.663,9.429-31.858c0.076,0.061,0.129,0.103,0.129,0.103s-0.045-0.073-0.111-0.18
			c0.013-0.055,0.028-0.115,0.04-0.166c0.173,0.097,0.272,0.153,0.272,0.153s-0.084-0.098-0.242-0.28
			c0.013-0.052,0.026-0.107,0.037-0.153c0.162,0.05,0.275,0.084,0.345,0.106l18.471,9.209l-0.82-5.479l-15.506-6.429
			c7.609-4.6,22.358-13.88,32.575-22.59c14.311-12.201,26.576-34.811,26.576-34.811s-14.971,11.501-28.924,23.818
			c9.837-14.781,16.073-34.978,16.073-34.978s-13.632,15.598-25.283,31.144c7.354-16.798,9.417-40.036,9.417-40.036
			S440.46,289.567,433.098,304.814z"/>
		<path style="fill:#B2B2B2;" d="M478.932,341.484c8.496,6.496,18.906,11.14,18.906,11.14s-4.766-5.297-10.879-11.547
			c11.451,6.384,25.481,10.055,25.481,10.055s-7.106-5.663-15.91-12.073c10.309,3.164,20.171,4.399,20.171,4.399
			s-11.792-7.095-24.189-13.519c12.622,2.453,26.985,1.583,26.985,1.583s-13.117-4.941-26.479-8.96
			c13.306,0.299,28.506-3.688,28.506-3.688s-12.54-2.079-25.729-3.433c12.545-2.411,25.375-8.421,25.375-8.421
			s-11.483,0.198-23.971,1.118c11.288-4.553,21.762-11.793,21.762-11.793s-10.732,1.997-22.54,4.859
			c10.078-6.247,18.79-14.605,18.79-14.605s-14.928,5.344-28.412,11.384c11.041-8.421,21.039-23.294,21.039-23.294
			s-8.951,5.59-18.703,12.411c6.944-9.346,11.873-19.904,11.873-19.904s-8.148,7.05-16.831,15.41
			c5.495-10.414,8.771-21.864,8.771-21.864s-10.071,11.968-18.645,23.895c5.228-12.802,6.398-30.426,6.398-30.426
			s-5.596,10.567-10.923,22.223c1.622-12.347,0.255-25.647,0.255-25.647s-3.959,12.015-7.317,24.806
			c-0.391-12.777-4.301-26.418-4.301-26.418s-1.808,12.678-2.862,25.949c-2.621-12.583-8.971-25.479-8.971-25.479
			s0.365,9.93,1.352,21.349c-4.509-10.36-10.744-19.436-10.744-19.436s2.619,14.309,6.159,28.068
			c-5.041-7.865-11.263-14.419-11.263-14.419s1.56,4.419,3.872,10.368c-4.28-4.772-8.048-8.115-8.048-8.115
			s5.706,12.597,11.788,23.57c0.655,1.181,1.357,2.392,2.085,3.61c-5.866-5.972-14.224-10.82-14.224-10.82
			s6.181,8.573,12.401,15.872c5.35,6.279,13.146,13.475,15.223,15.366c-0.059,0.025-0.099,0.042-0.099,0.042
			s0.056-0.003,0.137-0.007c0.027,0.025,0.057,0.052,0.082,0.075c-0.11,0.068-0.173,0.108-0.173,0.108s0.082-0.017,0.236-0.05
			c0.026,0.023,0.053,0.048,0.076,0.069c-0.079,0.077-0.134,0.131-0.169,0.164l-18.764,11.372l1.15,1.899l18.482-11.201
			c0.24,5.783,0.912,17.108,2.68,25.668c2.476,11.99,11.533,26.076,11.533,26.076s-1.87-12.148-4.525-23.97
			c5.351,10.246,14.921,20.135,14.921,20.135s-4.628-12.667-9.846-24.189c7.28,9.461,19.893,17.922,19.893,17.922
			S485.325,350.464,478.932,341.484z"/>
		<path style="fill:#B2B2B2;" d="M433.1,395.265c-3.972,9.93-5.647,21.205-5.647,21.205s3.821-6.015,8.197-13.582
			c-3.07,12.745-2.835,27.246-2.835,27.246s3.545-8.367,7.352-18.57c-0.276,10.78,1.185,20.611,1.185,20.611
			s3.664-13.265,6.519-26.933c1.031,12.817,5.729,26.417,5.729,26.417s1.233-13.963,1.512-27.913
			c3.289,12.896,11.215,26.465,11.215,26.465s-1.369-12.637-3.61-25.705c5.695,11.435,14.932,22.177,14.932,22.177
			s-3.278-11.007-7.521-22.788c7.42,9.648,17.209,17.791,17.209,17.791s-4.809-9.8-10.739-20.404
			c8.726,8.028,19.119,14.172,19.119,14.172s-9.16-12.942-18.603-24.306c11.079,8.37,28.093,14.002,28.093,14.002
			s-7.79-7.119-16.982-14.678c10.869,4.176,22.364,6.085,22.364,6.085s-8.981-5.953-19.368-12.069
			c11.508,2.493,23.417,2.57,23.417,2.57s-14.235-6.483-28.027-11.535c13.736,1.594,31.026-2.017,31.026-2.017
			s-11.682-2.55-24.341-4.547c12.328-1.757,24.771-6.649,24.771-6.649s-12.637-0.584-25.86-0.379
			c12.202-3.811,24.29-11.245,24.29-11.245s-12.697,1.667-25.763,4.219c11.415-5.908,22.13-15.49,22.13-15.49
			s-9.466,3.021-20.2,7.042c8.767-7.128,15.832-15.574,15.832-15.574s-13.078,6.37-25.379,13.478
			c6.22-6.97,10.861-14.725,10.861-14.725s-3.837,2.691-8.945,6.517c3.446-5.406,5.652-9.933,5.652-9.933
			s-10.599,8.883-19.533,17.691c-0.962,0.948-1.939,1.95-2.917,2.979c4.175-7.256,6.598-16.609,6.598-16.609
			s-6.595,8.258-11.954,16.212c-4.61,6.842-9.445,16.284-10.708,18.793c-0.039-0.05-0.067-0.084-0.067-0.084s0.018,0.053,0.044,0.13
			c-0.017,0.033-0.035,0.069-0.05,0.099c-0.095-0.087-0.15-0.137-0.15-0.137s0.039,0.074,0.112,0.214
			c-0.016,0.031-0.032,0.064-0.046,0.092c-0.095-0.055-0.162-0.094-0.203-0.118l-15.998,14.984l-1.52,1.618l15.757-15.21
			c-5.506,1.786-16.233,5.478-24.002,9.481c-10.883,5.608-22.015,18.119-22.015,18.119s11.197-5.067,21.871-10.802
			c-8.43,7.908-15.382,19.785-15.382,19.785s10.957-7.863,20.651-15.987c-7.156,9.555-11.914,23.978-11.914,23.978
			S426.169,403.837,433.1,395.265z"/>
	</g>
</g>
<g id="Plants_4">
	<g>
		<g>
			<g>
				<path style="fill:#92E3A9;" d="M109.641,122.978v15.997h-5.011v-17.539c0-4.152-3.365-7.517-7.517-7.517l0,0
					c-4.152,0-7.517,3.365-7.517,7.517v21.78H84.97v-11.564c0-2.981-2.416-5.397-5.396-5.397h0c-2.98,0-5.396,2.416-5.396,5.397
					v11.564v6.167l0,0c0,1.916,1.553,3.469,3.469,3.469h11.95v13.106h15.034v-16.961h10.408c2.342,0,4.24-1.898,4.24-4.24l0,0
					v-5.782v-15.997c0-2.661-2.157-4.819-4.819-4.819l0,0C111.798,118.159,109.641,120.316,109.641,122.978z"/>
				<g>
					<rect x="84.057" y="164.906" style="fill:#B2B2B2;" width="26.416" height="24.494"/>
					<rect x="82.485" y="159.101" style="fill:#B2B2B2;" width="29.561" height="7.885"/>
				</g>
			</g>
			<g>
				<polygon style="fill:#92E3A9;" points="102.188,255.904 92.551,240.484 98.976,241.127 98.334,232.132 105.401,241.127
					106.043,213.501 111.183,231.49 117.607,208.361 119.535,235.345 132.384,221.853 123.39,243.054 132.384,239.842
					115.038,259.116 				"/>
				<g>
					<g>
						<rect x="97.265" y="257.998" style="fill:#B2B2B2;" width="26.416" height="24.494"/>
						<rect x="95.693" y="252.193" style="fill:#B2B2B2;" width="29.561" height="7.885"/>
					</g>
				</g>
			</g>
			<g>
				<polygon style="fill:#92E3A9;" points="239.033,255.904 229.396,240.484 235.821,241.127 235.178,232.132 242.246,241.127
					242.888,213.501 248.028,231.49 254.452,208.361 256.38,235.345 269.229,221.853 260.235,243.054 269.229,239.842
					251.883,259.116 				"/>
				<g>
					<g>
						<rect x="234.111" y="257.998" style="fill:#B2B2B2;" width="26.416" height="24.494"/>
						<rect x="232.538" y="252.193" style="fill:#B2B2B2;" width="29.561" height="7.885"/>
					</g>
				</g>
			</g>
			<g>
				<path style="fill:#92E3A9;" d="M172.217,252.691c0,0-6.425,0-13.492-1.285c-7.067-1.285-8.352-5.782-5.14-7.067
					c3.212-1.285,14.134,0.642,14.134,0.642s-14.134,0-16.062-8.352c-1.927-8.352,5.14-7.71,7.067-5.782s7.067,5.782,7.067,5.782
					s-10.922-10.922-10.922-17.347c0-6.424,7.067-5.782,8.995-1.927c1.927,3.855,6.425,15.419,6.425,15.419
					s-7.067-20.559,1.927-17.347c8.994,3.212,7.067,12.849,7.067,14.777c0,1.927,0,8.352,0,8.352s8.994-17.347,12.207-13.492
					c3.212,3.855-4.497,10.922-4.497,10.922s4.497-16.704,15.419-16.061c10.922,0.642,0.642,8.352-1.285,11.564
					c-1.927,3.212-10.279,10.279-10.279,10.279s18.632-8.352,27.626-8.352c8.995,0,0.643,10.279-4.497,10.922
					c-5.14,0.642-14.777,1.927-14.777,1.927s12.849,5.782,7.71,7.067c-5.14,1.285-17.989-1.285-17.989-1.285L172.217,252.691z"/>
				<g>
					<g>
						<rect x="166.652" y="257.998" style="fill:#B2B2B2;" width="26.416" height="24.494"/>
						<rect x="165.079" y="252.193" style="fill:#B2B2B2;" width="29.561" height="7.885"/>
					</g>
				</g>
			</g>
			<g>
				<path style="fill:#92E3A9;" d="M211.979,134.12v11.85h3.712v-12.992c0-3.075,2.493-5.568,5.568-5.568l0,0
					c3.075,0,5.568,2.493,5.568,5.568v16.133h3.427v-8.566c0-2.208,1.79-3.998,3.997-3.998l0,0c2.208,0,3.998,1.79,3.998,3.998
					v8.566v4.569l0,0c0,1.419-1.151,2.57-2.57,2.57h-8.852v9.708H215.69v-12.564h-7.71c-1.735,0-3.141-1.406-3.141-3.141l0,0v-4.283
					v-11.85c0-1.971,1.598-3.569,3.569-3.569l0,0C210.38,130.551,211.979,132.15,211.979,134.12z"/>
				<g>
					<rect x="206.825" y="164.906" style="fill:#B2B2B2;" width="26.416" height="24.494"/>
					<rect x="205.253" y="159.101" style="fill:#B2B2B2;" width="29.561" height="7.885"/>
				</g>
			</g>
			<g>
				<path style="fill:#92E3A9;" d="M109.976,320.568v11.85h3.712v-12.992c0-3.075,2.493-5.568,5.568-5.568l0,0
					c3.075,0,5.568,2.493,5.568,5.568v16.133h3.426v-8.566c0-2.208,1.79-3.998,3.997-3.998l0,0c2.208,0,3.998,1.79,3.998,3.998
					v8.566v4.569l0,0c0,1.419-1.15,2.57-2.57,2.57h-8.852v9.709h-11.136v-12.564h-7.71c-1.735,0-3.141-1.406-3.141-3.141l0,0v-4.283
					v-11.85c0-1.971,1.598-3.569,3.569-3.569l0,0C108.378,316.999,109.976,318.597,109.976,320.568z"/>
				<g>
					<rect x="104.823" y="351.353" style="fill:#B2B2B2;" width="26.416" height="24.494"/>
					<rect x="103.25" y="345.548" style="fill:#B2B2B2;" width="29.561" height="7.885"/>
				</g>
			</g>
			<g>
				<path style="fill:#92E3A9;" d="M240.998,320.568v11.85h3.712v-12.992c0-3.075,2.493-5.568,5.568-5.568l0,0
					c3.075,0,5.568,2.493,5.568,5.568v16.133h3.426v-8.566c0-2.208,1.79-3.998,3.997-3.998l0,0c2.208,0,3.998,1.79,3.998,3.998
					v8.566v4.569l0,0c0,1.419-1.151,2.57-2.57,2.57h-8.852v9.709H244.71v-12.564h-7.71c-1.735,0-3.141-1.406-3.141-3.141l0,0v-4.283
					v-11.85c0-1.971,1.598-3.569,3.569-3.569l0,0C239.4,316.999,240.998,318.597,240.998,320.568z"/>
				<g>
					<rect x="235.845" y="351.353" style="fill:#B2B2B2;" width="26.416" height="24.494"/>
					<rect x="234.273" y="345.548" style="fill:#B2B2B2;" width="29.561" height="7.885"/>
				</g>
			</g>
			<g>
				<g>
					<path style="fill:#92E3A9;" d="M173.805,350.835c0,0-3.344-5.853-9.197-10.869c-5.852-5.017-7.525-16.722-7.525-16.722
						s2.508-0.836,7.525,4.18c5.017,5.017,8.361,11.705,8.361,11.705s-3.344-14.213-3.344-19.23c0-5.017,8.361-17.558,8.361-17.558
						s2.508,9.197,2.508,13.377c0,4.18,0,19.23,0,19.23s5.017-10.033,11.705-15.886c6.689-5.853,16.722-8.361,16.722-8.361
						s0.836,10.033-2.508,13.377c-3.344,3.345-17.558,15.05-17.558,15.05l19.23-3.345l-19.23,11.705c0,0-3.587,4.689-6.689,3.345
						C179.065,349.491,173.805,350.835,173.805,350.835z"/>
					<rect x="165.857" y="351.353" style="fill:#B2B2B2;" width="26.416" height="24.494"/>
					<rect x="164.285" y="345.548" style="fill:#B2B2B2;" width="29.561" height="7.885"/>
				</g>
			</g>
			<g>
				<path style="fill:#92E3A9;" d="M256.38,159.534c0,0-8.352-7.067-10.922-9.637c-2.57-2.57-8.994-9.637-3.855-7.067
					c5.14,2.57,10.922,7.067,10.922,7.067s-4.497-13.492-4.497-17.347c0-3.855,6.425-1.285,9.637,5.14
					c3.212,6.425,5.14,10.922,5.14,10.922s-5.782-25.699-0.643-26.983c5.14-1.285,6.425,16.704,6.425,16.704
					s4.497-31.481,10.922-24.414c6.425,7.067-4.497,25.698-4.497,25.698s12.849-8.994,10.28-1.927
					c-2.57,7.067-9.637,9.637-9.637,9.637s18.632-4.497,13.492,2.57c-5.14,7.067-21.844,12.849-21.844,12.849L256.38,159.534z"/>
				<g>
					<rect x="252.383" y="164.906" style="fill:#B2B2B2;" width="26.416" height="24.494"/>
					<rect x="250.811" y="159.101" style="fill:#B2B2B2;" width="29.561" height="7.885"/>
				</g>
			</g>
			<g>
				<path style="fill:#92E3A9;" d="M153.586,159.534c0,0-8.352-7.067-10.922-9.637c-2.57-2.57-8.995-9.637-3.855-7.067
					c5.14,2.57,10.922,7.067,10.922,7.067s-4.497-13.492-4.497-17.347c0-3.855,6.425-1.285,9.637,5.14
					c3.212,6.425,5.14,10.922,5.14,10.922s-5.782-25.699-0.642-26.983c5.14-1.285,6.424,16.704,6.424,16.704
					s4.497-31.481,10.922-24.414c6.425,7.067-4.497,25.698-4.497,25.698s12.849-8.994,10.279-1.927
					c-2.57,7.067-9.637,9.637-9.637,9.637s18.631-4.497,13.492,2.57c-5.14,7.067-21.844,12.849-21.844,12.849L153.586,159.534z"/>
				<g>
					<rect x="149.589" y="164.906" style="fill:#B2B2B2;" width="26.416" height="24.494"/>
					<rect x="148.016" y="159.101" style="fill:#B2B2B2;" width="29.561" height="7.885"/>
				</g>
			</g>
		</g>
		<path style="fill:#B2B2B2;" d="M78.952,437.427V387.08h218.399v50.347h8.297V188.084H70.656v249.343H78.952z M78.952,199.952
			h218.399v81.696H78.952V199.952z M78.952,293.516h218.399v81.696H78.952V293.516z"/>
	</g>
</g>
<g id="Plant_3">
	<g>
		<g>
			<path id="XMLID_4_" style="fill:#92E3A9;stroke:#263238;stroke-linecap:round;stroke-linejoin:round;stroke-miterlimit:10;" d="
				M581.391,297.549c0,0-0.789-6.472,2.104-18.122c2.893-11.65,6.049-18.985,6.049-18.985s4.471,12.081,6.575,22.869
				c2.104,10.787,2.104,18.985,2.104,18.985s-3.419,12.513-6.575,16.828c-3.156,4.315-5.523,2.157-7.626-3.021
				C581.917,310.925,581.391,297.549,581.391,297.549z"/>
			<path id="XMLID_3_" style="fill:#92E3A9;stroke:#263238;stroke-linecap:round;stroke-linejoin:round;stroke-miterlimit:10;" d="
				M572.186,310.925c0,0-0.789-4.315-0.789-14.239c0-9.924,2.63-25.457,2.63-25.457s4.734,8.198,7.363,17.259
				c2.63,9.061,7.364,26.752,7.364,26.752s1.578-8.63,4.997-18.122c3.419-9.493,11.834-22.006,11.834-22.006s0,7.335,0,18.985
				s-2.63,20.711-2.63,20.711s-0.789,4.315-10.782,7.766C582.18,326.026,574.027,322.143,572.186,310.925z"/>
			<path id="XMLID_2_" style="fill:#92E3A9;stroke:#263238;stroke-linecap:round;stroke-linejoin:round;stroke-miterlimit:10;" d="
				M564.823,326.889c0,0-3.682-4.746-3.682-15.102c0-10.355,1.578-19.848,1.578-19.848s1.315,0.863,4.997,6.041
				c3.682,5.178,11.834,18.554,11.834,19.417c0,0.863,0.789-3.883,3.945-9.492c3.156-5.609,12.623-18.985,12.623-18.985
				s1.315,12.081,1.315,17.259s0.526,12.513,0.526,12.513s3.945-9.924,8.152-15.965c4.208-6.041,9.467-11.219,9.467-11.219
				s0.789,3.021,0.526,11.65c-0.263,8.629-3.945,24.594-4.997,27.183c-1.052,2.589-4.734,7.767-11.834,10.356
				c-7.1,2.589-19.198,4.315-25.509,1.294C567.453,338.971,564.823,326.889,564.823,326.889z"/>
			<path id="XMLID_1_" style="fill:#92E3A9;stroke:#263238;stroke-linecap:round;stroke-linejoin:round;stroke-miterlimit:10;" d="
				M561.141,343.286c0,0-2.104-2.589-7.889-13.807c-5.786-11.218-8.415-25.457-8.415-25.457s3.156,0.432,8.415,5.609
				c5.26,5.178,21.038,25.457,21.038,25.457s-2.893-8.629-1.052-18.122c1.841-9.492,4.208-13.376,4.208-13.376
				s5.523,8.198,7.364,14.67c1.841,6.472,3.945,15.965,3.945,15.965s2.63-11.65,7.1-19.848c4.471-8.198,10.256-13.807,10.256-13.807
				s2.367,9.492,0.789,17.691c-1.578,8.198-3.156,14.67-3.156,14.67s5.786-16.396,10.519-20.28c4.734-3.883,14.99-7.335,14.99-7.335
				s-4.208,15.533-7.626,22.437c-3.419,6.904-8.415,14.67-8.415,14.67S586.914,351.052,561.141,343.286z"/>
		</g>
		<g>
			<polygon style="fill:#263238;stroke:#263238;stroke-linecap:round;stroke-linejoin:round;stroke-miterlimit:10;" points="
				610.519,437.501 565.011,437.501 558.185,344.238 617.345,344.238 			"/>
			<path style="fill:#A1A1A1;stroke:#263238;stroke-linecap:round;stroke-linejoin:round;stroke-miterlimit:10;" d="
				M616.889,348.831h-58.512c-1.583,0-2.866-1.283-2.866-2.866v-1.348c0-1.583,1.283-2.866,2.866-2.866h58.512
				c1.583,0,2.866,1.283,2.866,2.866v1.348C619.755,347.547,618.472,348.831,616.889,348.831z"/>
		</g>
	</g>
</g>
<g id="Plant_2">
	<g>

			<line style="fill:none;stroke:#263238;stroke-linecap:round;stroke-linejoin:round;stroke-miterlimit:10;" x1="493.233" y1="383.928" x2="493.233" y2="283.651"/>
		<polygon style="fill:#263238;stroke:#263238;stroke-linecap:round;stroke-linejoin:round;stroke-miterlimit:10;" points="
			515.281,437.427 471.611,437.427 462.253,380.12 524.639,380.12 		"/>
		<g>
			<path style="fill:#92E3A9;stroke:#263238;stroke-linecap:round;stroke-linejoin:round;stroke-miterlimit:10;" d="
				M499.345,354.275c0,0-0.226-12.223,14.034-18.788c14.26-6.564,26.258,4.301,30.332,12.223c4.074,7.922,6.791,16.071,6.791,16.071
				s-14.26-11.771-27.163-11.771C510.436,352.011,499.345,354.275,499.345,354.275z"/>

				<line style="fill:none;stroke:#263238;stroke-linecap:round;stroke-linejoin:round;stroke-miterlimit:10;" x1="509.983" y1="352.464" x2="516.095" y2="343.862"/>

				<line style="fill:none;stroke:#263238;stroke-linecap:round;stroke-linejoin:round;stroke-miterlimit:10;" x1="523.339" y1="352.011" x2="530.808" y2="345.9"/>
		</g>
		<g>
			<path style="fill:#92E3A9;stroke:#263238;stroke-linecap:round;stroke-linejoin:round;stroke-miterlimit:10;" d="
				M492.157,346.254c0,0-3.49-11.717-19.07-13.648c-15.58-1.932-23.717,12.06-25.198,20.844c-1.481,8.785-1.598,17.374-1.598,17.374
				s10.021-15.54,22.316-19.452C480.902,347.46,492.157,346.254,492.157,346.254z"/>

				<line style="fill:none;stroke:#263238;stroke-linecap:round;stroke-linejoin:round;stroke-miterlimit:10;" x1="481.47" y1="347.754" x2="473.038" y2="341.41"/>

				<line style="fill:none;stroke:#263238;stroke-linecap:round;stroke-linejoin:round;stroke-miterlimit:10;" x1="468.607" y1="351.372" x2="459.635" y2="347.812"/>
		</g>
		<g>
			<path style="fill:#92E3A9;stroke:#263238;stroke-linecap:round;stroke-linejoin:round;stroke-miterlimit:10;" d="M479.613,315.77
				c0,0-2.708-9.09-14.795-10.589c-12.087-1.499-18.401,9.356-19.55,16.172c-1.149,6.816-1.24,13.48-1.24,13.48
				s7.774-12.057,17.314-15.092C470.88,316.706,479.613,315.77,479.613,315.77z"/>

				<line style="fill:none;stroke:#263238;stroke-linecap:round;stroke-linejoin:round;stroke-miterlimit:10;" x1="471.321" y1="316.934" x2="464.779" y2="312.012"/>

				<line style="fill:none;stroke:#263238;stroke-linecap:round;stroke-linejoin:round;stroke-miterlimit:10;" x1="461.341" y1="319.741" x2="454.381" y2="316.98"/>
		</g>
		<g>
			<path style="fill:#92E3A9;stroke:#263238;stroke-linecap:round;stroke-linejoin:round;stroke-miterlimit:10;" d="
				M503.515,310.103c0,0,2.708-9.09,14.795-10.589c12.087-1.499,18.401,9.356,19.55,16.172c1.149,6.816,1.24,13.479,1.24,13.479
				s-7.774-12.057-17.314-15.092C512.247,311.039,503.515,310.103,503.515,310.103z"/>

				<line style="fill:none;stroke:#263238;stroke-linecap:round;stroke-linejoin:round;stroke-miterlimit:10;" x1="511.806" y1="311.267" x2="518.348" y2="306.345"/>

				<line style="fill:none;stroke:#263238;stroke-linecap:round;stroke-linejoin:round;stroke-miterlimit:10;" x1="521.786" y1="314.074" x2="528.747" y2="311.313"/>
		</g>
		<g>
			<path style="fill:#92E3A9;stroke:#263238;stroke-linecap:round;stroke-linejoin:round;stroke-miterlimit:10;" d="
				M497.081,353.143c0,0-9.733-4.753-17.882,3.848c-8.149,8.602-1.358,21.957,4.301,28.974c5.659,7.017,11.318,12.45,11.318,12.45
				s13.581-8.602,18.335-18.335c4.754-9.733,7.017-17.203,0.905-23.768C507.946,349.748,497.081,353.143,497.081,353.143z"/>
			<path style="fill:none;stroke:#263238;stroke-linecap:round;stroke-linejoin:round;stroke-miterlimit:10;" d="M497.081,353.143
				c0,0-4.754,26.031-3.395,42.102"/>

				<line style="fill:none;stroke:#263238;stroke-linecap:round;stroke-linejoin:round;stroke-miterlimit:10;" x1="495.723" y1="365.14" x2="500.476" y2="372.836"/>

				<line style="fill:none;stroke:#263238;stroke-linecap:round;stroke-linejoin:round;stroke-miterlimit:10;" x1="494.591" y1="373.968" x2="488.479" y2="383.475"/>

				<line style="fill:none;stroke:#263238;stroke-linecap:round;stroke-linejoin:round;stroke-miterlimit:10;" x1="496.402" y1="358.576" x2="488.479" y2="360.387"/>
		</g>
		<path style="fill:none;stroke:#263238;stroke-linecap:round;stroke-linejoin:round;stroke-miterlimit:10;" d="M503.515,310.103
			c0,0-7.565,1.843-9.829,7.275"/>
		<path style="fill:none;stroke:#263238;stroke-linecap:round;stroke-linejoin:round;stroke-miterlimit:10;" d="M479.613,315.77
			c0,0,12.262,2.514,13.62,9.531"/>
		<path style="fill:#92E3A9;stroke:#263238;stroke-linecap:round;stroke-linejoin:round;stroke-miterlimit:10;" d="M493.459,332.092
			c0,0,5.659-10.639,13.581-11.771c7.923-1.132,16.977,5.659,16.977,5.659s-16.071,9.507-21.73,9.507
			S493.459,332.092,493.459,332.092z"/>
		<path style="fill:#92E3A9;stroke:#263238;stroke-linecap:round;stroke-linejoin:round;stroke-miterlimit:10;" d="M493.459,332.092
			c0,0-4.98-7.696-13.808-8.602c-8.828-0.905-18.335,11.544-18.335,11.544s3.395,2.263,12.45,1.811S493.459,332.092,493.459,332.092
			z"/>
		<path style="fill:#92E3A9;stroke:#263238;stroke-linecap:round;stroke-linejoin:round;stroke-miterlimit:10;" d="M493.007,313.757
			c0,0-10.186-9.96-10.639-19.919c-0.453-9.96,11.771-25.805,11.771-25.805s7.47,19.467,7.922,27.616
			C502.514,303.797,493.007,313.757,493.007,313.757z"/>

			<line style="fill:none;stroke:#263238;stroke-linecap:round;stroke-linejoin:round;stroke-miterlimit:10;" x1="493.233" y1="304.703" x2="489.611" y2="299.496"/>

			<line style="fill:none;stroke:#263238;stroke-linecap:round;stroke-linejoin:round;stroke-miterlimit:10;" x1="493.686" y1="292.706" x2="496.176" y2="288.405"/>
	</g>
</g>
<g id="Plant_1">
	<g>
		<g>

				<path id="XMLID_197_" style="fill:#92E3A9;stroke:#263238;stroke-linecap:round;stroke-linejoin:round;stroke-miterlimit:10;" d="
				M121.77,367.665c0,0-0.687-3.435,1.832-9.617c2.519-6.182,5.267-10.075,5.267-10.075s3.893,6.411,5.724,12.136
				c1.832,5.724,1.832,10.075,1.832,10.075s-2.977,6.64-5.724,8.93c-2.748,2.29-4.808,1.145-6.64-1.603
				C122.228,374.763,121.77,367.665,121.77,367.665z"/>

				<path id="XMLID_192_" style="fill:#92E3A9;stroke:#263238;stroke-linecap:round;stroke-linejoin:round;stroke-miterlimit:10;" d="
				M113.756,374.763c0,0-0.687-2.29-0.687-7.556c0-5.267,2.29-13.51,2.29-13.51s4.122,4.35,6.411,9.159
				c2.29,4.808,6.411,14.197,6.411,14.197s1.374-4.58,4.351-9.617c2.977-5.038,10.304-11.678,10.304-11.678s0,3.893,0,10.075
				c0,6.182-2.29,10.991-2.29,10.991s-0.687,2.29-9.388,4.121C122.457,382.777,115.358,380.716,113.756,374.763z"/>

				<path id="XMLID_195_" style="fill:#92E3A9;stroke:#263238;stroke-linecap:round;stroke-linejoin:round;stroke-miterlimit:10;" d="
				M107.344,383.235c0,0-3.206-2.519-3.206-8.014c0-5.495,1.374-10.533,1.374-10.533s1.145,0.458,4.351,3.206
				c3.206,2.748,10.304,9.846,10.304,10.304c0,0.458,0.687-2.061,3.435-5.037c2.748-2.977,10.991-10.075,10.991-10.075
				s1.145,6.411,1.145,9.159c0,2.748,0.458,6.64,0.458,6.64s3.435-5.266,7.098-8.472c3.664-3.206,8.243-5.953,8.243-5.953
				s0.687,1.603,0.458,6.182c-0.229,4.579-3.435,13.052-4.351,14.425c-0.916,1.374-4.122,4.122-10.304,5.496
				c-6.182,1.374-16.715,2.29-22.211,0.687C109.634,389.647,107.344,383.235,107.344,383.235z"/>

				<path id="XMLID_193_" style="fill:#92E3A9;stroke:#263238;stroke-linecap:round;stroke-linejoin:round;stroke-miterlimit:10;" d="
				M104.139,391.936c0,0-1.832-1.374-6.869-7.327c-5.037-5.953-7.327-13.51-7.327-13.51s2.748,0.229,7.327,2.977
				c4.58,2.748,18.318,13.509,18.318,13.509s-2.519-4.579-0.916-9.617c1.603-5.037,3.664-7.098,3.664-7.098s4.809,4.351,6.411,7.785
				c1.603,3.435,3.435,8.472,3.435,8.472s2.29-6.182,6.182-10.533c3.893-4.351,8.93-7.327,8.93-7.327s2.061,5.038,0.687,9.388
				c-1.374,4.351-2.748,7.785-2.748,7.785s5.037-8.701,9.159-10.762c4.122-2.061,13.052-3.893,13.052-3.893
				s-3.664,8.243-6.64,11.907c-2.977,3.663-7.327,7.785-7.327,7.785S126.578,396.058,104.139,391.936z"/>
		</g>
		<g>
			<path style="fill:#263238;stroke:#263238;stroke-linecap:round;stroke-linejoin:round;stroke-miterlimit:10;" d="
				M136.774,437.427h-18.723c-7.694,0-14.228-5.636-15.356-13.248l-4.863-32.812h59.161l-4.863,32.812
				C151.002,431.791,144.469,437.427,136.774,437.427z"/>
			<path style="fill:#A1A1A1;stroke:#263238;stroke-linecap:round;stroke-linejoin:round;stroke-miterlimit:10;" d="M156.537,395.96
				H98.025c-1.583,0-2.866-1.283-2.866-2.866v-1.348c0-1.583,1.283-2.866,2.866-2.866h58.512c1.583,0,2.866,1.283,2.866,2.866v1.348
				C159.403,394.677,158.12,395.96,156.537,395.96z"/>
		</g>
	</g>
</g>
<g id="Character_1_">
	<g>
		<path style="fill:#263238;stroke:#263238;stroke-miterlimit:10;" d="M314.875,150.864c0,0,5.792,34.2,12.687,48.542
			c6.895,14.342,8.274,18.479,8.274,18.479s-15.997,4.137-33.648,6.068c-17.652,1.931-23.444-1.103-23.444-1.103l2.206-8.826
			c0,0,13.514,4.689,18.479-1.379c4.965-6.068,10.205-28.132,11.032-33.373c0.827-5.24-1.655-27.857-1.655-27.857L314.875,150.864z"
			/>
		<path style="fill:#92E3A9;stroke:#263238;stroke-linecap:round;stroke-linejoin:round;stroke-miterlimit:10;" d="M283.709,211.266
			c0,0-3.034,13.239-3.034,17.376s0.498,5.113,2.758,6.619c4.965,3.31,15.721,9.102,25.374,10.481
			c9.653,1.379,16.835,3.844,18.755,7.171c11.131,19.293,18.203,86.603,18.203,86.603s3.586,2.758,14.893,4.689
			c11.308,1.931,14.894,2.207,14.894,2.207l2.758,17.376c0,0-10.205,1.379-27.581,3.034c-17.376,1.655-28.684,0-28.684,0
			s10.481,33.097,14.066,44.405c3.585,11.308,5.792,26.202,5.792,26.202H197.106c0,0,16.273-73.64,18.203-82.466
			c1.931-8.826,2.206-39.992,2.206-39.992l-41.371,1.655c0,0,7.447-44.681,14.618-62.057s10.481-14.342,20.961-15.997
			c10.481-1.655,27.581-5.24,34.476-9.929c6.895-4.689,9.377-29.787,9.377-29.787L283.709,211.266z"/>
		<path style="fill:#FFFFFF;stroke:#263238;stroke-linecap:round;stroke-linejoin:round;stroke-miterlimit:10;" d="M318.391,358.335
			c-1.962,8.241,1.211,13.788,6.518,17.525c-1.691-5.338-2.863-9.039-2.863-9.039s11.308,1.655,28.684,0
			c17.376-1.655,27.581-3.034,27.581-3.034l-2.758-17.376c0,0-3.586-0.276-14.894-2.207c-11.308-1.931-14.893-4.689-14.893-4.689
			S324.543,332.496,318.391,358.335z"/>
		<path style="fill:#263238;stroke:#263238;stroke-linecap:round;stroke-linejoin:round;stroke-miterlimit:10;" d="M336.112,411.226
			c-3.586-11.308-14.066-44.405-14.066-44.405s-2.207-15.997-1.931-18.755c0.276-2.758,8.274-17.927,8.274-28.684
			c0-10.757-9.653-43.026-10.481-45.232c-0.763-2.035-14.191-26.35-16.27-30.11c-0.943-0.301-1.877-0.631-2.803-0.976l12.453,33.568
			l-65.918-1.379l-10.327-41.852c-1.596,0.491-3.26,0.957-4.953,1.398c1.383,5.384,11.044,43.349,9.764,48.728
			c-1.379,5.792-22.34,31.442-22.34,31.442s-0.276,31.166-2.206,39.992c-1.931,8.826-18.203,82.466-18.203,82.466h144.799
			C341.904,437.427,339.698,422.534,336.112,411.226z"/>
		<path style="fill:#FFFFFF;stroke:#263238;stroke-linecap:round;stroke-linejoin:round;stroke-miterlimit:10;" d="M280.953,225.516
			c0.749-5.496,2.756-14.25,2.756-14.25l-28.132-12.411c0,0-1.075,10.863-3.774,19.631L280.953,225.516z"/>
		<g>
			<path style="fill:#FFFFFF;stroke:#263238;stroke-linecap:round;stroke-linejoin:round;stroke-miterlimit:10;" d="
				M312.945,151.967c0,0,0.827,13.515,0.827,21.789s1.379,16.273-2.482,27.029c-3.861,10.757-9.377,18.203-12.687,19.582
				c-3.31,1.379-12.135,0-16.548-1.655c-4.413-1.655-27.305-15.721-27.305-15.721s6.344-39.44,7.171-42.199
				c0.827-2.758,2.758-5.516,2.758-5.516L312.945,151.967z"/>
			<path style="fill:none;stroke:#263238;stroke-linecap:round;stroke-linejoin:round;stroke-miterlimit:10;" d="M304.67,166.033
				c0,0-2.206,4.137-1.931,7.723c0.276,3.585,7.171,11.308,7.171,12.687c0,1.379-3.861,3.861-8.55,3.861"/>
			<path style="fill:none;stroke:#263238;stroke-linecap:round;stroke-linejoin:round;stroke-miterlimit:10;" d="M298.327,199.406
				c0,0-11.584-0.276-16.824-7.447"/>
			<path style="fill:none;stroke:#263238;stroke-linecap:round;stroke-linejoin:round;stroke-miterlimit:10;" d="M277.917,167.412
				c0,0,6.619-4.137,12.411-3.034"/>
			<path style="fill:none;stroke:#263238;stroke-linecap:round;stroke-linejoin:round;stroke-miterlimit:10;" d="M306.049,164.103
				c0,0,3.585-2.482,7.171,0.552"/>
			<path style="fill:#263238;" d="M290.604,175.962c0,2.133-1.05,3.861-2.344,3.861c-1.295,0-2.344-1.729-2.344-3.861
				c0-2.132,1.05-3.861,2.344-3.861C289.555,172.101,290.604,173.83,290.604,175.962z"/>
			<path style="fill:#263238;" d="M310.324,175.348c0,2.167-0.869,3.924-1.94,3.924c-1.072,0-1.94-1.757-1.94-3.924
				c0-2.167,0.869-3.924,1.94-3.924C309.456,171.424,310.324,173.181,310.324,175.348z"/>
		</g>
		<path style="fill:#263238;stroke:#263238;stroke-miterlimit:10;" d="M269.643,155.828c0,0-7.171,43.577-8.274,55.989
			c-1.103,12.411,0.276,22.065,0.276,22.065s-8.826-4.689-25.65-9.929c-16.824-5.24-29.787-14.066-29.787-17.376
			c0-3.31,23.995-49.645,23.995-49.645L269.643,155.828z"/>
		<path style="fill:#FFFFFF;stroke:#263238;stroke-linecap:round;stroke-linejoin:round;stroke-miterlimit:10;" d="M243.993,293.456
			c0,0-22.34,7.723-31.442,10.205c-9.102,2.482-31.718,4.965-36.407,12.963c-4.689,7.998-4.965,15.997-4.689,22.892
			s6.344,9.929,11.308,9.102c4.964-0.827,23.444-3.31,40.268-15.169c16.824-11.86,31.994-25.098,31.994-25.098L243.993,293.456z"/>
		<g>

				<rect x="304.395" y="251.533" style="fill:#FFFFFF;stroke:#263238;stroke-linecap:round;stroke-linejoin:round;stroke-miterlimit:10;" width="6.068" height="9.929"/>

				<rect x="310.186" y="254.016" style="fill:#FFFFFF;stroke:#263238;stroke-linecap:round;stroke-linejoin:round;stroke-miterlimit:10;" width="7.171" height="4.964"/>

				<rect x="293.914" y="251.533" style="fill:#FFFFFF;stroke:#263238;stroke-linecap:round;stroke-linejoin:round;stroke-miterlimit:10;" width="10.481" height="18.479"/>
		</g>

			<ellipse style="fill:none;stroke:#263238;stroke-linecap:round;stroke-linejoin:round;stroke-miterlimit:10;" cx="298.88" cy="312.9" rx="19.003" ry="24.409"/>
		<g>
			<path style="fill:#FFFFFF;stroke:#263238;stroke-linecap:round;stroke-linejoin:round;stroke-miterlimit:10;" d="
				M239.028,291.801c0,0,0,5.792,2.758,12.687c2.758,6.895,11.032,12.135,11.032,12.135l10.756-6.068l14.066-4.137
				c0,0,7.723-2.758,8.55-3.034c0.827-0.276,20.41,1.103,24.547,0.552s7.998-4.965,6.895-7.447
				c-1.103-2.482-6.344-3.586-6.344-3.586s-0.827-9.653-1.103-10.756c-0.276-1.103,6.068-0.827,6.344-6.344
				c0.276-5.516-2.482-7.447-2.482-7.447s-0.276-6.895-4.137-8.55c-3.861-1.655-8.826-3.034-19.307-1.103
				c-10.481,1.931-20.41,4.965-27.856,13.514c-7.447,8.55-11.308,13.79-11.308,13.79L239.028,291.801z"/>
			<path style="fill:none;stroke:#263238;stroke-linecap:round;stroke-linejoin:round;stroke-miterlimit:10;" d="M311.29,292.904
				c0,0-9.653-1.655-15.169-0.276"/>
			<path style="fill:none;stroke:#263238;stroke-linecap:round;stroke-linejoin:round;stroke-miterlimit:10;" d="M310.186,282.148
				c0,0-10.481-4.413-16.273-3.034"/>
			<path style="fill:none;stroke:#263238;stroke-linecap:round;stroke-linejoin:round;stroke-miterlimit:10;" d="M314.048,268.358
				c0,0-11.032-5.24-21.237-1.655"/>
		</g>
		<g>
			<g>
				<path style="fill:none;stroke:#263238;stroke-linecap:round;stroke-linejoin:round;stroke-miterlimit:10;" d="M384.495,275.227
					c0,0,15.935,4.059,23.903,28.263"/>
				<path style="fill:none;stroke:#263238;stroke-linecap:round;stroke-linejoin:round;stroke-miterlimit:10;" d="M406.143,256.135
					c0,0,4.961,31.27,3.758,48.408"/>
				<path style="fill:none;stroke:#263238;stroke-linecap:round;stroke-linejoin:round;stroke-miterlimit:10;" d="M431.85,263.952
					c0,0-15.785,14.582-18.792,39.688"/>
				<path style="fill:#FFFFFF;stroke:#263238;stroke-linecap:round;stroke-linejoin:round;stroke-miterlimit:10;" d="
					M401.395,247.404c0,0-3.147-4.72-6.031-3.671c-2.884,1.049-4.72,5.507-3.147,7.604c1.573,2.098,5.244-0.787,4.982,0.524
					c-0.262,1.311-5.244,3.671-3.409,6.555c1.836,2.884,5.507,3.671,6.555,1.573c1.049-2.098,1.836-4.72,2.36-3.147
					c0.524,1.573-1.573,4.72,1.049,5.507c2.622,0.787,7.604,0.787,7.604-1.836c0-2.622-2.098-2.884-0.524-3.671
					c1.573-0.787,3.409,2.884,5.244,0.787c1.835-2.098,3.147-8.391,0.524-9.178c-2.622-0.787-2.622,1.311-4.458-0.262
					c-1.835-1.573,2.622-4.72-2.36-6.555C404.803,239.8,399.297,241.373,401.395,247.404z"/>
				<path style="fill:#FFFFFF;stroke:#263238;stroke-linecap:round;stroke-linejoin:round;stroke-miterlimit:10;" d="
					M427.837,261.406c0,0-5.566-1.093-6.854,1.693c-1.288,2.786,0.582,7.229,3.179,7.591c2.597,0.362,3.137-4.276,3.883-3.166
					c0.746,1.11-1.09,6.308,2.25,7.038c3.34,0.73,6.485-1.321,5.736-3.543c-0.75-2.222-2.056-4.628-0.57-3.892
					c1.486,0.736,2.241,4.442,4.647,3.136c2.406-1.306,5.916-4.842,4.056-6.689c-1.861-1.848-3.525-0.544-2.974-2.215
					c0.55-1.671,4.449-0.386,4.253-3.167c-0.195-2.781-3.737-8.145-6.143-6.839c-2.406,1.306-0.917,2.784-3.327,2.978
					c-2.41,0.194-1.502-5.186-6.314-2.944C424.843,253.629,422.079,258.645,427.837,261.406z"/>
				<path style="fill:#FFFFFF;stroke:#263238;stroke-linecap:round;stroke-linejoin:round;stroke-miterlimit:10;" d="
					M374.869,272.419c0,0-5.566-1.093-6.855,1.693c-1.288,2.786,0.582,7.229,3.179,7.591c2.597,0.362,3.137-4.276,3.883-3.166
					c0.746,1.11-1.09,6.308,2.25,7.038c3.34,0.73,6.485-1.321,5.735-3.543c-0.749-2.222-2.056-4.628-0.57-3.892
					c1.486,0.736,2.241,4.442,4.646,3.136c2.406-1.306,5.916-4.842,4.056-6.689c-1.861-1.848-3.525-0.544-2.974-2.214
					c0.55-1.671,4.449-0.387,4.254-3.167c-0.195-2.78-3.737-8.145-6.143-6.839c-2.406,1.306-0.917,2.785-3.327,2.978
					c-2.41,0.194-1.501-5.186-6.315-2.945C371.875,264.642,369.111,269.658,374.869,272.419z"/>
				<path style="fill:#92E3A9;stroke:#263238;stroke-linecap:round;stroke-linejoin:round;stroke-miterlimit:10;" d="
					M402.706,303.781c0,0-0.525-1.573-4.458-2.36c-3.933-0.787-6.031-0.524-6.031-0.524s-2.098-1.311,1.311-3.671
					c3.409-2.36,3.409-2.36,3.409-2.36s-2.36-1.573-4.982-1.311c-2.622,0.262-5.244,1.049-5.244,1.049s-0.02-5.14,4.7-7.5
					c4.72-2.36,7.362-0.629,7.362-0.629l-5.769-5.244c0,0,1.836-2.098,5.507-1.573c3.671,0.524,7.08,2.884,7.08,2.884
					s-7.867-7.867-8.391-8.915c-0.524-1.049,4.72,0.262,8.653,2.884c3.933,2.622,5.507,5.769,5.507,5.769s0.524-4.458,2.098-7.08
					c1.573-2.622,4.458-5.244,4.458-5.244s-0.525,7.342-0.525,9.44c0,2.098,1.682-1.612,6.042-2.814
					c4.237-1.169,8.905,0.192,8.905,0.192s-6.031,2.622-7.342,4.458c-1.311,1.836-3.147,4.982-3.147,4.982s-0.262-1.573,4.458-0.787
					c4.72,0.787,10.227,5.769,10.227,5.769s-7.342-0.262-9.964,1.049c-2.622,1.311-4.72,4.195-4.72,4.195s2.36-1.573,4.982-0.787
					c2.622,0.787,5.507,2.622,5.507,2.622s-7.08,1.049-10.489,2.622c-3.409,1.573-4.458,3.409-4.458,3.409L402.706,303.781z"/>
			</g>
			<g>
				<path style="fill:#263238;stroke:#263238;stroke-linecap:round;stroke-linejoin:round;stroke-miterlimit:10;" d="
					M419.252,347.79h-18.723c-7.694,0-14.228-5.636-15.356-13.248l-4.863-32.812h59.161l-4.863,32.812
					C433.48,342.154,426.947,347.79,419.252,347.79z"/>
				<path style="fill:#A1A1A1;stroke:#263238;stroke-linecap:round;stroke-linejoin:round;stroke-miterlimit:10;" d="
					M439.015,306.323h-58.512c-1.583,0-2.866-1.283-2.866-2.866v-1.348c0-1.583,1.283-2.866,2.866-2.866h58.512
					c1.583,0,2.866,1.283,2.866,2.866v1.348C441.881,305.039,440.598,306.323,439.015,306.323z"/>
			</g>
		</g>
		<g>
			<path style="fill:#FFFFFF;stroke:#263238;stroke-linecap:round;stroke-linejoin:round;stroke-miterlimit:10;" d="M365.9,343.653
				c0,0-3.861,2.207-3.861,11.308s10.481,13.239,12.411,13.79c1.931,0.552,22.065-2.482,38.061-5.792
				c15.997-3.31,21.789-11.584,22.34-16.548c0.552-4.965-2.482-8.274-4.689-5.792c-2.207,2.482-2.207,3.586-7.171,6.619
				c-4.964,3.034-5.792,3.31-12.687,3.034c-6.895-0.276-22.065-6.895-23.168-10.757s-3.034-9.102-8.274-4.413
				s-8.55,9.653-8.55,9.653L365.9,343.653z"/>
			<path style="fill:#FFFFFF;stroke:#263238;stroke-linecap:round;stroke-linejoin:round;stroke-miterlimit:10;" d="
				M379.414,327.104c0,0-5.516,17.927-3.861,19.307c1.655,1.379,4.413,3.31,7.171,3.585c2.758,0.276,4.137-6.895,5.516-12.687
				c1.379-5.792,3.861-11.032,1.103-14.618C386.585,319.106,380.241,321.313,379.414,327.104z"/>
			<path style="fill:#FFFFFF;stroke:#263238;stroke-linecap:round;stroke-linejoin:round;stroke-miterlimit:10;" d="M390.998,330.69
				c0,0-5.24,20.685-4.137,23.995c1.103,3.31,6.619,6.343,9.377,4.964c2.758-1.379,3.034-7.171,4.689-17.1
				c1.655-9.929,2.482-11.308-1.931-13.515C394.583,326.829,392.653,328.483,390.998,330.69z"/>
			<path style="fill:#FFFFFF;stroke:#263238;stroke-linecap:round;stroke-linejoin:round;stroke-miterlimit:10;" d="
				M413.084,338.392c-3.553-3.75-9.926-1.657-10.896,3.418c-1.229,6.433-3.132,17.3-2.364,19.219
				c1.103,2.758,12.135,5.24,12.687,1.931c0.552-3.31,2.206-16.548,2.206-20.961C414.717,340.711,414.084,339.447,413.084,338.392z"
				/>
		</g>
		<g>
			<g>
				<path style="fill:#FFFFFF;stroke:#263238;stroke-linecap:round;stroke-linejoin:round;stroke-miterlimit:10;" d="
					M232.133,157.483c0,0-5.516-27.305-3.861-31.166c1.655-3.861,19.858-13.239,44.405-15.169
					c24.547-1.931,33.648,1.655,34.752,6.619c1.103,4.965,7.447,33.097,7.447,33.097l-29.511,5.516l-26.753,2.482l-27.856,1.379
					L232.133,157.483z"/>
				<path style="fill:#92E3A9;stroke:#263238;stroke-linecap:round;stroke-linejoin:round;stroke-miterlimit:10;" d="
					M258.611,158.862l26.753-2.482l29.511-5.516c0,0-2.485-11.021-4.615-20.484c-29.61,7.594-64.501,10.623-80.88,11.693
					c1.209,7.769,2.753,15.411,2.753,15.411l-1.379,2.758L258.611,158.862z"/>
			</g>
			<path style="fill:#FFFFFF;stroke:#263238;stroke-linecap:round;stroke-linejoin:round;stroke-miterlimit:10;" d="
				M203.725,157.208c0,0-0.552,3.31,1.655,3.31c2.206,0,17.927,3.31,56.54,0.276c38.613-3.034,56.265-6.895,67.573-10.205
				c11.308-3.31,14.893-5.24,14.342-7.723s2.758-1.655-0.552-2.482c-3.31-0.827-6.619,1.103-9.377,1.931
				c-2.758,0.827-4.689,1.655-4.689,1.655l-0.827-3.861h-3.31v5.792l-4.137,1.655l0.552-3.585l-3.31-1.103l-1.655,4.137
				l-0.827,1.931l-13.514,2.758v-4.964l-4.137-0.276l-0.827,5.792l-6.344,1.103l-6.068-3.034l-2.482,1.655l3.586,1.931
				l-10.757,1.379l-5.516,0.552l-3.585-6.344l-3.586,0.276l2.207,5.516l-6.619,1.103l1.655-3.861l-5.24-0.827l-3.31,4.413
				l-15.445,1.379l4.689-3.861l-1.103-2.758l-8.826,4.137l-1.103-6.619h-4.965l0.827,4.965l-8.274-4.413l-3.31,2.758l4.137,5.792
				L203.725,157.208z"/>
		</g>
	</g>
</g>
<g id="Table">
	<g>

			<line style="fill:none;stroke:#263238;stroke-linecap:round;stroke-linejoin:round;stroke-miterlimit:10;" x1="62.944" y1="437.427" x2="30.533" y2="437.427"/>

			<line style="fill:none;stroke:#263238;stroke-linecap:round;stroke-linejoin:round;stroke-miterlimit:10;" x1="703.214" y1="437.427" x2="70.656" y2="437.427"/>

			<line style="fill:none;stroke:#263238;stroke-linecap:round;stroke-linejoin:round;stroke-miterlimit:10;" x1="726.502" y1="437.427" x2="710.908" y2="437.427"/>
	</g>
</g>
</svg>